<svg width="288" height="288" viewBox="0 0 288 288" fill="none" xmlns="http://www.w3.org/2000/svg">
<path d="M224.017 269.532C227.706 249.984 50.952 249.984 54.652 269.532C50.9633 289.068 227.717 289.068 224.017 269.532Z" fill="#0000001A"/>
<path d="M105.931 185.343C105.931 185.343 88.4151 190.551 79.7137 186.975C71.0124 183.387 62.8429 158.943 62.8429 158.943C61.4398 150.639 65.0833 144.867 73.2302 141.339C87.3514 163.491 86.5933 145.515 99.8999 148.419C112.29 153.423 119.407 178.935 105.92 185.343H105.931Z" fill="#FEF8E8"/>
<path d="M99.9004 148.418C87.284 145.646 86.9559 162.41 74.1471 142.862L73.0156 146.402C85.021 169.97 93.8694 143.366 105.909 152.966C103.985 150.878 101.881 149.294 99.9004 148.418Z" fill="white"/>
<path d="M113.298 173.858C82.9956 180.866 78.0848 183.806 67.5844 155.918C65.8532 156.614 64.1785 156.998 62.6284 157.178C62.0965 157.418 70.5376 182.978 79.7142 186.962C95.397 190.31 112.958 186.77 113.298 173.846V173.858Z" fill="#EBD9B4"/>
<path d="M87.7139 189.447C84.6249 189.447 81.6716 189.087 79.2954 188.103C70.2094 184.359 62.0964 160.371 61.757 159.351C61.7343 159.291 61.7231 159.231 61.7117 159.159C60.2295 150.411 63.9634 144.039 72.8006 140.211C73.3097 139.995 73.8868 140.175 74.181 140.655C82.4184 153.567 84.8059 152.103 88.7662 149.679C91.414 148.059 94.718 146.043 100.127 147.219C100.183 147.231 100.251 147.255 100.308 147.279C107.9 150.351 114.067 160.851 114.35 171.183C114.542 178.383 111.645 183.951 106.395 186.447C106.339 186.471 106.293 186.495 106.237 186.507C105.705 186.663 96.2455 189.435 87.7139 189.435V189.447ZM63.9521 158.631C64.5066 160.263 72.2688 182.607 80.1215 185.835C88.076 189.111 104.234 184.563 105.535 184.191C111.442 181.335 112.155 174.867 112.064 171.255C111.815 162.027 106.225 152.331 99.5835 149.583C95.0801 148.635 92.455 150.231 89.9204 151.791C84.9304 154.839 81.4001 156.051 72.8119 142.851C65.6607 146.235 62.764 151.407 63.9521 158.631Z" fill="#00000C"/>
<path d="M42.6345 149.931C37.5767 139.707 58.4418 138.831 61.6892 137.019C58.306 123.231 71.4203 123.771 70.6961 127.035C67.4713 135.879 76.976 141.339 71.8163 149.403L67.0866 156.663C63.6807 159.891 58.8831 159.243 55.9185 160.371C52.6145 162.219 46.2441 164.595 46.6288 159.183C40.7336 163.035 36.5923 154.827 42.6345 149.943V149.931Z" fill="#FFF7E8"/>
<path d="M72.6757 147.519C73.4338 145.443 74.158 141.987 72.2457 138.975C67.4594 133.239 73.2301 125.787 68.7154 125.187C64.7211 127.935 68.6249 139.191 70.0392 141.303C71.035 143.199 72.8228 145.047 71.8271 148.419C72.6191 147.579 72.6757 147.519 72.6757 147.519Z" fill="white"/>
<path d="M41.6621 150.915L52.5812 144.831C51.2121 141.639 45.7242 144.339 41.9337 146.703C41.8658 147.663 42.0694 148.731 42.6352 149.919C42.2844 150.231 41.9563 150.555 41.6621 150.903V150.915Z" fill="#EBD9B4"/>
<path d="M55.7032 150.734C50.2607 146.966 42.1477 155.69 40.4844 158.702C41.8422 160.334 44.5012 160.394 46.1419 159.494C47.5903 153.518 55.7032 150.734 55.7032 150.734Z" fill="#EBD9B4"/>
<path d="M57.5158 159.891C59.5978 159.675 65.5835 159.159 67.5863 155.931C61.3404 158.823 57.8553 155.727 53.1595 158.043C50.1271 159.951 46.9249 160.071 46.6533 160.083C47.5133 165.267 54.1326 160.815 57.5271 159.891H57.5158Z" fill="#EBD9B4"/>
<path d="M49.4475 163.719C48.5423 163.719 47.6936 163.527 47.0034 163.047C46.2226 162.507 45.3288 161.379 45.4872 159.075C45.9511 152.427 54.8561 149.739 55.2295 149.631C55.8405 149.451 56.4741 149.835 56.6439 150.483C56.8136 151.131 56.4515 151.803 55.8405 151.983C55.7613 152.007 48.1123 154.323 47.7728 159.267C47.6823 160.623 48.1123 160.923 48.2481 161.019C49.2891 161.739 52.2876 161.019 55.3766 159.291C55.4218 159.267 55.4784 159.243 55.5237 159.219C56.6213 158.799 57.8772 158.619 59.2124 158.415C61.713 158.043 64.3042 157.659 66.3183 155.751C66.7935 155.307 67.5177 155.343 67.9364 155.847C68.3551 156.351 68.3211 157.119 67.8459 157.563C65.3113 159.963 62.1091 160.443 59.5292 160.827C58.3524 161.007 57.2436 161.163 56.3723 161.487C55.1729 162.159 52.0499 163.719 49.4248 163.719H49.4475Z" fill="#00000C"/>
<path d="M42.6354 151.154C42.2168 151.154 41.8208 150.914 41.6171 150.506C40.5422 148.346 40.4064 146.342 41.2098 144.554C43.2691 139.958 51.0313 138.314 56.7001 137.102C58.1032 136.802 59.4498 136.514 60.3323 136.25C59.0424 129.686 61.543 126.65 63.2064 125.39C65.7636 123.47 69.1015 123.542 70.7422 124.706C71.6361 125.342 72.0322 126.314 71.8172 127.31C71.8059 127.37 71.7945 127.418 71.7719 127.478C70.4141 131.21 71.5909 134.258 72.8355 137.486C74.3178 141.326 75.8454 145.298 72.779 150.086C72.4282 150.638 71.704 150.794 71.1835 150.41C70.663 150.038 70.5273 149.27 70.878 148.718C73.2542 145.01 72.0774 141.95 70.7083 138.41C69.4297 135.086 67.9813 131.318 69.5768 126.758C69.3505 126.494 67.5627 125.906 65.5599 126.806C63.8174 127.586 61.1357 129.902 62.8104 136.73C62.9461 137.282 62.7085 137.846 62.2333 138.11C61.3054 138.626 59.5742 138.998 57.1641 139.502C52.2646 140.546 44.8645 142.118 43.2917 145.61C42.8165 146.678 42.9296 147.914 43.6538 149.378C43.948 149.978 43.733 150.71 43.1673 151.022C42.9975 151.118 42.8165 151.166 42.6354 151.166V151.154Z" fill="#00000C"/>
<path d="M43.6759 161.39C41.8768 161.39 40.4058 160.418 39.5346 159.074C37.8486 156.482 38.1315 152.054 41.9447 148.958C45.6334 145.634 51.2457 144.122 51.4833 144.05C52.1057 143.882 52.7167 144.278 52.8751 144.938C53.0335 145.586 52.6601 146.246 52.0378 146.414C51.9812 146.426 46.7084 147.854 43.3817 150.854C40.6095 153.098 40.3153 155.978 41.4242 157.694C42.1823 158.87 43.8004 159.602 46.0408 158.138C46.5839 157.778 47.2854 157.958 47.6249 158.534C47.953 159.11 47.7946 159.854 47.2515 160.214C45.9842 161.042 44.7735 161.402 43.6872 161.402L43.6759 161.39Z" fill="#00000C"/>
<path d="M181.778 185.343C181.778 185.343 199.294 190.551 207.995 186.975C216.697 183.387 224.866 158.943 224.866 158.943C226.269 150.639 222.626 144.867 214.479 141.339C200.357 163.491 201.116 145.515 187.809 148.419C175.419 153.423 168.302 178.935 181.789 185.343H181.778Z" fill="#FEF8E8"/>
<path d="M202.043 178.359L201.488 188.199C185.59 186.987 175.203 187.971 174.354 170.895C174.717 160.155 181.743 151.119 187.797 148.419C193.85 145.719 196.94 151.995 202.439 152.451C194.247 154.911 193.794 178.371 202.043 178.359Z" fill="#EBD9B4"/>
<path d="M174.411 173.858C204.713 180.866 209.624 183.806 220.124 155.918C221.855 156.614 223.53 156.998 225.08 157.178C225.612 157.418 217.171 182.978 207.994 186.962C192.312 190.31 174.751 186.77 174.411 173.846V173.858Z" fill="#EBD9B4"/>
<path d="M199.994 189.447C191.463 189.447 182.015 186.675 181.472 186.519C181.415 186.507 181.37 186.483 181.313 186.459C176.063 183.963 173.155 178.395 173.359 171.195C173.642 160.863 179.808 150.351 187.401 147.291C187.457 147.267 187.514 147.255 187.582 147.231C192.99 146.043 196.294 148.071 198.942 149.691C202.902 152.115 205.301 153.579 213.527 140.667C213.833 140.187 214.41 140.007 214.908 140.223C223.745 144.051 227.479 150.423 225.997 159.171C225.997 159.231 225.974 159.303 225.951 159.363C225.612 160.383 217.499 184.383 208.413 188.115C206.037 189.099 203.072 189.459 199.983 189.459L199.994 189.447ZM182.173 184.191C183.463 184.563 199.632 189.111 207.587 185.835C215.44 182.595 223.202 160.263 223.756 158.631C224.944 151.407 222.048 146.235 214.897 142.851C206.308 156.051 202.778 154.839 197.788 151.791C195.253 150.243 192.628 148.635 188.125 149.583C181.483 152.331 175.893 162.027 175.644 171.255C175.543 174.867 176.267 181.335 182.173 184.191Z" fill="#00000C"/>
<path d="M245.073 149.931C250.131 139.707 229.266 138.831 226.018 137.019C229.401 123.231 216.287 123.771 217.011 127.035C220.236 135.879 210.731 141.339 215.891 149.403L220.621 156.663C224.027 159.891 228.824 159.243 231.789 160.371C235.093 162.219 241.463 164.595 241.079 159.183C246.974 163.035 251.115 154.827 245.073 149.943V149.931Z" fill="#FFF7E8"/>
<path d="M215.031 147.519C214.272 145.443 213.548 141.987 215.461 138.975C220.247 133.239 214.476 125.787 218.991 125.187C222.985 127.935 219.081 139.191 217.667 141.303C216.671 143.199 214.883 145.047 215.879 148.419C215.087 147.579 215.031 147.519 215.031 147.519Z" fill="white"/>
<path d="M246.045 150.915L235.126 144.831C236.495 141.639 241.983 144.339 245.774 146.703C245.841 147.663 245.638 148.731 245.072 149.919C245.423 150.231 245.751 150.555 246.045 150.903V150.915Z" fill="#EBD9B4"/>
<path d="M232.003 150.734C237.446 146.966 245.558 155.69 247.222 158.702C245.864 160.334 243.205 160.394 241.564 159.494C240.116 153.518 232.003 150.734 232.003 150.734Z" fill="#EBD9B4"/>
<path d="M230.194 159.891C228.112 159.675 222.126 159.159 220.123 155.931C226.369 158.823 229.854 155.727 234.55 158.043C237.582 159.951 240.784 160.071 241.056 160.083C240.196 165.267 233.577 160.815 230.182 159.891H230.194Z" fill="#EBD9B4"/>
<path d="M238.26 163.719C235.635 163.719 232.523 162.147 231.313 161.487C230.441 161.175 229.333 161.007 228.156 160.827C225.576 160.443 222.374 159.963 219.839 157.563C219.364 157.119 219.33 156.339 219.749 155.847C220.179 155.343 220.903 155.307 221.367 155.751C223.381 157.659 225.961 158.043 228.473 158.415C229.808 158.607 231.064 158.799 232.161 159.219C232.207 159.243 232.263 159.267 232.308 159.291C235.397 161.019 238.396 161.751 239.437 161.019C239.584 160.923 240.014 160.623 239.912 159.267C239.573 154.335 231.924 152.007 231.844 151.983C231.233 151.803 230.871 151.131 231.041 150.483C231.211 149.835 231.844 149.451 232.456 149.631C232.829 149.739 241.734 152.427 242.198 159.075C242.356 161.379 241.462 162.507 240.682 163.047C239.991 163.527 239.143 163.719 238.238 163.719H238.26Z" fill="#00000C"/>
<path d="M245.073 151.155C244.892 151.155 244.711 151.107 244.541 151.011C243.975 150.699 243.76 149.967 244.054 149.367C244.779 147.903 244.903 146.667 244.416 145.599C242.844 142.107 235.444 140.535 230.544 139.491C228.134 138.975 226.403 138.615 225.475 138.099C225 137.835 224.762 137.259 224.898 136.719C226.572 129.891 223.891 127.575 222.148 126.795C220.213 125.943 218.482 126.447 218.143 126.795C219.715 131.343 218.267 135.087 217 138.399C215.631 141.939 214.454 144.999 216.83 148.707C217.181 149.259 217.045 150.015 216.525 150.399C216.004 150.783 215.291 150.627 214.929 150.075C211.863 145.287 213.402 141.315 214.873 137.475C216.117 134.247 217.294 131.199 215.936 127.467C215.914 127.419 215.902 127.359 215.891 127.299C215.676 126.303 216.072 125.331 216.966 124.695C218.595 123.531 221.945 123.459 224.502 125.379C226.165 126.627 228.654 129.675 227.376 136.239C228.258 136.503 229.605 136.791 231.008 137.091C236.677 138.291 244.439 139.947 246.498 144.543C247.302 146.331 247.166 148.323 246.091 150.495C245.887 150.915 245.491 151.143 245.073 151.143V151.155Z" fill="#00000C"/>
<path d="M244.031 161.391C242.945 161.391 241.734 161.043 240.467 160.203C239.924 159.855 239.766 159.099 240.094 158.523C240.422 157.947 241.135 157.779 241.678 158.127C243.918 159.591 245.525 158.859 246.294 157.683C247.403 155.979 247.098 153.087 244.382 150.891C241.022 147.855 235.737 146.427 235.681 146.415C235.07 146.247 234.696 145.587 234.844 144.939C235.002 144.291 235.624 143.895 236.235 144.051C236.473 144.111 242.085 145.623 245.819 148.995C249.587 152.055 249.87 156.471 248.184 159.075C247.313 160.419 245.842 161.391 244.043 161.391H244.031Z" fill="#00000C"/>
<path d="M176.797 233.39C176.797 233.39 185.883 240.782 200.389 230.762C201.442 230.03 205.198 231.986 204.78 233.246C200.91 245.15 186.415 249.794 176.48 249.47L176.786 233.39H176.797Z" fill="#EBD9B4"/>
<path d="M204.463 235.37C204.837 225.314 192.447 238.502 184.82 235.118C186.993 237.206 190.274 243.602 204.463 235.37Z" fill="#FFF7E8"/>
<path d="M178.065 250.814C177.386 250.814 176.786 250.766 176.277 250.67C175.723 250.562 175.327 250.046 175.338 249.446C175.338 249.446 175.644 233.51 175.644 233.366C175.644 232.946 175.859 232.562 176.198 232.346C176.526 232.13 176.945 232.106 177.296 232.286C184.436 235.982 190.444 233.378 195.264 231.278C198.749 229.754 201.759 228.446 204.271 230.018C204.418 230.114 204.554 230.246 204.644 230.402C206.228 232.982 206.149 235.79 204.429 238.514C199.926 245.666 185.001 250.814 178.054 250.814H178.065ZM177.658 248.378C183.542 248.642 198.444 243.65 202.54 237.158C203.683 235.346 203.796 233.654 202.89 231.986C201.363 231.266 199.043 232.274 196.147 233.534C191.507 235.55 185.273 238.262 177.918 235.238C177.884 237.098 177.816 240.842 177.669 248.378H177.658Z" fill="#00000C"/>
<path d="M176.527 256.826C176.765 258.206 175.803 260.582 177.41 261.278C181.133 263.33 185.082 270.218 181.246 273.878C175.668 274.478 166.151 273.854 160.347 274.07C157.507 274.07 154.169 272.594 153.671 269.63C151.374 255.806 149.88 256.058 148.24 250.346C145.32 250.826 142.39 250.862 139.47 250.418C131.765 260.066 139.131 272.906 127.375 274.07C123.075 274.058 113.242 274.07 109.033 274.07C103.703 274.826 103.545 267.818 106.159 264.578C107.72 262.838 109.813 261.722 111.624 260.294C111.567 250.37 106.351 241.394 102.21 232.802C95.794 220.382 89.4801 196.046 96.19 171.194C109.779 130.178 177.806 130.874 191.509 171.194C202.054 210.89 183.69 227.774 176.527 256.814V256.826Z" fill="#FEF8E8"/>
<path d="M129.275 247.922C123.425 270.998 130.01 273.782 104.121 270.998C104.121 270.998 104.483 274.586 116.013 274.442C139.741 277.058 131.56 262.79 138.994 250.91L129.263 247.934L129.275 247.922Z" fill="#EBD9B4"/>
<path d="M180.408 197.042C181.89 224.858 165.585 259.178 165.585 259.178C171.413 262.466 175.95 266.906 177.081 274.046C187.786 274.178 183.554 263.69 176.391 261.086C175.803 250.85 181.121 241.526 185.5 232.802C198.128 203.966 207.847 145.838 143.611 140.162L144.573 177.11C144.573 177.11 178.926 169.226 180.408 197.054V197.042Z" fill="#EBD9B4"/>
<path d="M193.806 206.978C180.669 203.486 186.429 187.574 192.946 180.254C195.255 187.574 195.9 197.45 193.806 206.978Z" fill="#76997C"/>
<path d="M161.194 183.074C158.026 203.618 128.561 198.638 131.56 178.07C134.728 157.538 164.192 162.506 161.194 183.074Z" fill="#EBD9B4"/>
<path d="M103.567 227.031C94.9678 208.431 97.7061 182.439 98.8602 174.291C99.0752 172.815 98.2605 171.375 96.914 170.895C84.7955 206.919 103.601 228.939 111.239 256.047C111.409 257.331 111.409 258.711 111.737 259.935C120.178 260.439 104.925 231.831 103.567 227.043V227.031Z" fill="white"/>
<path d="M100.92 212.595C99.2001 211.887 97.1634 211.467 95.0361 211.227C96.3939 223.143 105.661 238.611 109.587 247.731C121.14 238.455 113.457 217.455 100.92 212.595Z" fill="#9DB7A3"/>
<path d="M111.466 246.459C109.225 238.863 100.501 222.819 99.0189 211.959C97.7742 211.623 96.439 211.383 95.0586 211.227C96.7332 223.863 105.48 238.239 109.587 247.731C110.255 247.371 110.9 246.951 111.477 246.459H111.466Z" fill="#C5DACA"/>
<path d="M143.612 251.918C138.758 251.918 133.904 250.742 129.287 248.402C128.71 248.114 128.472 247.382 128.744 246.782C129.015 246.17 129.706 245.918 130.271 246.206C138.871 250.562 148.342 250.562 156.93 246.206C157.496 245.918 158.186 246.17 158.457 246.782C158.729 247.394 158.491 248.114 157.914 248.402C153.298 250.742 148.444 251.918 143.589 251.918H143.612Z" fill="#00000C"/>
<path d="M102.209 234.026C101.802 234.026 101.406 233.798 101.202 233.39C94.2321 219.902 88.4501 195.446 95.0921 170.858C95.2618 170.21 95.8954 169.838 96.5065 170.018C97.1175 170.198 97.4682 170.882 97.2985 171.518C90.8602 195.386 96.4612 219.122 103.216 232.202C103.522 232.79 103.318 233.534 102.764 233.858C102.594 233.954 102.402 234.002 102.209 234.002V234.026Z" fill="#00000C"/>
<path d="M111.386 261.674C111.386 261.674 111.341 261.674 111.318 261.674C110.685 261.638 110.209 261.05 110.243 260.378C110.741 251.678 106.227 243.002 102.232 235.346L101.214 233.378C94.2439 219.89 88.4618 195.434 95.1038 170.846C95.2735 170.198 95.9072 169.826 96.5182 170.006C97.1292 170.186 97.48 170.87 97.3102 171.506C90.8719 195.374 96.4729 219.11 103.228 232.19L104.246 234.146C108.388 242.09 113.084 251.09 112.54 260.498C112.506 261.146 111.997 261.638 111.398 261.638L111.386 261.674Z" fill="#00000C"/>
<path d="M175.667 261.219C175.667 261.219 175.633 261.219 175.61 261.219C174.976 261.195 174.49 260.619 174.512 259.947C174.909 250.635 179.468 241.875 183.485 234.147L184.481 232.215C191.236 219.135 196.837 195.399 190.399 171.531C190.229 170.883 190.58 170.211 191.191 170.031C191.802 169.839 192.436 170.223 192.605 170.871C199.236 195.447 193.454 219.915 186.495 233.403L185.488 235.335C181.403 243.195 177.172 251.319 176.798 260.067C176.775 260.715 176.266 261.231 175.655 261.231L175.667 261.219Z" fill="#00000C"/>
<path d="M191.192 131.931C191.192 131.931 191.192 137.379 191.192 142.863C191.136 164.223 156.738 172.635 144.755 172.083H145.377H142.356H142.978C131.03 172.647 96.5636 164.211 96.541 142.863C96.541 137.379 96.541 131.931 96.541 131.931H191.203H191.192Z" fill="#DC542C"/>
<path d="M96.5166 134.763C97.0824 156.975 131.854 164.739 144.742 163.983C157.483 164.715 193.951 155.019 191.179 131.931H96.5166V134.763Z" fill="#B93425"/>
<path d="M141.834 173.319C132.771 173.319 112.833 169.095 102.163 158.283C97.6597 153.723 95.374 148.539 95.374 142.851V131.919C95.374 131.247 95.8832 130.707 96.5282 130.707H191.191C191.824 130.707 192.333 131.247 192.333 131.919V142.851C192.322 148.539 190.036 153.723 185.544 158.283C174.433 169.539 153.16 173.667 144.731 173.295H142.988C142.626 173.307 142.241 173.319 141.834 173.319ZM97.671 133.143V142.851C97.671 147.843 99.719 152.439 103.747 156.519C113.614 166.515 133.099 170.967 142.106 170.883C142.185 170.871 142.253 170.859 142.332 170.859H145.353C145.432 170.859 145.5 170.859 145.579 170.883C154.609 170.979 174.105 166.491 183.938 156.531C187.966 152.451 190.014 147.855 190.025 142.863V133.155H97.6597L97.671 133.143Z" fill="#00000C"/>
<path d="M188.985 137.75L189.166 138.014C182.083 161.006 106.193 161.066 99.0414 138.014C69.8709 114.794 83.7659 89.6783 97.412 65.8463C86.6852 54.7343 98.3172 0.0502777 114.113 13.2623C120.936 22.7663 121.83 39.7343 121.841 40.0103C131.041 32.8943 156.703 32.9303 165.835 40.0103C165.846 39.7343 166.751 22.7663 173.574 13.2623C189.359 0.0502777 201.013 54.7223 190.275 65.8463C203.899 87.6983 217.726 114.554 188.963 137.762L188.985 137.75Z" fill="#FFF7E8"/>
<path d="M152.302 154.646C165.891 153.782 185.862 150.182 189.178 138.014L188.997 137.75C217.76 114.542 201.251 85.5263 190.309 65.8343C196.601 60.6143 196.487 24.7103 182.739 13.0703C174.355 28.9943 196.555 70.1543 167.928 77.0063C202.948 78.1103 195.707 127.982 165.054 124.142C165.054 124.142 165.688 125.366 171.775 130.418C182.875 140.39 167.826 153.506 152.313 154.634L152.302 154.646Z" fill="#EBD9B4"/>
<path d="M147.085 66.5543C143.691 52.9103 153.614 38.5943 167.622 44.4863C183.022 47.8823 199.644 87.5783 173.959 84.0503C161.365 83.7743 148.828 77.5223 147.085 66.5543Z" fill="#9DB7A3"/>
<path d="M185.229 81.5061C189.02 74.9421 186.338 65.8221 183.373 59.3901C181.054 74.0901 167.917 77.0061 167.917 77.0061C167.917 77.0061 177.026 77.5101 183.905 82.7301C184.403 82.3941 184.856 81.9981 185.229 81.5061Z" fill="#76997C"/>
<path d="M121.015 41.0547C123.289 45.2427 130.938 36.1587 141.359 37.2747C156.759 35.9307 165.121 46.1187 167.09 41.1387C167.09 41.1387 159.373 34.4307 142.129 34.4307C126.31 34.4307 121.015 41.0667 121.015 41.0667V41.0547Z" fill="white"/>
<path d="M114.125 13.2502C98.3288 0.0381947 86.6855 54.7222 97.4236 65.8342C97.4236 65.8342 101.961 52.3342 121.864 39.9982C121.853 39.7222 120.948 22.7542 114.125 13.2502Z" fill="#9DB7A3"/>
<path d="M114.124 13.2501C112.461 10.7661 109.213 10.2741 106.486 12.0021C112.721 9.31413 116.466 22.9102 119.702 41.3902C120.404 40.9222 121.128 40.4661 121.864 39.9981C121.852 39.7221 120.947 22.7541 114.124 13.2501Z" fill="#75997D"/>
<path d="M102.401 52.4906C96.9018 43.4066 104.834 19.7666 106.95 24.6386C109.077 29.4986 102.401 52.4906 102.401 52.4906Z" fill="#75997D"/>
<path d="M152.707 66.3387C152.786 86.1627 181.368 86.1627 181.447 66.3387C181.368 46.5147 152.786 46.5147 152.707 66.3387Z" fill="white"/>
<path d="M167.078 82.4186C156.464 82.4186 151.588 74.0906 151.554 66.3386C151.588 58.5866 156.453 50.2466 167.067 50.2466C177.68 50.2466 182.557 58.5746 182.591 66.3266C182.557 74.0786 177.692 82.4186 167.078 82.4186ZM153.851 66.3386C153.896 75.7106 160.73 79.9826 167.078 79.9826C173.415 79.9826 180.26 75.7106 180.294 66.3266C180.249 56.9546 173.415 52.6826 167.067 52.6826C160.73 52.6826 153.885 56.9546 153.851 66.3266V66.3386Z" fill="#00000C"/>
<path d="M177.693 54.8425C174.445 54.8425 167.973 53.7505 159.724 46.7425C159.034 46.1545 158.921 45.0865 159.475 44.3425C160.03 43.6105 161.037 43.4905 161.738 44.0785C172.261 53.0065 179.13 51.3265 179.197 51.3025C180.057 51.0745 180.929 51.6265 181.144 52.5385C181.359 53.4505 180.838 54.3745 179.978 54.6025C179.876 54.6265 179.084 54.8305 177.704 54.8305L177.693 54.8425Z" fill="#00000C"/>
<path d="M158.445 68.2229C158.298 78.7349 173.868 78.7349 173.721 68.2229C173.868 57.7109 158.298 57.7109 158.445 68.2229Z" fill="#00000C"/>
<path d="M161.76 66.6625C161.726 69.5185 165.958 69.5185 165.913 66.6625C165.947 63.8065 161.715 63.8065 161.76 66.6625Z" fill="white"/>
<path d="M98.7915 32.6062C102.401 18.9982 107.482 12.7462 111.702 11.3062C107.153 9.50622 99.8438 14.6542 95.0802 32.6062C89.3321 54.2662 97.4111 65.8462 97.4111 65.8462C97.4111 65.8462 97.8976 64.4062 99.2441 62.0422C97.2753 57.0022 94.9557 47.0542 98.7915 32.6062Z" fill="#C5DACA"/>
<path d="M135.012 66.3382C134.933 86.1622 106.351 86.1622 106.271 66.3382C106.351 46.5142 134.933 46.5142 135.012 66.3382Z" fill="white"/>
<path d="M120.631 82.4186C110.018 82.4186 105.141 74.0786 105.118 66.3386C105.152 58.5866 110.018 50.2466 120.643 50.2466C131.256 50.2466 136.133 58.5866 136.156 66.3266C136.122 74.0786 131.256 82.4186 120.631 82.4186ZM120.643 52.6826C114.306 52.6826 107.46 56.9546 107.415 66.3386C107.449 75.7106 114.295 79.9826 120.631 79.9826C126.968 79.9826 133.813 75.7106 133.859 66.3386C133.813 56.9666 126.979 52.6946 120.643 52.6946V52.6826Z" fill="#00000C"/>
<path d="M102.4 54.9983C102.208 54.9983 102.016 54.9503 101.835 54.8423C101.28 54.5063 101.088 53.7623 101.405 53.1863C101.461 53.0783 107.198 42.1103 105.489 23.2583C105.433 22.5863 105.885 21.9983 106.519 21.9263C107.153 21.8543 107.707 22.3583 107.775 23.0183C109.563 42.6863 103.656 53.9183 103.407 54.3863C103.192 54.7823 102.808 54.9983 102.412 54.9983H102.4Z" fill="#00000C"/>
<path d="M110.017 54.8425C108.636 54.8425 107.844 54.6505 107.742 54.6145C106.882 54.3865 106.362 53.4625 106.577 52.5505C106.792 51.6385 107.652 51.0865 108.512 51.3025C108.647 51.3385 115.64 52.8505 125.982 44.0785C126.672 43.4905 127.691 43.6105 128.245 44.3425C128.8 45.0745 128.687 46.1545 127.996 46.7425C119.748 53.7385 113.275 54.8425 110.028 54.8425H110.017Z" fill="#00000C"/>
<path d="M185.307 54.9984C184.911 54.9984 184.527 54.7824 184.312 54.3864C184.063 53.9184 178.156 42.6985 179.944 23.0185C180 22.3465 180.555 21.8664 181.2 21.9264C181.834 21.9864 182.297 22.5864 182.23 23.2584C180.521 42.0984 186.246 53.0784 186.314 53.1864C186.631 53.7744 186.439 54.5184 185.884 54.8424C185.703 54.9504 185.511 54.9984 185.319 54.9984H185.307Z" fill="#00000C"/>
<path d="M183.994 87.9505C206.364 125.258 162.066 144.626 143.746 118.238C116.432 151.79 73.4908 110.834 112.483 79.1425C134.887 71.7865 166.445 68.4265 183.994 87.9505Z" fill="#FFF7E8"/>
<path d="M189.98 107.703C184.198 127.047 165.03 124.155 165.03 124.155C165.03 124.155 165.664 125.367 171.627 130.335C183.655 127.803 190.489 117.279 189.969 107.715L189.98 107.703Z" fill="#EBD9B4"/>
<path d="M104.053 83.0064C106.565 87.8424 124.725 76.4424 143.735 77.9544C162.303 76.3944 181.709 88.2984 183.972 82.6224L183.202 82.9584L183.802 82.4904C158.399 76.1304 127.554 70.3824 104.053 83.0064Z" fill="white"/>
<path d="M143.86 80.4026C176.946 80.0306 161.953 112.083 143.69 116.763C125.496 111.771 110.707 80.0906 143.69 80.4026" fill="#EBD9B4"/>
<path d="M179.357 135.819C174.174 120.519 155.561 127.851 147.142 109.455H140.365C131.923 127.875 113.367 120.483 108.15 135.819C113.593 127.083 138.882 127.611 143.759 118.239C148.591 127.575 173.971 127.107 179.368 135.819" fill="#EBD9B4"/>
<path d="M143.86 80.4024C176.402 80.0064 162.688 106.382 143.69 110.786C124.726 106.106 111.261 80.0544 143.69 80.4024" fill="#00000C"/>
<path d="M154.382 86.6543C154.869 90.9743 131.865 91.4303 132.193 87.0983C131.707 82.7783 154.71 82.3223 154.382 86.6543Z" fill="#7E8283"/>
<path d="M104.597 84.7467C104.201 84.7467 103.805 84.5186 103.59 84.1226C103.285 83.5346 103.477 82.7906 104.031 82.4666C123.765 70.7066 149.745 69.0747 175.283 77.9907C175.883 78.2067 176.211 78.8907 176.018 79.5267C175.815 80.1627 175.17 80.5106 174.57 80.3066C149.643 71.5946 124.342 73.1547 105.163 84.5907C104.982 84.6987 104.79 84.7467 104.597 84.7467Z" fill="#00000C"/>
<path d="M183.215 84.7461C183.022 84.7461 182.819 84.6981 182.649 84.5781C168.199 75.7581 148.93 72.8061 128.415 76.2501C127.793 76.3581 127.205 75.9021 127.103 75.2421C127.001 74.5821 127.431 73.9581 128.053 73.8501C149.088 70.3221 168.878 73.3821 183.792 82.4781C184.346 82.8141 184.527 83.5581 184.21 84.1461C183.995 84.5421 183.611 84.7581 183.215 84.7581V84.7461Z" fill="#00000C"/>
<path d="M143.747 121.25C143.442 121.25 143.148 121.13 142.933 120.902C142.899 120.866 142.865 120.83 142.842 120.794C142.571 120.434 142.514 119.93 142.706 119.51C142.899 119.09 143.295 118.814 143.736 118.814H143.747C144.189 118.814 144.596 119.078 144.777 119.51C144.958 119.942 144.913 120.434 144.641 120.794C144.438 121.07 144.132 121.238 143.804 121.25C143.781 121.25 143.759 121.25 143.736 121.25H143.747Z" fill="#00000C"/>
<path d="M179.356 137.042C178.994 137.042 178.632 136.862 178.417 136.514C176.255 133.214 168.889 131.33 161.772 129.506C154.214 127.574 147.029 125.738 143.747 122.042C140.466 125.75 133.292 127.574 125.745 129.506C118.628 131.318 111.273 133.202 109.078 136.514C108.715 137.066 108.003 137.198 107.482 136.814C106.962 136.43 106.837 135.674 107.199 135.122C109.881 131.054 117.326 129.146 125.213 127.142C132.805 125.198 140.658 123.194 142.763 119.426C142.966 119.054 143.34 118.826 143.747 118.826C144.154 118.826 144.528 119.054 144.732 119.426C146.825 123.194 154.689 125.198 162.304 127.154C170.191 129.17 177.636 131.078 180.295 135.134C180.657 135.686 180.533 136.442 180.001 136.826C179.797 136.97 179.571 137.042 179.345 137.042H179.356Z" fill="#00000C"/>
<path d="M136.008 133.802C135.692 133.802 135.363 133.658 135.137 133.382C134.718 132.878 134.775 132.11 135.25 131.666C140.829 126.542 146.701 126.542 152.223 131.666C152.698 132.11 152.743 132.878 152.325 133.382C151.906 133.886 151.182 133.934 150.707 133.49C146.045 129.158 141.474 129.158 136.755 133.49C136.54 133.694 136.269 133.79 136.008 133.79V133.802Z" fill="#00000C"/>
<path d="M104.563 143.186C104.371 143.186 104.178 143.138 104.008 143.03C92.4896 136.214 85.3611 127.406 82.8265 116.858C79.5564 103.214 83.8562 86.5582 95.9747 65.9662C88.3822 56.2222 93.0328 24.8783 101.949 14.1263C105.932 9.32625 110.503 8.66626 114.826 12.2903C114.905 12.3503 114.973 12.4222 115.029 12.5062C122.067 22.3102 122.984 39.7583 122.995 39.9383C123.029 40.6103 122.543 41.1862 121.909 41.2222C121.275 41.2582 120.732 40.7422 120.698 40.0702C120.698 39.9022 119.816 23.3542 113.287 14.1142C109.972 11.4022 106.815 11.9423 103.669 15.7463C94.5263 26.7863 91.1092 57.6022 98.2151 64.9702C98.5998 65.3662 98.6677 66.0022 98.3848 66.4942C86.2663 86.8582 81.8987 103.13 85.0556 116.27C87.4205 126.146 94.1756 134.438 105.129 140.918C105.683 141.242 105.875 141.986 105.57 142.574C105.355 142.97 104.97 143.198 104.563 143.198V143.186Z" fill="#00000C"/>
<path d="M183.147 143.187C182.74 143.187 182.355 142.959 182.14 142.563C181.834 141.975 182.027 141.231 182.581 140.907C193.523 134.427 200.278 126.135 202.654 116.259C205.811 103.131 201.443 86.8465 189.325 66.4825C189.042 66.0025 189.11 65.3665 189.495 64.9585C196.601 57.5905 193.183 26.7625 184.041 15.7345C180.884 11.9305 177.738 11.4025 174.423 14.1025C167.928 23.2945 167.023 39.8905 167.012 40.0585C166.978 40.7305 166.434 41.2586 165.801 41.2106C165.167 41.1746 164.681 40.5985 164.715 39.9265C164.749 39.2065 165.676 22.2505 172.68 12.4945C172.737 12.4105 172.805 12.3385 172.884 12.2785C177.206 8.65454 181.778 9.31454 185.761 14.1145C194.677 24.8665 199.328 56.2225 191.735 65.9545C203.854 86.5465 208.153 103.203 204.883 116.847C202.349 127.395 195.231 136.203 183.701 143.019C183.52 143.127 183.328 143.175 183.147 143.175V143.187Z" fill="#00000C"/>
<path d="M167.08 42.0145C166.831 42.0145 166.582 41.9305 166.367 41.7505C157.111 33.9505 130.6 33.9505 121.355 41.7505C120.857 42.1705 120.133 42.0865 119.737 41.5585C119.341 41.0305 119.42 40.2625 119.918 39.8425C129.977 31.3585 157.711 31.3585 167.781 39.8425C168.279 40.2625 168.358 41.0305 167.962 41.5585C167.736 41.8585 167.396 42.0145 167.057 42.0145H167.08Z" fill="#00000C"/>
<path d="M143.85 156.495C123.652 156.495 101.588 150.903 97.7069 138.387C97.5032 137.751 97.8313 137.055 98.4423 136.851C99.042 136.635 99.6983 136.983 99.8907 137.631C103.387 148.923 125.112 154.059 143.85 154.059H143.952C162.656 154.035 184.358 148.887 187.821 137.631C188.013 136.995 188.658 136.635 189.269 136.851C189.869 137.055 190.197 137.751 190.004 138.387C186.157 150.867 164.104 156.471 143.952 156.495H143.839H143.85Z" fill="#00000C"/>
<path d="M156.792 181.311C154.02 199.239 128.301 194.895 130.926 176.943C133.698 159.015 159.418 163.359 156.792 181.311Z" fill="#9DB7A3"/>
<path d="M145.909 165.398C145.162 165.278 144.438 165.254 143.703 165.266C162.395 170.486 149.575 199.742 133.802 187.934C150.503 206.318 169.331 171.434 145.909 165.398Z" fill="#75997D"/>
<path d="M141.134 168.122C142.447 170.198 136.02 174.374 134.877 172.178C133.565 170.102 139.991 165.926 141.134 168.122Z" fill="#C5DACA"/>
<path d="M146.949 183.794C146.62 183.794 146.315 183.59 146.179 183.254C145.636 181.91 144.346 181.37 143.316 181.31C142.298 181.262 140.952 181.658 140.284 182.942C140.058 183.374 139.548 183.53 139.141 183.302C138.734 183.062 138.587 182.522 138.802 182.09C139.662 180.41 141.438 179.426 143.384 179.534C145.353 179.63 147.005 180.794 147.718 182.558C147.899 183.014 147.695 183.53 147.277 183.722C147.175 183.77 147.062 183.794 146.949 183.794Z" fill="white"/>
<path d="M149.325 181.502C149.031 181.502 148.748 181.346 148.601 181.058C147.616 179.258 145.693 178.106 143.464 177.986C141.235 177.878 139.221 178.814 138.066 180.506C137.795 180.902 137.274 180.998 136.89 180.71C136.516 180.422 136.426 179.87 136.697 179.462C138.18 177.278 140.737 176.054 143.543 176.198C146.338 176.342 148.77 177.818 150.049 180.158C150.287 180.59 150.14 181.13 149.744 181.382C149.608 181.466 149.461 181.502 149.325 181.502Z" fill="white"/>
<path d="M151.689 179.247C151.418 179.247 151.146 179.103 150.988 178.839C149.494 176.391 146.745 174.843 143.633 174.675C140.521 174.507 137.636 175.779 135.927 178.047C135.633 178.431 135.113 178.491 134.751 178.191C134.389 177.879 134.332 177.327 134.615 176.943C136.663 174.219 140.057 172.707 143.724 172.899C147.378 173.091 150.626 174.951 152.414 177.867C152.663 178.275 152.561 178.827 152.165 179.103C152.029 179.199 151.87 179.247 151.712 179.247H151.689Z" fill="white"/>
<path d="M145.184 184.982C145.093 187.79 140.941 187.574 141.111 184.766C141.201 181.958 145.354 182.174 145.184 184.982Z" fill="white"/>
<path d="M144.098 193.982C143.272 193.982 142.457 193.91 141.653 193.778C134.695 192.602 128.381 186.374 129.784 176.75C131.266 167.126 139.085 163.286 146.055 164.462C153.014 165.638 159.328 171.866 157.925 181.49C156.612 189.986 150.343 193.97 144.109 193.97L144.098 193.982ZM143.566 166.694C138.474 166.694 133.19 169.754 132.058 177.134C130.836 185.546 136.358 190.418 142.016 191.366C147.673 192.326 154.36 189.518 155.662 181.106C156.884 172.682 151.362 167.822 145.704 166.862C145.003 166.742 144.29 166.682 143.577 166.682L143.566 166.694Z" fill="#00000C"/>
<path d="M129.275 68.2224C129.422 78.7344 113.852 78.7344 113.999 68.2224C113.852 57.7104 129.422 57.7104 129.275 68.2224Z" fill="#00000C"/>
<path d="M125.948 66.6625C125.982 69.5185 121.75 69.5185 121.795 66.6625C121.761 63.8065 125.993 63.8065 125.948 66.6625Z" fill="white"/>
<path d="M180.092 144.734C179.639 144.734 179.209 144.446 179.028 143.978C178.791 143.354 179.062 142.646 179.65 142.382C185.206 139.946 188.273 136.37 188.307 132.302C188.329 128.522 185.534 124.802 181.178 122.81C180.59 122.546 180.329 121.826 180.578 121.214C180.827 120.59 181.506 120.314 182.083 120.578C187.367 122.978 190.638 127.478 190.604 132.314C190.57 137.354 186.903 141.842 180.533 144.626C180.386 144.686 180.239 144.722 180.092 144.722V144.734Z" fill="#00000C"/>
<path d="M107.583 144.734C107.436 144.734 107.289 144.71 107.142 144.638C100.772 141.854 97.1055 137.366 97.0716 132.326C97.0376 127.49 100.308 122.99 105.592 120.59C106.169 120.326 106.848 120.614 107.097 121.226C107.346 121.85 107.074 122.558 106.497 122.822C102.141 124.802 99.3459 128.522 99.3685 132.314C99.3912 136.382 102.469 139.958 108.025 142.394C108.613 142.646 108.885 143.366 108.647 143.99C108.466 144.458 108.036 144.746 107.583 144.746V144.734Z" fill="#00000C"/>
<path d="M165.8 275.45C154.847 275.45 154.01 274.01 152.335 266.33C151.566 262.826 150.514 258.038 147.651 251.246C147.391 250.634 147.651 249.914 148.228 249.638C148.816 249.362 149.484 249.638 149.744 250.25C152.697 257.258 153.772 262.19 154.564 265.778C155.538 270.218 155.911 271.526 157.948 272.282C160.505 273.218 165.744 273.086 175.282 272.846C175.316 272.846 175.362 272.846 175.396 272.846C179.062 272.846 181.438 271.922 181.97 270.314C182.513 268.67 181.245 266.186 178.801 264.146C174.671 260.69 167.848 259.01 161.874 263.054C161.342 263.414 160.629 263.246 160.29 262.682C159.95 262.118 160.097 261.362 160.641 261.002C167.554 256.31 175.463 258.23 180.227 262.238C183.531 265.01 185.025 268.418 184.131 271.13C183.497 273.038 181.483 275.294 175.43 275.294C175.384 275.294 175.339 275.294 175.294 275.294C171.481 275.39 168.358 275.474 165.789 275.474L165.8 275.45Z" fill="#00000C"/>
<path d="M169.873 274.778C169.692 274.778 169.5 274.73 169.33 274.634C168.776 274.322 168.561 273.578 168.855 272.99C169.183 272.342 169.127 271.31 168.697 270.218C168.131 268.778 167.022 267.542 166.004 267.218C165.393 267.026 165.053 266.342 165.234 265.706C165.415 265.058 166.049 264.698 166.66 264.89C168.346 265.418 169.975 267.146 170.813 269.282C171.514 271.058 171.537 272.834 170.88 274.13C170.677 274.538 170.281 274.778 169.862 274.778H169.873Z" fill="#00000C"/>
<path d="M177.352 274.778C177.25 274.778 177.16 274.766 177.058 274.742C176.447 274.574 176.085 273.902 176.243 273.254C176.843 270.878 175.474 268.118 173.799 266.81C173.29 266.414 173.177 265.646 173.55 265.106C173.924 264.566 174.648 264.446 175.157 264.854C177.465 266.654 179.344 270.338 178.461 273.878C178.325 274.418 177.861 274.778 177.352 274.778Z" fill="#00000C"/>
<path d="M121.401 275.45C118.832 275.45 115.709 275.366 111.874 275.27C105.741 275.306 103.704 273.026 103.07 271.106C102.176 268.394 103.67 264.998 106.974 262.214C111.738 258.218 119.647 256.286 126.561 260.978C127.092 261.338 127.251 262.094 126.911 262.658C126.572 263.222 125.859 263.39 125.327 263.03C119.364 258.974 112.53 260.654 108.4 264.122C105.967 266.162 104.688 268.646 105.232 270.29C105.763 271.91 108.151 272.822 111.772 272.822H111.885C121.446 273.062 126.696 273.194 129.242 272.258C131.29 271.514 131.652 270.194 132.625 265.754C133.418 262.154 134.493 257.234 137.446 250.226C137.706 249.614 138.385 249.338 138.962 249.614C139.539 249.89 139.799 250.61 139.539 251.222C136.676 258.014 135.624 262.814 134.855 266.306C133.169 273.986 132.331 275.426 121.367 275.426L121.401 275.45Z" fill="#00000C"/>
<path d="M117.351 274.778C116.943 274.778 116.547 274.55 116.332 274.13C115.676 272.822 115.699 271.058 116.4 269.282C117.237 267.146 118.867 265.418 120.553 264.89C121.164 264.698 121.797 265.07 121.978 265.706C122.16 266.342 121.809 267.026 121.209 267.218C120.191 267.542 119.093 268.766 118.516 270.218C118.086 271.298 118.03 272.342 118.358 272.99C118.652 273.578 118.448 274.322 117.882 274.634C117.713 274.73 117.52 274.778 117.339 274.778H117.351Z" fill="#00000C"/>
<path d="M109.86 274.778C109.351 274.778 108.887 274.418 108.751 273.878C107.869 270.338 109.736 266.654 112.055 264.854C112.565 264.458 113.289 264.566 113.662 265.106C114.036 265.646 113.934 266.414 113.425 266.81C111.761 268.118 110.392 270.878 110.98 273.254C111.139 273.902 110.777 274.574 110.166 274.742C110.064 274.766 109.962 274.778 109.872 274.778H109.86Z" fill="#00000C"/>
</svg>