<svg width="139" height="30" viewBox="0 0 139 30" fill="none" xmlns="http://www.w3.org/2000/svg">
<g clip-path="url(#clip0_242_1060)">
<path d="M39.4281 18.8C38.072 18.8 36.9871 18.4 36.2074 17.6333C35.4276 16.8667 35.0547 15.7667 35.0547 14.4C35.0547 13 35.4276 11.8667 36.1396 11.0667C36.8515 10.2667 37.8347 9.86667 39.0891 9.86667C40.2418 9.86667 41.1571 10.2 41.8352 10.9C42.5132 11.6 42.8522 12.5333 42.8522 13.7667V14.7667H36.9871C37.021 15.6 37.2583 16.2333 37.6652 16.7C38.072 17.1667 38.7162 17.3667 39.4959 17.3667C40.0044 17.3667 40.513 17.3333 40.9537 17.2333C41.3944 17.1333 41.8691 16.9667 42.4115 16.7667V18.2667C41.9708 18.4667 41.4962 18.6333 41.0215 18.7333C40.5469 18.8333 40.0044 18.8 39.4281 18.8ZM39.0552 11.2667C38.4449 11.2667 37.9703 11.4667 37.6313 11.8333C37.2923 12.2 37.0549 12.7333 36.9871 13.4667H40.9876C40.9876 12.7667 40.8181 12.2 40.4791 11.8333C40.1401 11.4667 39.6654 11.2667 39.0552 11.2667Z" fill="black"/>
<path d="M46.8187 18.6667H44.9541V6.5H46.8187V18.6667Z" fill="black"/>
<path d="M54.9889 18.6667L54.616 17.4667H54.5481C54.1413 18 53.7006 18.3667 53.2599 18.5333C52.8191 18.7 52.2767 18.8333 51.5986 18.8333C50.7511 18.8333 50.073 18.6 49.5645 18.1333C49.056 17.6667 48.8525 17.0333 48.8525 16.2C48.8525 15.3 49.1916 14.6333 49.8696 14.2C50.5477 13.7667 51.5647 13.5 52.9547 13.4667L54.4803 13.4333V12.9667C54.4803 12.4 54.3447 12 54.0735 11.7333C53.8023 11.4667 53.3955 11.3333 52.853 11.3333C52.4123 11.3333 51.9716 11.4 51.5647 11.5333C51.1579 11.6667 50.7511 11.8333 50.3781 12L49.7679 10.7C50.2425 10.4667 50.7511 10.2667 51.3274 10.1333C51.9038 10 52.4123 9.93335 52.9208 9.93335C54.0396 9.93335 54.8872 10.1667 55.4635 10.6667C56.0399 11.1667 56.3111 11.9 56.3111 12.9333V18.6667H54.9889ZM52.2089 17.4C52.8869 17.4 53.4294 17.2 53.8362 16.8333C54.243 16.4667 54.4464 15.9333 54.4464 15.2667V14.5333L53.3277 14.5667C52.4462 14.6 51.8021 14.7333 51.3952 15C50.9884 15.2667 50.785 15.6667 50.785 16.2C50.785 16.6 50.8867 16.9 51.124 17.1C51.3613 17.3 51.7342 17.4 52.2089 17.4Z" fill="black"/>
<path d="M64.8208 16.2C64.8208 17.0333 64.5157 17.7 63.8715 18.1333C63.2274 18.5667 62.3459 18.8 61.1932 18.8C60.0066 18.8 59.0913 18.6333 58.3793 18.2667V16.6667C59.3964 17.1333 60.3796 17.3667 61.261 17.3667C62.4137 17.3667 62.9901 17.0333 62.9901 16.3333C62.9901 16.1 62.9223 15.9333 62.7866 15.8C62.651 15.6667 62.4476 15.5 62.1425 15.3333C61.8374 15.1667 61.4306 15 60.922 14.8C59.9049 14.4 59.2269 14.0333 58.854 13.6333C58.481 13.2333 58.3115 12.7333 58.3115 12.1333C58.3115 11.4 58.6166 10.8333 59.2269 10.4C59.8371 9.96665 60.6508 9.79999 61.7018 9.79999C62.7188 9.79999 63.702 9.99999 64.6174 10.4333L64.0071 11.8C63.0579 11.4 62.2781 11.2333 61.6001 11.2333C60.6169 11.2333 60.1084 11.5 60.1084 12.0667C60.1084 12.3333 60.244 12.5667 60.4813 12.7667C60.7186 12.9667 61.2949 13.2 62.1764 13.5333C62.8884 13.8 63.4308 14.0667 63.7698 14.3C64.1088 14.5333 64.3462 14.8 64.5157 15.1C64.753 15.4333 64.8208 15.7667 64.8208 16.2Z" fill="black"/>
<path d="M70.1103 17.3333C70.551 17.3333 71.0257 17.2667 71.4664 17.1333V18.5C71.263 18.6 70.9918 18.6667 70.6527 18.7333C70.3137 18.8 69.9747 18.8333 69.6357 18.8333C67.8727 18.8333 66.9913 17.9 66.9913 16.1V11.4333H65.8047V10.6333L67.093 9.96666L67.7371 8.13333H68.8898V10.0667H71.3986V11.4667H68.8898V16.1C68.8898 16.5333 68.9915 16.8667 69.2288 17.0667C69.4662 17.2667 69.7713 17.3333 70.1103 17.3333Z" fill="black"/>
<path d="M73.127 7.73334C73.127 7.40001 73.2287 7.16668 73.3982 6.96668C73.5677 6.76668 73.8389 6.70001 74.1779 6.70001C74.5169 6.70001 74.7543 6.80001 74.9577 6.96668C75.1611 7.13335 75.2289 7.40001 75.2289 7.73334C75.2289 8.03334 75.1272 8.30001 74.9577 8.46668C74.7882 8.63335 74.5169 8.73334 74.1779 8.73334C73.8389 8.73334 73.5677 8.63335 73.3982 8.46668C73.2287 8.30001 73.127 8.03334 73.127 7.73334ZM75.1272 18.6667H73.2626V10.0333H75.1272V18.6667Z" fill="black"/>
<path d="M81.332 18.8C80.0098 18.8 78.9927 18.4333 78.3146 17.6667C77.6366 16.9 77.2637 15.8 77.2637 14.3667C77.2637 12.9 77.6366 11.8 78.3486 11C79.0605 10.2 80.1115 9.83334 81.4676 9.83334C82.3829 9.83334 83.2305 10 83.9764 10.3333L83.4 11.8C82.6203 11.5 81.9761 11.3333 81.4337 11.3333C79.9081 11.3333 79.1622 12.3333 79.1622 14.3C79.1622 15.2667 79.3656 16 79.7386 16.5C80.1115 17 80.6878 17.2333 81.3998 17.2333C82.2473 17.2333 83.0271 17.0333 83.7729 16.6333V18.2333C83.4339 18.4333 83.0949 18.5667 82.6881 18.6333C82.2812 18.7 81.8744 18.8 81.332 18.8Z" fill="black"/>
<path d="M91.7397 16.2C91.7397 17.0333 91.4346 17.7 90.7905 18.1333C90.1463 18.5667 89.2649 18.8 88.1122 18.8C86.9256 18.8 86.0102 18.6333 85.2983 18.2667V16.6667C86.3154 17.1333 87.2985 17.3667 88.18 17.3667C89.3327 17.3667 89.909 17.0333 89.909 16.3333C89.909 16.1 89.8412 15.9333 89.7056 15.8C89.57 15.6667 89.3666 15.5 89.0615 15.3333C88.7563 15.1667 88.3495 15 87.841 14.8C86.8239 14.4 86.1458 14.0333 85.7729 13.6333C85.4 13.2333 85.2305 12.7333 85.2305 12.1333C85.2305 11.4 85.5356 10.8333 86.1458 10.4C86.7561 9.96665 87.5697 9.79999 88.6207 9.79999C89.6378 9.79999 90.621 9.99999 91.5363 10.4333L90.9261 11.8C89.9768 11.4 89.1971 11.2333 88.519 11.2333C87.5358 11.2333 87.0273 11.5 87.0273 12.0667C87.0273 12.3333 87.1629 12.5667 87.4002 12.7667C87.6375 12.9667 88.2139 13.2 89.0953 13.5333C89.8073 13.8 90.3497 14.0667 90.6888 14.3C91.0278 14.5333 91.2651 14.8 91.4346 15.1C91.6719 15.4333 91.7397 15.7667 91.7397 16.2Z" fill="black"/>
<path d="M97.6049 18.8C96.2488 18.8 95.1639 18.4 94.3841 17.6333C93.6044 16.8667 93.2314 15.7667 93.2314 14.4C93.2314 13 93.6044 11.8667 94.3163 11.0667C95.0283 10.2667 96.0114 9.86667 97.2658 9.86667C98.4185 9.86667 99.3339 10.2 100.012 10.9C100.69 11.6 101.029 12.5333 101.029 13.7667V14.7667H95.1639C95.1978 15.6 95.4351 16.2333 95.8419 16.7C96.2488 17.1667 96.8929 17.3667 97.6727 17.3667C98.1812 17.3667 98.6897 17.3333 99.1305 17.2333C99.5712 17.1333 100.046 16.9667 100.588 16.7667V18.2667C100.148 18.4667 99.6729 18.6333 99.1983 18.7333C98.7236 18.8333 98.2151 18.8 97.6049 18.8ZM97.2658 11.2667C96.6556 11.2667 96.181 11.4667 95.8419 11.8333C95.5029 12.2 95.2656 12.7333 95.1978 13.4667H99.1983C99.1983 12.7667 99.0288 12.2 98.6897 11.8333C98.3507 11.4667 97.8422 11.2667 97.2658 11.2667Z" fill="black"/>
<path d="M108.623 18.6667L108.25 17.4667H108.182C107.775 18 107.334 18.3667 106.894 18.5333C106.453 18.7 105.91 18.8333 105.232 18.8333C104.385 18.8333 103.707 18.6 103.198 18.1333C102.69 17.6667 102.486 17.0333 102.486 16.2C102.486 15.3 102.825 14.6333 103.503 14.2C104.181 13.7667 105.199 13.5 106.589 13.4667L108.114 13.4333V12.9667C108.114 12.4 107.979 12 107.707 11.7333C107.436 11.4667 107.029 11.3333 106.487 11.3333C106.046 11.3333 105.605 11.4 105.199 11.5333C104.792 11.6667 104.385 11.8333 104.012 12L103.402 10.7C103.876 10.4667 104.385 10.2667 104.961 10.1333C105.538 10 106.046 9.93335 106.555 9.93335C107.673 9.93335 108.521 10.1667 109.097 10.6667C109.674 11.1667 109.945 11.9 109.945 12.9333V18.6667H108.623ZM105.843 17.4C106.521 17.4 107.063 17.2 107.47 16.8333C107.877 16.4667 108.08 15.9333 108.08 15.2667V14.5333L106.961 14.5667C106.08 14.6 105.436 14.7333 105.029 15C104.622 15.2667 104.419 15.6667 104.419 16.2C104.419 16.6 104.52 16.9 104.758 17.1C104.995 17.3 105.402 17.4 105.843 17.4Z" fill="black"/>
<path d="M117.031 9.86667C117.404 9.86667 117.709 9.9 117.946 9.93334L117.777 11.6333C117.505 11.5667 117.234 11.5333 116.963 11.5333C116.217 11.5333 115.607 11.7667 115.132 12.2667C114.658 12.7667 114.42 13.3667 114.42 14.1333V18.6667H112.556V10.0333H114.013L114.251 11.5667H114.352C114.658 11.0667 115.031 10.6333 115.505 10.3333C115.98 10.0333 116.488 9.86667 117.031 9.86667Z" fill="black"/>
<path d="M123.133 18.8C121.811 18.8 120.793 18.4333 120.115 17.6667C119.437 16.9 119.064 15.8 119.064 14.3667C119.064 12.9 119.437 11.8 120.149 11C120.861 10.2 121.912 9.83334 123.268 9.83334C124.184 9.83334 125.031 10 125.777 10.3333L125.201 11.8C124.421 11.5 123.777 11.3333 123.234 11.3333C121.709 11.3333 120.963 12.3333 120.963 14.3C120.963 15.2667 121.166 16 121.539 16.5C121.912 17 122.489 17.2333 123.201 17.2333C124.048 17.2333 124.828 17.0333 125.574 16.6333V18.2333C125.235 18.4333 124.896 18.5667 124.489 18.6333C124.082 18.7 123.675 18.8 123.133 18.8Z" fill="black"/>
<path d="M135.372 18.6667H133.507V13.3333C133.507 12.6667 133.371 12.1667 133.1 11.8333C132.829 11.5 132.388 11.3333 131.812 11.3333C131.032 11.3333 130.456 11.5667 130.083 12.0333C129.71 12.5 129.54 13.2667 129.54 14.3333V18.6667H127.676V6.5H129.54V9.6C129.54 10.1 129.507 10.6333 129.439 11.2H129.574C129.846 10.8 130.185 10.4667 130.625 10.2333C131.066 10 131.608 9.9 132.219 9.9C134.355 9.9 135.406 10.9667 135.406 13.0667V18.6667H135.372Z" fill="black"/>
<path d="M21.9684 10.8333H14.8828C14.9167 11 14.9845 11.1667 15.0184 11.3C15.2557 12.1 15.3913 12.9333 15.4592 13.8C15.4931 14.1333 15.4931 14.5 15.4931 14.8333C15.4931 15.1667 15.4931 15.5333 15.4592 15.8667C15.3913 16.7333 15.2557 17.5667 15.0184 18.3667C14.9845 18.5333 14.9167 18.7 14.8828 18.8333H21.9684C24.206 18.8333 26.0028 17.0333 26.0028 14.8333C26.0028 12.6333 24.206 10.8333 21.9684 10.8333Z" fill="#00A9E5"/>
<path d="M15.4593 15.8667C15.4932 15.5333 15.4932 15.1667 15.4932 14.8333C15.4932 14.5 15.4932 14.1333 15.4593 13.8C15.3915 12.9333 15.2559 12.1 15.0186 11.3C14.9847 11.1333 14.9169 10.9667 14.883 10.8333H3.93251C3.52568 12.1 3.32227 13.4333 3.32227 14.8333C3.32227 16.2333 3.52568 17.5667 3.93251 18.8333H14.883C14.9169 18.6667 14.9847 18.5 15.0186 18.3667C15.2559 17.5667 15.3915 16.7333 15.4593 15.8667Z" fill="#353535"/>
<path d="M23.1889 20.1667H14.3743C14.1031 20.7667 13.7979 21.3333 13.4589 21.8667C12.9504 22.7 12.3401 23.4333 11.6621 24.1333C11.4248 24.3667 11.1875 24.5667 10.9501 24.8C10.4755 25.2333 9.93306 25.6 9.39062 25.9667C11.5265 27.3667 14.1031 28.1667 16.8492 28.1667C21.5616 28.1667 25.6977 25.8 28.1387 22.2333C26.8843 20.9667 25.1214 20.1667 23.1889 20.1667Z" fill="#00BFB3"/>
<path d="M13.4595 21.8667C13.7985 21.3333 14.1036 20.7667 14.3748 20.1667H4.44141C5.49238 22.5333 7.22141 24.5667 9.42507 25.9667C9.96751 25.6 10.476 25.2333 10.9846 24.8C11.2219 24.6 11.4592 24.3667 11.6965 24.1333C12.3407 23.4667 12.9509 22.7 13.4595 21.8667Z" fill="#019B8F"/>
<path d="M11.6623 5.53335C11.425 5.30001 11.1877 5.10001 10.9504 4.86668C10.4758 4.43335 9.93332 4.06668 9.39088 3.70001C7.22113 5.10001 5.4921 7.13335 4.40723 9.50001H14.3406C14.0694 8.90001 13.7643 8.33335 13.4253 7.80001C12.9506 6.96668 12.3404 6.20001 11.6623 5.53335Z" fill="#F9B110"/>
<path d="M16.8492 1.5C14.1031 1.5 11.5265 2.3 9.39062 3.7C9.93306 4.06667 10.4416 4.43333 10.9501 4.86667C11.1875 5.06667 11.4248 5.3 11.6621 5.53333C12.3401 6.23333 12.9504 6.96667 13.4589 7.8C13.7979 8.33333 14.1031 8.9 14.3743 9.5H23.1889C25.1214 9.5 26.8843 8.7 28.1387 7.43333C25.6977 3.86667 21.5616 1.5 16.8492 1.5Z" fill="#FED10A"/>
</g>
<defs>
<clipPath id="clip0_242_1060">
<rect width="139" height="30" fill="white"/>
</clipPath>
</defs>
</svg>
