<svg width="82" height="82" viewBox="0 0 82 82" fill="none" xmlns="http://www.w3.org/2000/svg">
<path d="M18.6826 71.6059V51.8346H25.1289C31.7514 51.8346 35.0506 55.0537 35.0506 61.484C35.0506 64.535 34.1297 67.0014 32.2639 68.8432C30.398 70.685 28.0117 71.6219 25.0889 71.6219H18.6826V71.6059ZM22.6625 55.2699V68.1545H24.8326C26.7225 68.1545 28.1959 67.5539 29.277 66.3688C30.358 65.1676 30.8945 63.566 30.8945 61.532C30.8945 59.5701 30.326 58.0326 29.2129 56.9275C28.0838 55.8225 26.6344 55.2779 24.8326 55.2779H22.6625V55.2699ZM38.1977 71.6059V51.8346H44.8201C46.8461 51.8346 48.4156 52.243 49.5207 53.0598C50.6258 53.8766 51.1623 55.0057 51.1623 56.4551C51.1623 57.5281 50.818 58.4731 50.1373 59.2738C49.4566 60.0746 48.5998 60.6352 47.5588 60.9475V61.0035C48.8561 61.1797 49.9051 61.6842 50.7059 62.541C51.4986 63.3979 51.899 64.4629 51.899 65.7441C51.899 67.5459 51.2984 68.9713 50.0893 70.0363C48.8801 71.1014 47.2385 71.6299 45.1564 71.6299H38.1977V71.6059ZM42.1695 54.9816V59.8744H44.0594C44.9723 59.8744 45.677 59.6422 46.2055 59.1777C46.734 58.7133 46.9902 58.0727 46.9902 57.2398C46.9902 55.7264 45.9492 54.9656 43.8592 54.9656L42.1695 54.9816ZM42.1695 63.0295V68.4508H44.5318C45.5328 68.4508 46.3176 68.2025 46.8781 67.7141C47.4387 67.2256 47.727 66.5369 47.727 65.6641C47.727 64.8313 47.4467 64.1826 46.8781 63.7182C46.3096 63.2537 45.5168 63.0215 44.4758 63.0215L42.1695 63.0295ZM58.6656 68.1865H66.5773V71.6219H54.1732V70.1484C54.1732 69.1154 54.3494 68.1705 54.7098 67.3297C55.0701 66.4889 55.5586 65.6801 56.1832 64.9434C56.8158 64.2066 57.7768 63.3498 59.098 62.3568C60.3072 61.4039 61.14 60.5551 61.6285 59.8264C62.117 59.0897 62.3492 58.3129 62.3492 57.4801C62.3492 55.6943 61.4363 54.8135 59.6025 54.8135C58.001 54.8135 56.4715 55.4941 55.0061 56.8555V53.1719C56.6397 52.0508 58.4574 51.4982 60.4994 51.4982C62.3652 51.4982 63.8387 52.0027 64.9197 53.0117C66.0008 54.0207 66.5533 55.4061 66.5533 57.1838C66.5533 58.1768 66.4012 59.0656 66.0809 59.8504C65.7766 60.6432 65.3121 61.3879 64.7195 62.1006C64.127 62.7973 63.182 63.6381 61.8687 64.6231C60.6115 65.576 59.7627 66.3127 59.3303 66.8332C58.8979 67.3537 58.6656 67.7861 58.6656 68.1865Z" fill="black"/>
<path d="M6.57422 13.7414H20.4518V15.8234H6.57422V13.7414ZM22.4217 13.7414V15.8234H42.209C42.209 15.8234 40.143 13.7414 37.5484 13.7414H22.4217ZM46.1488 13.7414V15.8394H58.1525L57.4479 13.7414H46.1488ZM77.9398 13.7414H66.7529L66.0482 15.8394H77.9398V13.7414ZM6.57422 17.8254H20.4518V19.9074H6.57422V17.8254ZM22.4217 19.9154H44.5873C44.5873 19.9154 44.3791 18.2658 43.8666 17.8334H22.4217V19.9154ZM46.1488 19.9154H59.4979L58.8973 17.8254H46.1488V19.9154ZM77.9398 19.9154V17.8254H65.3195L64.7029 19.9154H77.9398ZM10.6021 21.7812H16.608V23.8633H10.6021V21.7812ZM26.4656 21.7812H32.4715V23.8633H26.4656V21.7812ZM38.3812 23.8633H44.3871C44.3871 23.8633 44.7955 22.7582 44.7955 21.7812H38.3732V23.8633H38.3812ZM50.1928 21.7812V23.8633H60.8512L60.1465 21.7812H50.1928ZM63.3496 23.8633H74.1281V21.7812H64.0623L63.3496 23.8633ZM10.6021 25.8412H16.608V27.9232H10.6021V25.8412ZM26.4656 27.9232H41.8967C41.8967 27.9232 43.1459 26.8182 43.5543 25.8412H26.4656V27.9232ZM62.1084 27.6109L61.5959 25.8412H50.1928V27.9232H56.1986V26.7221L56.615 27.9232H67.7059L68.1063 26.7221V27.9232H74.1281V25.8412H62.709L62.1084 27.6109ZM10.6021 29.9012H16.608V31.9832H10.6021V29.9012ZM26.4656 31.9992H43.5543C43.1459 31.0062 41.8967 29.9172 41.8967 29.9172H26.4656V31.9992ZM50.1928 29.9012H56.1986V31.9832H50.1928V29.9012ZM67.0732 29.9012H57.3277L58.0645 31.9992H66.3605L67.0732 29.9012ZM68.0102 29.9012H74.016V31.9832H68.0102V29.9012ZM10.6021 33.9691H16.608V36.0512H10.6021V33.9691ZM26.4656 33.9691H32.4715V36.0512H26.4656V33.9691ZM44.3871 33.9691H38.3812V36.0512H44.8035C44.7955 35.0662 44.3871 33.9691 44.3871 33.9691ZM50.1928 33.9691H56.1986V36.0512H50.1928V33.9691ZM65.7279 33.9691H58.6811L59.4098 36.0592H65.0072L65.7279 33.9691ZM68.0102 33.9691H74.016V36.0512H68.0102V33.9691ZM6.67832 37.925H20.5559V40.007H6.67832V37.925ZM44.6033 37.925H22.4217V40.007H43.8666C44.283 39.5746 44.6033 37.925 44.6033 37.925ZM46.2609 37.925H56.1986V40.007H46.2609V37.925ZM64.2625 37.925H60.0264L60.7631 40.007H63.5418L64.2625 37.925ZM68.0102 37.925H78.06V40.007H68.0102V37.925ZM6.67832 42.009H20.5559V44.091H6.67832V42.009ZM42.217 42.009H22.4217V44.091H37.5484C40.2391 44.083 42.217 42.009 42.217 42.009ZM46.2609 42.009H56.1986V44.091H46.2609V42.009ZM62.1965 44.083L62.9412 42.009H61.3637L62.1084 44.083H62.1965ZM68.0102 42.009H78.06V44.091H68.0102V42.009Z" fill="black"/>
</svg>
