<svg width="24" height="25" viewBox="0 0 24 25" fill="none" xmlns="http://www.w3.org/2000/svg">
<path d="M15 12.5684C15 13.1618 14.8241 13.7418 14.4944 14.2351C14.1648 14.7285 13.6962 15.113 13.1481 15.3401C12.5999 15.5671 11.9967 15.6265 11.4147 15.5108C10.8328 15.395 10.2982 15.1093 9.87868 14.6897C9.45912 14.2702 9.1734 13.7356 9.05764 13.1537C8.94189 12.5717 9.0013 11.9685 9.22836 11.4204C9.45542 10.8722 9.83994 10.4037 10.3333 10.074C10.8266 9.74437 11.4067 9.56842 12 9.56842C12.7949 9.57089 13.5565 9.88776 14.1186 10.4498C14.6807 11.0119 14.9975 11.7735 15 12.5684ZM21.375 8.44342V16.6934C21.375 18.0858 20.8219 19.4212 19.8373 20.4057C18.8527 21.3903 17.5174 21.9434 16.125 21.9434H7.875C6.48261 21.9434 5.14726 21.3903 4.16269 20.4057C3.17812 19.4212 2.625 18.0858 2.625 16.6934V8.44342C2.625 7.05103 3.17812 5.71568 4.16269 4.73111C5.14726 3.74654 6.48261 3.19342 7.875 3.19342H16.125C17.5174 3.19342 18.8527 3.74654 19.8373 4.73111C20.8219 5.71568 21.375 7.05103 21.375 8.44342ZM16.5 12.5684C16.5 11.6784 16.2361 10.8084 15.7416 10.0684C15.2471 9.32833 14.5443 8.75156 13.7221 8.41096C12.8998 8.07037 11.995 7.98125 11.1221 8.15489C10.2492 8.32852 9.44736 8.7571 8.81802 9.38644C8.18868 10.0158 7.7601 10.8176 7.58647 11.6905C7.41283 12.5634 7.50195 13.4682 7.84254 14.2905C8.18314 15.1128 8.75991 15.8156 9.49993 16.31C10.24 16.8045 11.11 17.0684 12 17.0684C13.1935 17.0684 14.3381 16.5943 15.182 15.7504C16.0259 14.9065 16.5 13.7619 16.5 12.5684ZM18 7.69342C18 7.47092 17.934 7.25341 17.8104 7.0684C17.6868 6.8834 17.5111 6.7392 17.3055 6.65406C17.1 6.56891 16.8738 6.54663 16.6555 6.59004C16.4373 6.63345 16.2368 6.74059 16.0795 6.89793C15.9222 7.05526 15.815 7.25571 15.7716 7.47394C15.7282 7.69217 15.7505 7.91837 15.8356 8.12394C15.9208 8.32951 16.065 8.50521 16.25 8.62882C16.435 8.75244 16.6525 8.81842 16.875 8.81842C17.1734 8.81842 17.4595 8.69989 17.6705 8.48892C17.8815 8.27794 18 7.99179 18 7.69342Z" fill="#1E1E1E"/>
</svg>
