<svg width="16" height="16" viewBox="0 0 16 16" fill="none" xmlns="http://www.w3.org/2000/svg">
<g clip-path="url(#clip0_1121_1099)">
<path d="M15.1793 1.59455C14.739 1.59455 14.382 1.2376 14.382 0.797277C14.382 0.356953 14.739 0 15.1793 0C15.6196 0 15.9766 0.356953 15.9766 0.797277C15.9766 1.2376 15.6196 1.59455 15.1793 1.59455Z" fill="black"/>
<path d="M12.8121 4.01057C12.3718 4.01057 12.0148 3.65362 12.0148 3.21329C12.0148 2.77297 12.3718 2.41602 12.8121 2.41602C13.2524 2.41602 13.6094 2.77297 13.6094 3.21329C13.6094 3.65362 13.2524 4.01057 12.8121 4.01057Z" fill="black"/>
<path d="M12.8121 1.59455C12.3718 1.59455 12.0148 1.2376 12.0148 0.797277C12.0148 0.356953 12.3718 0 12.8121 0C13.2524 0 13.6094 0.356953 13.6094 0.797277C13.6094 1.2376 13.2524 1.59455 12.8121 1.59455Z" fill="black"/>
<path d="M10.3961 4.01057C9.95576 4.01057 9.59881 3.65362 9.59881 3.21329C9.59881 2.77297 9.95576 2.41602 10.3961 2.41602C10.8364 2.41602 11.1934 2.77297 11.1934 3.21329C11.1934 3.65362 10.8364 4.01057 10.3961 4.01057Z" fill="black"/>
<path d="M10.3961 6.37825C9.95576 6.37825 9.59881 6.02129 9.59881 5.58097C9.59881 5.14064 9.95576 4.78369 10.3961 4.78369C10.8364 4.78369 11.1934 5.14064 11.1934 5.58097C11.1934 6.02129 10.8364 6.37825 10.3961 6.37825Z" fill="black"/>
<path d="M10.3961 1.59455C9.95576 1.59455 9.59881 1.2376 9.59881 0.797277C9.59881 0.356953 9.95576 0 10.3961 0C10.8364 0 11.1934 0.356953 11.1934 0.797277C11.1934 1.2376 10.8364 1.59455 10.3961 1.59455Z" fill="black"/>
<path d="M8.02694 4.01057C7.58662 4.01057 7.22966 3.65362 7.22966 3.21329C7.22966 2.77297 7.58662 2.41602 8.02694 2.41602C8.46727 2.41602 8.82422 2.77297 8.82422 3.21329C8.82422 3.65362 8.46727 4.01057 8.02694 4.01057Z" fill="black"/>
<path d="M8.02694 6.37825C7.58662 6.37825 7.22966 6.02129 7.22966 5.58097C7.22966 5.14064 7.58662 4.78369 8.02694 4.78369C8.46727 4.78369 8.82422 5.14064 8.82422 5.58097C8.82422 6.02129 8.46727 6.37825 8.02694 6.37825Z" fill="black"/>
<path d="M8.02694 1.59455C7.58662 1.59455 7.22966 1.2376 7.22966 0.797277C7.22966 0.356953 7.58662 0 8.02694 0C8.46727 0 8.82422 0.356953 8.82422 0.797277C8.82422 1.2376 8.46727 1.59455 8.02694 1.59455Z" fill="black"/>
<path d="M5.65975 4.01057C5.21943 4.01057 4.86248 3.65362 4.86248 3.21329C4.86248 2.77297 5.21943 2.41602 5.65975 2.41602C6.10008 2.41602 6.45703 2.77297 6.45703 3.21329C6.45703 3.65362 6.10008 4.01057 5.65975 4.01057Z" fill="black"/>
<path d="M5.65975 6.37825C5.21943 6.37825 4.86248 6.02129 4.86248 5.58097C4.86248 5.14064 5.21943 4.78369 5.65975 4.78369C6.10008 4.78369 6.45703 5.14064 6.45703 5.58097C6.45703 6.02129 6.10008 6.37825 5.65975 6.37825Z" fill="black"/>
<path d="M8.02694 8.74592C7.58662 8.74592 7.22966 8.38897 7.22966 7.94864C7.22966 7.50832 7.58662 7.15137 8.02694 7.15137C8.46727 7.15137 8.82422 7.50832 8.82422 7.94864C8.82422 8.38897 8.46727 8.74592 8.02694 8.74592Z" fill="black"/>
<path d="M5.65975 8.74592C5.21943 8.74592 4.86248 8.38897 4.86248 7.94864C4.86248 7.50832 5.21943 7.15137 5.65975 7.15137C6.10008 7.15137 6.45703 7.50832 6.45703 7.94864C6.45703 8.38897 6.10008 8.74592 5.65975 8.74592Z" fill="black"/>
<path d="M10.396 11.162C9.95568 11.162 9.5987 10.8051 9.5987 10.3647C9.5987 9.92436 9.95568 9.56738 10.396 9.56738C10.8364 9.56738 11.1934 9.92436 11.1934 10.3647C11.1934 10.8051 10.8364 11.162 10.396 11.162Z" fill="black"/>
<path d="M8.02689 11.162C7.58653 11.162 7.22956 10.8051 7.22956 10.3647C7.22956 9.92436 7.58653 9.56738 8.02689 9.56738C8.46724 9.56738 8.82422 9.92436 8.82422 10.3647C8.82422 10.8051 8.46724 11.162 8.02689 11.162Z" fill="black"/>
<path d="M5.6597 11.162C5.21935 11.162 4.86237 10.8051 4.86237 10.3647C4.86237 9.92436 5.21935 9.56738 5.6597 9.56738C6.10005 9.56738 6.45703 9.92436 6.45703 10.3647C6.45703 10.8051 6.10005 11.162 5.6597 11.162Z" fill="black"/>
<path d="M12.8121 13.5325C12.3718 13.5325 12.0148 13.1756 12.0148 12.7353C12.0148 12.2949 12.3718 11.938 12.8121 11.938C13.2524 11.938 13.6094 12.2949 13.6094 12.7353C13.6094 13.1756 13.2524 13.5325 12.8121 13.5325Z" fill="black"/>
<path d="M10.3961 13.5325C9.95576 13.5325 9.59881 13.1756 9.59881 12.7353C9.59881 12.2949 9.95576 11.938 10.3961 11.938C10.8364 11.938 11.1934 12.2949 11.1934 12.7353C11.1934 13.1756 10.8364 13.5325 10.3961 13.5325Z" fill="black"/>
<path d="M8.02694 13.5325C7.58662 13.5325 7.22966 13.1756 7.22966 12.7353C7.22966 12.2949 7.58662 11.938 8.02694 11.938C8.46727 11.938 8.82422 12.2949 8.82422 12.7353C8.82422 13.1756 8.46727 13.5325 8.02694 13.5325Z" fill="black"/>
<path d="M5.65975 13.5325C5.21943 13.5325 4.86248 13.1756 4.86248 12.7353C4.86248 12.2949 5.21943 11.938 5.65975 11.938C6.10008 11.938 6.45703 12.2949 6.45703 12.7353C6.45703 13.1756 6.10008 13.5325 5.65975 13.5325Z" fill="black"/>
<path d="M3.19296 6.37825C2.75263 6.37825 2.39568 6.02129 2.39568 5.58097C2.39568 5.14064 2.75263 4.78369 3.19296 4.78369C3.63328 4.78369 3.99023 5.14064 3.99023 5.58097C3.99023 6.02129 3.63328 6.37825 3.19296 6.37825Z" fill="black"/>
<path d="M3.19296 8.74592C2.75263 8.74592 2.39568 8.38897 2.39568 7.94864C2.39568 7.50832 2.75263 7.15137 3.19296 7.15137C3.63328 7.15137 3.99023 7.50832 3.99023 7.94864C3.99023 8.38897 3.63328 8.74592 3.19296 8.74592Z" fill="black"/>
<path d="M3.1929 11.162C2.75255 11.162 2.39557 10.8051 2.39557 10.3647C2.39557 9.92436 2.75255 9.56738 3.1929 9.56738C3.63326 9.56738 3.99023 9.92436 3.99023 10.3647C3.99023 10.8051 3.63326 11.162 3.1929 11.162Z" fill="black"/>
<path d="M15.1792 15.9999C14.7389 15.9999 14.3819 15.643 14.3819 15.2026C14.3819 14.7623 14.7389 14.4053 15.1792 14.4053C15.6196 14.4053 15.9766 14.7623 15.9766 15.2026C15.9766 15.643 15.6196 15.9999 15.1792 15.9999Z" fill="black"/>
<path d="M12.812 15.9999C12.3717 15.9999 12.0147 15.643 12.0147 15.2026C12.0147 14.7623 12.3717 14.4053 12.812 14.4053C13.2524 14.4053 13.6094 14.7623 13.6094 15.2026C13.6094 15.643 13.2524 15.9999 12.812 15.9999Z" fill="black"/>
<path d="M10.396 15.9999C9.95568 15.9999 9.5987 15.643 9.5987 15.2026C9.5987 14.7623 9.95568 14.4053 10.396 14.4053C10.8364 14.4053 11.1934 14.7623 11.1934 15.2026C11.1934 15.643 10.8364 15.9999 10.396 15.9999Z" fill="black"/>
<path d="M8.02689 15.9999C7.58653 15.9999 7.22956 15.643 7.22956 15.2026C7.22956 14.7623 7.58653 14.4053 8.02689 14.4053C8.46724 14.4053 8.82422 14.7623 8.82422 15.2026C8.82422 15.643 8.46724 15.9999 8.02689 15.9999Z" fill="black"/>
<path d="M0.821863 8.74592C0.381539 8.74592 0.0245864 8.38897 0.0245864 7.94864C0.0245864 7.50832 0.381539 7.15137 0.821863 7.15137C1.26219 7.15137 1.61914 7.50832 1.61914 7.94864C1.61914 8.38897 1.26219 8.74592 0.821863 8.74592Z" fill="black"/>
</g>
<defs>
<clipPath id="clip0_1121_1099">
<rect width="16" height="16" fill="white" transform="matrix(-1 0 0 1 16 0)"/>
</clipPath>
</defs>
</svg>
