<svg width="24" height="25" viewBox="0 0 24 25" fill="none" xmlns="http://www.w3.org/2000/svg">
<path d="M12 2.62292C6.50713 2.62292 2.05444 7.07561 2.05444 12.5684C2.05444 18.0613 6.50713 22.5139 12 22.5139C17.4928 22.5139 21.9455 18.0613 21.9455 12.5684C21.9455 7.07561 17.4928 2.62292 12 2.62292ZM9.56537 16.6906H7.55141V10.2095H9.56537V16.6906ZM8.54596 9.41384C7.90986 9.41384 7.49857 8.96318 7.49857 8.40582C7.49857 7.83706 7.92229 7.39988 8.57186 7.39988C9.22142 7.39988 9.61924 7.83706 9.63168 8.40582C9.63168 8.96318 9.22142 9.41384 8.54596 9.41384ZM16.9209 16.6906H14.9069V13.0989C14.9069 12.2628 14.6148 11.6951 13.8865 11.6951C13.3302 11.6951 12.9997 12.0794 12.8536 12.4493C12.7997 12.5809 12.7863 12.7673 12.7863 12.9528V16.6896H10.7713V12.2763C10.7713 11.4672 10.7454 10.7907 10.7184 10.2084H12.4682L12.5604 11.1087H12.6008C12.866 10.686 13.5156 10.0624 14.6024 10.0624C15.9274 10.0624 16.9209 10.9502 16.9209 12.8585V16.6906Z" fill="#1E1E1E"/>
</svg>
