<svg width="89" height="58" viewBox="0 0 89 58" fill="none" xmlns="http://www.w3.org/2000/svg">
<path d="M57.2254 18.4688L49.4785 21.0623L42.7312 24.1077L40.8473 24.6186C40.3668 25.0901 39.867 25.5617 39.3095 26.0332C38.7136 26.5637 38.1561 27.0352 37.7332 27.3889C37.2526 27.7819 36.5606 28.4892 36.1954 28.9411C35.6571 29.6287 35.2342 30.3557 35.0612 30.9058C34.7344 31.9079 34.8882 32.9295 35.5225 33.8726C36.3107 35.0711 37.9062 36.2893 39.7516 37.1145C40.6935 37.5468 42.2891 38.0772 43.4809 38.3916C45.4609 38.9024 49.3055 39.4722 51.42 39.5508C51.8429 39.5705 52.4196 39.5705 52.4388 39.5508C52.4773 39.5115 52.8233 38.8828 53.1885 38.0772C54.4957 35.3659 55.4184 32.8117 55.9374 30.6504C56.245 29.334 56.4757 27.5854 56.6487 25.5027C56.6871 24.9133 56.7063 22.9682 56.6679 22.3198C56.6102 21.2392 56.5141 20.3747 56.3795 19.5102C56.3603 19.3923 56.3411 19.2744 56.3603 19.2744C56.3795 19.2548 56.4564 19.2351 57.4176 18.96L57.2254 18.4688ZM55.4568 19.5298C55.5337 19.5298 55.7067 21.3767 55.7644 22.5359C55.7836 22.7717 55.7644 22.9485 55.7644 22.9485C55.726 22.9485 54.784 22.3787 54.092 21.9465C53.5153 21.5732 52.4004 20.8069 52.2274 20.6694C52.1697 20.6301 52.1697 20.6301 52.6503 20.4533C53.4576 20.1585 55.3799 19.5298 55.4568 19.5298ZM51.4969 20.8659C51.5546 20.8659 51.6891 20.9445 52.0159 21.1409C53.227 21.9072 54.8609 22.8503 55.5722 23.1646C55.7836 23.2629 55.8029 23.2236 55.3223 23.5772C54.265 24.3239 52.9194 25.0508 51.3047 25.7778C51.0163 25.9153 50.7856 26.0136 50.7664 26.0136C50.7472 26.0136 50.7856 25.8564 50.8433 25.6795C51.2278 24.1863 51.4584 22.6734 51.4777 21.4749C51.4392 20.8659 51.4392 20.8659 51.4969 20.8659ZM50.6895 21.1802C50.728 21.2195 50.7087 22.5556 50.6511 22.9289C50.555 23.7934 50.382 24.6186 50.1128 25.542C50.0552 25.7581 49.9975 25.9546 49.9783 25.9546C49.959 25.9939 49.1517 25.1884 48.8826 24.874C48.4212 24.3435 48.0752 23.7934 47.8061 23.2629C47.6715 22.9878 47.4601 22.4573 47.4793 22.4573C47.5754 22.3787 50.6703 21.1606 50.6895 21.1802ZM46.8641 22.7127C46.9026 22.7324 46.941 22.8306 46.9603 22.9289C47.1525 23.4594 47.5754 24.2256 47.9406 24.6972C48.3443 25.2277 48.8633 25.8171 49.2862 26.1904C49.4208 26.3083 49.5554 26.4262 49.5746 26.4458C49.613 26.4851 49.613 26.4851 48.6711 26.8388C47.5562 27.271 46.3643 27.7033 44.9803 28.1552C44.6535 28.273 44.3267 28.3713 43.9999 28.4892C43.9422 28.5088 43.9615 28.4695 44.1152 28.2337C44.8073 27.1335 45.8453 24.9919 46.422 23.4594C46.5181 23.2039 46.6142 22.9289 46.6335 22.8699C46.6527 22.7913 46.6911 22.752 46.768 22.7127C46.8065 22.7324 46.8449 22.7127 46.8641 22.7127ZM45.6915 23.2039C45.7108 23.2236 45.4032 23.8523 45.1148 24.4417C44.5382 25.5813 43.923 26.6816 43.0964 28.0373C42.9619 28.273 42.8273 28.4892 42.8081 28.5088C42.7696 28.5481 42.7696 28.5481 42.6735 28.3516C42.4813 27.9587 42.3083 27.4282 42.2314 26.9566C42.1353 26.4851 42.1545 25.6795 42.2698 25.1687C42.3467 24.7954 42.3467 24.7954 42.5197 24.7168C43.231 24.3435 45.6531 23.1843 45.6915 23.2039ZM55.7836 23.6362V23.8916C55.7836 25.2276 55.6491 27.0549 55.4376 28.3909C55.3992 28.6267 55.3799 28.8232 55.3607 28.8232C55.3607 28.8232 55.1877 28.7839 54.9955 28.7249C54.1112 28.4499 53.1693 28.0373 52.3043 27.5461C51.7276 27.2317 50.901 26.7012 50.9394 26.6816C50.9394 26.6816 51.1893 26.544 51.4777 26.3869C52.6311 25.7778 53.7268 25.1098 54.6879 24.4614C55.0532 24.2256 55.5914 23.813 55.7067 23.7148L55.7836 23.6362ZM41.2702 25.4045C41.2895 25.4045 41.2895 25.4438 41.251 25.6599C41.2318 25.8171 41.1933 26.1118 41.1933 26.3083C41.1549 27.1728 41.2895 27.8211 41.7124 28.7053C41.8277 28.9411 41.9238 29.1572 41.9238 29.1572C41.8854 29.1965 38.0023 30.3557 36.7913 30.6897C36.426 30.7879 36.1185 30.8862 36.08 30.8862C36.0416 30.9058 36.0416 30.8862 36.0416 30.7879C36.1761 29.9038 36.8297 28.7642 37.7524 27.7819C38.3676 27.1335 38.8481 26.7602 39.6747 26.269C40.2706 25.9546 41.1741 25.4241 41.2702 25.4045C41.251 25.4045 41.251 25.4045 41.2702 25.4045ZM50.4012 27.0745C50.4012 27.0745 50.555 27.1531 50.7087 27.2514C51.9582 27.998 53.7075 28.6856 55.1877 29.0393L55.3223 29.0786L55.13 29.1768C54.3419 29.6287 51.7852 30.7094 49.1709 31.7114C48.7864 31.8489 48.4212 32.0061 48.3443 32.0258C48.2674 32.065 48.2098 32.065 48.2098 32.065C48.2098 32.065 48.3059 31.8489 48.4404 31.5935C49.1709 30.1985 49.9014 28.4892 50.2858 27.3103C50.3627 27.1728 50.4012 27.0745 50.4012 27.0745ZM49.4785 27.3889C49.4785 27.3889 49.44 27.5264 49.3824 27.664C48.8633 28.9214 48.2098 30.2968 47.3447 31.8489C47.1333 32.2419 46.941 32.5562 46.941 32.5562C46.941 32.5562 46.768 32.458 46.5566 32.3205C45.3071 31.5346 44.2114 30.5915 43.5001 29.6484L43.404 29.5108L43.9422 29.3537C45.8453 28.8232 47.4793 28.2534 49.094 27.5461C49.267 27.4675 49.4593 27.3889 49.4785 27.3889ZM55.2646 29.4519C55.2646 29.5894 54.9763 30.8272 54.7264 31.7114C54.5149 32.458 54.3419 33.0474 54.0151 34.0888C53.8805 34.5407 53.746 34.914 53.746 34.914C53.746 34.914 53.7075 34.914 53.6691 34.8943C51.939 34.58 50.3627 34.1281 48.9018 33.519C48.4981 33.3421 47.9022 33.0867 47.8637 33.0474C47.8445 33.0278 48.2098 32.8706 48.6519 32.6741C51.3239 31.4756 54.0728 30.1396 55.0339 29.5501C55.1493 29.4912 55.2454 29.4519 55.2646 29.4519ZM41.9046 29.9234C41.9238 29.9431 41.1741 31.0237 40.1361 32.5169C39.7708 33.0474 39.3479 33.6565 39.1941 33.8726C39.0404 34.1084 38.7905 34.4621 38.6559 34.6782L38.406 35.0711L38.1369 34.8354C37.8293 34.58 37.2911 34.0102 37.0412 33.6958C36.5414 33.0474 36.1954 32.3794 36.0608 31.7703C36.0031 31.4756 36.0031 31.3381 36.0608 31.3184C36.1569 31.2988 37.714 30.9255 39.1749 30.5718C39.9823 30.3753 40.9242 30.1592 41.2702 30.061C41.6163 29.9824 41.8854 29.9234 41.9046 29.9234ZM42.6543 30.2182L42.8465 30.4343C43.6923 31.397 44.5574 32.1043 45.5954 32.7331C45.7876 32.8313 45.9222 32.9295 45.903 32.9492C45.8645 32.9885 42.2891 34.2852 40.6167 34.855C39.6939 35.189 38.925 35.4641 38.9058 35.4641L38.7905 35.3855L38.6944 35.3069L38.8674 35.0515C39.4248 34.2459 40.1169 33.3422 41.6163 31.4953L42.6543 30.2182ZM47.3255 33.6369C47.3255 33.6369 47.5946 33.7351 47.9022 33.853C48.6711 34.1477 49.267 34.3245 50.0744 34.5407C51.074 34.7961 52.5157 35.0515 53.3615 35.1301C53.4961 35.1497 53.5538 35.1497 53.5345 35.1694C53.4961 35.189 52.631 35.4837 51.9967 35.6999C50.9971 36.0142 47.9214 36.9573 45.4032 37.6843C44.9418 37.8218 44.5382 37.9397 44.5189 37.9397C44.4613 37.9594 44.269 37.9004 44.269 37.8808C44.269 37.8611 44.4036 37.6843 44.5766 37.4878C45.4224 36.4661 46.249 35.3069 46.9603 34.2263C47.1525 33.8726 47.3255 33.6369 47.3255 33.6369ZM46.2874 33.6565C46.2874 33.6565 45.8838 34.3442 45.1533 35.523C44.8457 36.0142 44.4997 36.584 44.3651 36.7805C44.2498 36.977 44.0768 37.2717 43.9807 37.4485L43.8077 37.7629L43.7116 37.7432C43.5001 37.6843 42.0199 37.1538 41.6355 36.9966C41.1549 36.8001 40.6551 36.5644 40.2706 36.3482C39.8093 36.0928 39.2134 35.6999 39.271 35.6999C39.2903 35.6999 40.0784 35.4641 41.0588 35.2087C43.6154 34.5014 45.038 34.0888 45.9799 33.7744C46.1337 33.6958 46.2874 33.6565 46.2874 33.6565ZM53.573 35.4052C53.6114 35.4641 52.6503 38.1558 52.3043 39.0007C52.2274 39.1972 52.2081 39.2365 52.1505 39.2365C52.0544 39.2365 50.6703 39.04 49.8437 38.9024C48.3828 38.6667 45.9414 38.2344 45.3263 38.0969L45.1917 38.0576L46.0568 37.8611C47.9406 37.4289 48.8249 37.1931 49.7476 36.918C50.901 36.5644 52.0351 36.1125 53.1885 35.5623C53.3807 35.4837 53.5345 35.4052 53.573 35.4052Z" fill="url(#paint0_linear_242_1031)"/>
<path d="M49.2286 0.0196575C49.0941 9.7882e-06 47.018 0.76627 45.6724 1.31641C43.8654 2.06302 42.4621 2.78998 41.5971 3.41871C41.2703 3.65448 40.8666 4.06708 40.809 4.22426C40.7897 4.28321 40.7705 4.3618 40.7705 4.42074L41.5587 5.187L43.4233 5.79608L47.8638 6.60164L52.9387 7.48578L52.9964 7.03388H52.9579L52.2851 6.93565L52.1505 6.69987C51.4585 5.46207 50.6896 3.9099 50.2475 2.86857C49.9015 2.06302 49.5747 1.11993 49.4016 0.451906C49.3055 0.0393046 49.2863 0.0196575 49.2286 0.0196575ZM49.1325 0.314373C49.1518 0.314373 49.171 0.491203 49.1902 0.687679C49.2863 1.53253 49.4785 2.33808 49.7669 3.20258C49.9783 3.87061 49.9783 3.83131 49.7284 3.75272C49.1325 3.57589 46.4605 3.10435 44.519 2.82928C44.2114 2.78998 43.9423 2.75069 43.9423 2.73104C43.9231 2.71139 45.3456 1.94513 45.9607 1.65042C46.7681 1.27711 48.9787 0.353668 49.1325 0.314373ZM43.481 3.00611L43.7116 3.0847C44.9611 3.51695 48.0753 4.12603 49.8053 4.26356C49.9976 4.28321 50.1706 4.30286 50.1706 4.30286C50.1706 4.30286 50.0168 4.40109 49.8053 4.49933C48.9787 4.93158 48.056 5.44242 47.4217 5.85502C47.2294 5.97291 47.0564 6.07115 47.0372 6.07115C47.018 6.07115 46.8834 6.0515 46.7681 6.03185L46.5374 5.99256L45.9607 5.40312C44.9227 4.38144 44.1153 3.59554 43.8077 3.28117L43.481 3.00611ZM43.2503 3.18294L44.0769 4.24391C44.519 4.83334 44.9804 5.38348 45.0765 5.52101C45.1726 5.6389 45.2495 5.75678 45.2495 5.75678C45.2303 5.77643 44.0576 5.54066 43.4425 5.40312C42.8082 5.24594 42.539 5.187 42.1546 5.04947L41.8278 4.95123V4.87264C41.8278 4.47968 42.3276 3.87061 43.1734 3.26153L43.2503 3.18294ZM50.2667 4.61722C50.2859 4.61722 50.3244 4.67616 50.382 4.83334C50.5743 5.28524 51.2086 6.48375 51.3624 6.71952C51.4008 6.79811 51.497 6.79811 50.6704 6.66058C48.6904 6.32657 48.056 6.22833 48.056 6.20868C48.056 6.20868 48.1137 6.16939 48.1906 6.11044C48.8057 5.75678 49.4209 5.32454 49.9783 4.85299C50.1129 4.7351 50.2282 4.63687 50.2667 4.61722Z" fill="url(#paint1_linear_242_1031)"/>
<path d="M40.8475 4.12601C40.8475 4.12601 40.7129 4.34213 40.8475 4.65649C40.9244 4.85297 41.155 5.08874 41.4049 5.32452C41.4049 5.32452 44.0193 7.91801 44.3268 8.29132C45.7686 10.0007 46.4029 11.6707 46.4606 13.9695C46.4991 15.4627 46.2299 16.7595 45.5379 18.2723C44.3268 20.9837 41.751 23.9898 37.791 27.3103L38.3677 27.1138C38.7329 26.8191 39.252 26.5244 40.4438 25.8564C43.2119 24.3042 46.3068 22.8896 50.113 21.4356C55.5915 19.3333 64.6072 16.8577 69.7397 16.0522L70.2779 15.9736L70.2011 15.836C69.7397 15.0894 69.4129 14.6375 69.0284 14.1463C67.9135 12.712 66.5487 11.5725 64.8763 10.6097C62.5887 9.29335 59.6092 8.27167 55.8414 7.50541C55.1302 7.36788 53.5731 7.09281 52.3044 6.89633C49.6132 6.46408 47.8831 6.16937 45.98 5.83536C45.288 5.71747 44.2692 5.54064 43.5964 5.38346C43.2504 5.30487 42.5776 5.14769 42.0393 4.95121C41.578 4.81368 40.982 4.63685 40.8475 4.12601ZM42.3661 5.63888C42.3661 5.63888 42.4622 5.67817 42.5968 5.71747C42.8275 5.79606 43.1158 5.8943 43.4426 5.97289C43.6925 6.05148 43.9616 6.11042 44.2115 6.18901C44.5575 6.28725 44.8651 6.36584 44.8651 6.36584C44.9035 6.40514 45.4995 8.35026 45.6917 9.07723C45.7686 9.3523 45.8262 9.60771 45.8262 9.60771C45.8262 9.60771 45.7494 9.50948 45.6725 9.37194C44.9804 8.13414 43.9039 6.89633 42.6544 5.87465C42.4814 5.73712 42.3661 5.63888 42.3661 5.63888ZM45.2496 6.44443C45.288 6.44443 45.4033 6.46408 45.5571 6.50338C46.5567 6.73915 48.3445 7.07316 49.4786 7.26964C49.6709 7.30893 49.8246 7.32858 49.8246 7.34823C49.8246 7.36788 49.7477 7.40717 49.6709 7.44647C49.4786 7.54471 48.6905 8.01625 48.4406 8.19308C47.787 8.64498 47.2103 9.11652 46.7874 9.54877L46.4798 9.86314C46.4798 9.86314 46.4414 9.76489 46.4222 9.62736C46.2107 8.80216 45.7686 7.56435 45.3649 6.69986C45.288 6.58197 45.2303 6.44443 45.2496 6.44443C45.2303 6.44443 45.2303 6.44443 45.2496 6.44443ZM50.3052 7.42682C50.3437 7.44647 50.4013 7.64295 50.5167 8.09484C50.7281 8.95934 50.8242 9.94173 50.805 10.8455C50.7858 11.1009 50.7858 11.3367 50.7666 11.3564L50.7473 11.4153L50.4398 11.3171C49.8054 11.1206 48.7866 10.8062 47.9216 10.5508C47.4218 10.4133 47.0181 10.2954 47.0181 10.2757C47.0181 10.2364 47.7485 9.48983 48.0561 9.21476C48.652 8.68427 50.2668 7.40717 50.3052 7.42682ZM50.7089 7.48576C50.7281 7.46612 53.131 7.89836 54.2267 8.11449C55.0341 8.27167 56.2259 8.52709 56.3028 8.56639C56.3412 8.58603 56.2067 8.64498 55.8222 8.82181C54.2844 9.52912 53.131 10.1775 51.9776 10.9438C51.67 11.1402 51.4201 11.3171 51.4201 11.3171C51.4201 11.3171 51.4009 11.1402 51.4009 10.9438C51.4009 9.80419 51.1702 8.66462 50.7666 7.68224C50.7473 7.584 50.7089 7.50541 50.7089 7.48576ZM56.9372 8.74321C56.9564 8.76286 56.8795 9.25405 56.8026 9.52912C56.5911 10.4133 56.0145 11.7493 55.3224 12.9871C55.2071 13.2032 55.0917 13.3801 55.0725 13.3997C55.0533 13.3997 54.8995 13.3211 54.7265 13.2032C54.0537 12.7906 53.2656 12.4173 52.439 12.0637C52.2083 11.9654 51.9968 11.8868 51.9968 11.8672C51.9584 11.8279 53.8423 10.5508 54.8419 9.94172C55.63 9.45053 56.9179 8.72357 56.9372 8.74321ZM57.3793 8.82181C57.437 8.82181 58.4942 9.11652 59.0517 9.29335C60.4358 9.70595 62.012 10.2954 63.0309 10.7866L63.4538 10.9831L63.1462 11.0616C60.628 11.6511 58.475 12.3387 56.3989 13.2032C56.2259 13.2818 56.0721 13.3408 56.0721 13.3408C56.0529 13.3408 56.1106 13.2032 56.1875 13.0264C56.8218 11.6707 57.2255 10.2561 57.3216 9.03793C57.3601 8.92004 57.3793 8.82181 57.3793 8.82181ZM46.7682 11.3171C46.7874 11.2974 47.5948 11.4939 48.0369 11.6314C48.7097 11.8279 50.113 12.2994 50.113 12.3387C50.113 12.3387 49.9592 12.4763 49.767 12.6531C48.998 13.3015 48.2676 13.9892 47.3833 14.8733C47.1142 15.1287 46.9027 15.3448 46.8835 15.3448C46.8643 15.3448 46.8643 15.3055 46.8643 15.2663C46.9989 14.2642 46.9604 12.9675 46.7874 11.6511C46.7874 11.4546 46.7682 11.3171 46.7682 11.3171ZM63.8767 11.3367C63.8959 11.3564 63.4922 11.9654 63.2615 12.3191C62.9155 12.8299 62.3965 13.5176 61.2239 15.0108C60.6088 15.7967 59.9167 16.7005 59.6861 16.9952C59.4554 17.29 59.2631 17.5454 59.2439 17.5454C59.2439 17.5454 59.167 17.4471 59.0709 17.3096C58.4173 16.3076 57.6292 15.4234 56.7065 14.6375C56.5335 14.4803 56.3412 14.3232 56.2644 14.2839C56.2067 14.2446 56.149 14.1856 56.149 14.1856C56.149 14.166 57.1486 13.7337 57.8983 13.4194C59.2247 12.8692 61.0317 12.2012 62.3773 11.7886C63.1077 11.5332 63.8767 11.3171 63.8767 11.3367ZM64.338 11.4546C64.3573 11.4546 64.511 11.5135 64.6648 11.6314C66.0873 12.4566 67.4906 13.5373 68.5863 14.6375C68.8939 14.9519 69.6628 15.7574 69.6436 15.7771C69.6436 15.7771 69.3745 15.7967 69.0669 15.8164C66.6063 16.0129 63.4538 16.5434 60.4165 17.29C60.2051 17.3293 60.0321 17.3882 60.0128 17.3882C59.9936 17.3882 60.2243 17.1524 60.5126 16.8774C62.3004 15.1287 63.1078 14.0088 64.0689 12.044C64.2035 11.71 64.3188 11.4742 64.338 11.4546C64.3188 11.4546 64.3188 11.4546 64.338 11.4546ZM51.2856 12.8103C51.3625 12.8299 52.1314 13.2032 52.7081 13.4783C53.2271 13.7534 54.0345 14.1856 54.0729 14.2053C54.0729 14.2053 53.8038 14.3625 53.4578 14.5393C52.3621 15.1091 51.4201 15.6396 50.4206 16.2486C50.1322 16.4255 49.9015 16.563 49.9015 16.563C49.8823 16.563 49.8823 16.5434 50.0361 16.2486C50.5551 15.2663 50.978 14.0874 51.2279 12.9478C51.2471 12.8692 51.2664 12.8103 51.2856 12.8103ZM50.5359 12.9675C50.5551 12.9871 50.3629 13.7141 50.2283 14.1267C49.9976 14.8929 49.5747 15.836 49.1903 16.563C49.0942 16.7398 48.9596 16.9756 48.8827 17.1131L48.7289 17.3489L48.4021 17.0345C48.0177 16.6612 47.7101 16.4255 47.3064 16.2093C47.1526 16.1307 47.0181 16.0522 47.0181 16.0325C47.0181 15.9932 48.0177 15.0501 48.7866 14.3821C49.3441 13.8909 50.5167 12.9478 50.5359 12.9675ZM55.1879 14.9126L55.4762 15.1091C56.1298 15.5413 56.8987 16.1308 57.4946 16.6416C57.8214 16.9167 58.475 17.5061 58.6096 17.6633L58.6865 17.7419L58.2059 17.8794C55.5147 18.6457 53.4578 19.3137 51.0357 20.2175C50.7666 20.3157 50.5359 20.3943 50.5167 20.3943C50.4782 20.3943 50.459 20.4336 51.0549 19.8638C52.5928 18.4099 53.9768 16.7988 54.9956 15.2466L55.1879 14.9126ZM53.9576 15.227C53.9768 15.2466 53.1694 16.3862 52.6889 17.0542C52.1122 17.8401 51.0934 19.1368 50.4013 19.9817C50.113 20.3354 49.8631 20.6301 49.8439 20.6301C49.8246 20.6301 49.8246 20.5515 49.8246 20.4139C49.8246 19.687 49.6516 18.9207 49.3248 18.2527C49.1903 17.9776 49.1711 17.9187 49.1903 17.8794C49.3056 17.7812 50.9972 16.7791 52.093 16.1897C52.8042 15.7967 53.9384 15.2073 53.9576 15.227ZM46.5567 17.0738C46.5759 17.0738 46.7105 17.1524 46.8643 17.231C47.2295 17.4471 47.5755 17.6829 47.8639 17.9187C47.8831 17.9383 47.7293 18.0562 47.5179 18.2134C46.9604 18.626 46.1146 19.2744 45.634 19.6673C45.115 20.0799 45.0958 20.0996 45.1534 20.0013C45.5379 19.3923 45.7301 19.0583 45.9416 18.626C46.1146 18.2331 46.3068 17.7812 46.4414 17.3686C46.4798 17.2114 46.5375 17.0738 46.5567 17.0738ZM48.5367 18.6653C48.5751 18.6653 48.5944 18.7046 48.7674 18.96C49.0942 19.4709 49.3633 20.1585 49.421 20.7087L49.4402 20.8265L48.6328 21.1409C47.1911 21.7107 45.8647 22.2805 44.9804 22.6931C44.7305 22.811 44.2884 23.0271 44.0001 23.1646C43.7117 23.3218 43.481 23.42 43.481 23.42C43.481 23.42 43.654 23.2825 43.8847 23.1057C45.634 21.8089 47.1526 20.3747 48.2868 18.96C48.4021 18.8028 48.5175 18.6653 48.5367 18.6653ZM47.6332 18.8814C47.6524 18.9011 46.9796 19.687 46.5375 20.1585C45.4033 21.3374 44.2884 22.2608 42.9043 23.1646C42.7313 23.2825 42.5776 23.3807 42.5583 23.4004C42.5199 23.42 42.5776 23.3611 43.1735 22.6931C43.5579 22.2608 43.8463 21.9072 44.1923 21.4749C44.423 21.1802 44.4614 21.1409 44.769 20.9051C45.6148 20.2371 47.5948 18.8618 47.6332 18.8814Z" fill="url(#paint2_radial_242_1031)"/>
<path d="M22.2587 43.6768C22.1433 43.6768 22.0472 43.6965 21.9319 43.6965C19.7405 43.8144 18.2795 44.7967 17.4145 46.7222C16.684 48.4512 16.7609 50.7303 17.4145 52.4593C18.1834 54.1687 19.4329 55.0725 21.509 55.4065C21.9511 55.4851 22.2395 55.7209 23.1045 56.7425L24.1618 58H26.0648L24.7961 56.7032C24.1041 55.9959 23.5274 55.3672 23.5274 55.3083C23.5274 55.2493 23.7965 55.1314 24.1233 55.0332C25.1998 54.6992 26.0841 53.8543 26.6992 52.5576C27.199 51.5163 27.2759 51.2019 27.3528 49.9051C27.545 46.0542 25.565 43.6572 22.2587 43.6768ZM23.9311 53.7364C23.0084 54.1883 21.6628 54.2866 20.7785 53.9526C19.875 53.6186 18.9908 52.6558 18.5871 51.5555C18.145 50.357 18.2026 48.1565 18.7216 47.1741C19.529 45.6023 20.6055 44.8753 22.1626 44.8753C24.4693 44.8753 25.7957 46.3293 25.9687 49.0406C26.1033 51.3198 25.3536 53.0291 23.9311 53.7364ZM56.8217 46.958C56.0143 46.958 55.4184 47.292 54.9955 47.9404L54.6687 48.4512V47.1152H53.2847V55.1511H54.6687V52.5772C54.6687 50.2195 54.6879 49.9444 55.0147 49.3157C55.4569 48.4316 56.2258 47.9993 56.9563 48.1958L57.4561 48.3333V46.9383L56.8217 46.958ZM48.7096 46.8794C48.4405 46.8794 48.1521 46.9187 47.8638 46.9776C46.0184 47.4688 44.9803 49.2764 45.038 51.143C45.038 52.6951 45.3263 53.481 46.076 54.3062C47.5754 55.5637 48.9403 55.6619 50.7857 54.9939C51.0932 54.8564 51.4392 54.6992 51.4392 54.6992V53.4417L50.7857 53.7954C49.3055 54.4634 48.1713 54.4634 47.2679 53.6775C46.6912 53.0881 46.4413 52.3611 46.3259 51.5555H51.9006V50.4749C51.9006 48.2547 50.5934 46.8598 48.7096 46.8794ZM46.4605 50.416C46.4605 50.416 46.6719 49.0406 47.4216 48.4905C47.7869 48.2351 48.2098 48.0976 48.6327 48.0976C49.0556 48.0976 49.4593 48.2351 49.8053 48.5102C50.4973 49.0603 50.6319 50.416 50.6319 50.416H46.4605ZM13.1277 48.9621C11.6283 48.0386 10.9555 47.3706 11.0517 46.5847C11.2823 44.4038 13.9159 44.6985 15.3768 45.5237L15.3961 44.0501C15.3961 44.0501 14.5887 43.6965 13.4353 43.6768C11.6668 43.6572 10.5134 44.2466 9.97516 45.4648C9.18702 47.2527 9.87905 48.6084 12.4165 50.1016C13.839 50.9465 14.4734 51.6734 14.4734 52.479C14.4734 54.1294 12.5318 54.6992 10.5134 53.6775C10.0905 53.4614 9.74449 53.2846 9.72527 53.2846C9.64837 53.7561 9.68682 54.876 9.68682 54.876C9.68682 54.876 10.302 55.1314 11.2247 55.3279C13.5314 55.7995 15.6075 54.6992 15.819 52.9112C15.9728 51.2215 15.3768 50.3374 13.1277 48.9621ZM69.0668 46.8794C68.7976 46.8794 68.5093 46.9187 68.221 46.9776C66.3755 47.4688 65.3375 49.2764 65.3952 51.143C65.3952 52.6951 65.6835 53.481 66.4332 54.2866C67.9326 55.544 69.2974 55.6619 71.1621 54.9743C71.4697 54.8367 71.8157 54.6795 71.8157 54.6795V53.4221L71.1621 53.7757C69.6627 54.4438 68.5478 54.4438 67.6443 53.6579C67.0676 53.0684 66.8177 52.3611 66.7023 51.5359H72.2578V50.4553C72.2578 48.2351 70.9506 46.8401 69.0668 46.8794ZM66.7985 50.3963C66.7985 50.3963 67.0099 49.021 67.7596 48.4709C68.1248 48.1958 68.5477 48.0779 68.9514 48.0779C69.3551 48.0779 69.778 48.2154 70.124 48.4905C70.8161 49.0406 70.9506 50.3963 70.9506 50.3963H66.7985ZM41.4625 48.9817C39.9631 48.0583 39.3095 47.3902 39.3864 46.6043C39.6171 44.4234 42.2506 44.7182 43.7116 45.5434L43.7308 44.0698C43.7308 44.0698 42.9234 43.7161 41.7701 43.6965C40.0015 43.6768 38.8482 44.2663 38.3099 45.4844C37.5218 47.2724 38.233 48.628 40.7512 50.1213C42.1737 50.9661 42.7889 51.6931 42.7889 52.479C42.7889 54.1294 40.8474 54.7188 38.8289 53.6775C38.4253 53.4614 38.06 53.2846 38.0408 53.2846C37.9639 53.7561 38.0023 54.876 38.0023 54.876C38.0023 54.876 38.6175 55.1314 39.5402 55.3279C41.847 55.7995 43.923 54.6992 44.1345 52.9112C44.3075 51.2412 43.7116 50.357 41.4625 48.9817ZM77.1789 46.9383C76.3715 46.9383 75.7564 47.2724 75.3527 47.9207L75.0259 48.4316V47.0955H73.6419V55.1314H75.0259V52.5772C75.0259 50.2195 75.0451 49.9444 75.3719 49.3157C75.8141 48.4316 76.583 47.9993 77.3135 48.2154L77.8133 48.353V46.958L77.1789 46.9383ZM30.4669 48.9424V43.8144H29.0829V55.1511H34.9459V53.815H30.4861L30.4669 48.9424ZM62.7039 50.5339L61.5506 53.5793L60.4548 50.5142L59.3399 47.1152H57.9174C58.8401 49.7873 59.8397 52.5183 60.8585 55.1511C61.3007 55.1707 61.7428 55.1511 62.1849 55.1511L63.742 51.1626L65.3183 47.0955H63.9534C63.9342 47.1152 63.3383 48.7263 62.7039 50.5339ZM33.6964 40.7297C33.9271 40.7297 34.1001 40.6511 34.2539 40.4939C34.4076 40.3367 34.4845 40.1599 34.4845 39.9241C34.4845 39.6883 34.4076 39.5115 34.2539 39.3543C34.1001 39.2168 33.9271 39.1382 33.6964 39.1382C33.4657 39.1382 33.2735 39.2168 33.1389 39.374C32.9851 39.5312 32.9082 39.7276 32.9082 39.9438C32.9082 40.1795 32.9851 40.376 33.1389 40.5135C33.2735 40.6511 33.4657 40.7297 33.6964 40.7297ZM33.1966 39.4133C33.3312 39.2757 33.4849 39.2168 33.6964 39.2168C33.8886 39.2168 34.0616 39.2757 34.1962 39.4133C34.3307 39.5508 34.4076 39.708 34.4076 39.9241C34.4076 40.1206 34.3307 40.2974 34.1962 40.435C34.0616 40.5725 33.8886 40.6314 33.6964 40.6314C33.5042 40.6314 33.3312 40.5725 33.1966 40.435C33.062 40.2974 32.9851 40.1206 32.9851 39.9241C33.0044 39.7276 33.062 39.5508 33.1966 39.4133ZM33.5234 40.0027H33.6195C33.6772 40.0027 33.7541 40.0616 33.7925 40.1795L33.9078 40.435H34.0809L33.9463 40.1599C33.8886 40.042 33.831 39.9831 33.7733 39.9634C33.8502 39.9438 33.9078 39.9241 33.9655 39.8652C34.004 39.8259 34.0232 39.7473 34.0232 39.6883C34.0232 39.6098 34.004 39.5508 33.9463 39.4919C33.8886 39.4329 33.7925 39.4133 33.6579 39.4133H33.3696V40.435H33.5042L33.5234 40.0027ZM33.5234 39.5312H33.6579C33.7541 39.5312 33.8117 39.5508 33.8502 39.5705C33.8886 39.5901 33.8886 39.6294 33.8886 39.708C33.8886 39.8259 33.8117 39.8848 33.6772 39.8848H33.5234V39.5312ZM10.5134 39.9045C10.5134 39.5508 10.4942 39.2757 10.4942 39.1186C10.5326 39.2954 10.5711 39.4329 10.6095 39.5312L11.9551 42.5766H12.1858L13.5314 39.4919C13.5699 39.4133 13.6083 39.2757 13.6468 39.0989H13.666C13.6468 39.4133 13.6275 39.6687 13.6275 39.8848V42.5766H14.0889V38.5684H13.5122L12.2627 41.378C12.2243 41.4959 12.1474 41.6531 12.0705 41.8692H12.0513C12.032 41.7514 11.9551 41.5942 11.8782 41.3977L10.6672 38.5881H10.0521V42.5962H10.4942L10.5134 39.9045ZM15.0693 39.9241H15.473V42.4194H15.0693V39.9241ZM15.2615 39.0007C15.3384 39.0007 15.4153 38.981 15.473 38.9221C15.5306 38.8631 15.5691 38.8042 15.5691 38.706C15.5691 38.6274 15.5498 38.5488 15.473 38.4898C15.4153 38.4309 15.3384 38.4112 15.2615 38.4112C15.1846 38.4112 15.1077 38.4309 15.05 38.4898C14.9924 38.5488 14.9539 38.6274 14.9539 38.706C14.9539 38.8042 14.9732 38.8631 15.05 38.9221C15.1077 38.981 15.1846 39.0007 15.2615 39.0007ZM18.2795 42.4587V42.0264C18.0681 42.1836 17.8374 42.2818 17.5875 42.2818C17.2991 42.2818 17.0685 42.1836 16.8955 41.9871C16.7224 41.7906 16.6263 41.5352 16.6263 41.2012C16.6263 40.8476 16.7224 40.5725 16.8955 40.376C17.0685 40.1795 17.3184 40.0813 17.5875 40.0813C17.8182 40.0813 18.0488 40.1599 18.2603 40.2974V39.8062C18.0681 39.708 17.8566 39.6687 17.6067 39.6687C17.1646 39.6687 16.7993 39.8062 16.5494 40.1009C16.2995 40.376 16.165 40.769 16.165 41.2405C16.165 41.6531 16.2803 42.0068 16.5302 42.2622C16.7801 42.5373 17.1069 42.6748 17.4914 42.6748C17.8182 42.6551 18.0681 42.5962 18.2795 42.4587ZM19.4137 41.1423C19.4137 40.8083 19.4906 40.5528 19.6251 40.3564C19.7597 40.1992 19.8943 40.1009 20.0865 40.1009C20.2403 40.1009 20.3556 40.1206 20.4325 40.1992V39.7276C20.3748 39.708 20.2787 39.6883 20.1634 39.6883C20.0096 39.6883 19.8558 39.7473 19.7405 39.8455C19.6059 39.9634 19.4906 40.1206 19.4329 40.3367H19.4137V39.7473H18.9715V42.6158H19.4137V41.1423ZM21.9896 42.6551C22.4125 42.6551 22.7585 42.5176 23.0084 42.2425C23.2583 41.9675 23.3928 41.5942 23.3928 41.1423C23.3928 40.6707 23.2775 40.3171 23.0468 40.042C22.8162 39.7669 22.4894 39.6491 22.0665 39.6491C21.6435 39.6491 21.2975 39.7866 21.0476 40.0224C20.7785 40.2974 20.6439 40.6904 20.6439 41.1816C20.6439 41.6138 20.7593 41.9675 21.0092 42.2425C21.2399 42.5176 21.5667 42.6551 21.9896 42.6551ZM21.3552 40.3367C21.5282 40.1599 21.7589 40.0616 22.028 40.0616C22.3164 40.0616 22.5278 40.1599 22.7008 40.3367C22.8546 40.5332 22.9507 40.8083 22.9507 41.1619C22.9507 41.5156 22.8738 41.7906 22.72 41.9675C22.5663 42.164 22.3356 42.2622 22.0472 42.2622C21.7589 42.2622 21.5282 42.164 21.3552 41.9675C21.1822 41.771 21.1053 41.5156 21.1053 41.1619C21.0861 40.8083 21.163 40.5332 21.3552 40.3367ZM25.3344 42.4194C25.5074 42.2622 25.6035 42.0657 25.6035 41.8299C25.6035 41.6138 25.5266 41.437 25.392 41.2995C25.2767 41.1816 25.1229 41.0833 24.873 40.9851C24.6616 40.8869 24.527 40.8083 24.4501 40.7493C24.3732 40.6707 24.3348 40.5921 24.3348 40.4546C24.3348 40.3367 24.3732 40.2385 24.4693 40.1795C24.5654 40.1009 24.6808 40.0616 24.8346 40.0616C25.0845 40.0616 25.2767 40.1206 25.4689 40.2581V39.8062C25.2959 39.708 25.0845 39.6687 24.873 39.6687C24.5847 39.6687 24.3348 39.7473 24.1618 39.9045C23.9695 40.0616 23.8926 40.2581 23.8926 40.4939C23.8926 40.71 23.9503 40.8869 24.0656 41.0047C24.1618 41.1226 24.3348 41.2209 24.5654 41.3191C24.7961 41.4173 24.9499 41.5156 25.0268 41.5942C25.1037 41.6728 25.1421 41.7514 25.1421 41.8692C25.1421 42.1443 24.9691 42.2818 24.6039 42.2818C24.3348 42.2818 24.0849 42.1836 23.8734 42.0068V42.498C24.0656 42.6159 24.2963 42.6748 24.5654 42.6748C24.8922 42.6551 25.1614 42.5766 25.3344 42.4194ZM27.4681 39.6687C27.0452 39.6687 26.6992 39.8062 26.4493 40.042C26.1802 40.3171 26.0456 40.71 26.0456 41.2012C26.0456 41.6335 26.161 41.9871 26.4109 42.2622C26.6608 42.5373 26.9875 42.6748 27.4105 42.6748C27.8334 42.6748 28.1794 42.5373 28.4293 42.2622C28.6792 41.9871 28.8137 41.6138 28.8137 41.1619C28.8137 40.6904 28.6984 40.3367 28.4677 40.0616C28.2178 39.7866 27.891 39.6687 27.4681 39.6687ZM28.3524 41.1619C28.3524 41.5156 28.2755 41.7906 28.1217 41.9675C27.9679 42.164 27.7372 42.2622 27.4489 42.2622C27.1606 42.2622 26.9299 42.164 26.7569 41.9675C26.5839 41.771 26.507 41.5156 26.507 41.1619C26.507 40.7886 26.6031 40.5135 26.7761 40.3171C26.9491 40.1402 27.1798 40.042 27.4489 40.042C27.718 40.042 27.9487 40.1402 28.1025 40.3171C28.2755 40.5135 28.3524 40.7886 28.3524 41.1619ZM29.5634 42.5962H30.0056V40.1206H30.6592V39.7276H30.0056V39.2954C30.0056 38.9024 30.1594 38.6863 30.4669 38.6863C30.5823 38.6863 30.6784 38.706 30.7553 38.7649V38.3523C30.6784 38.313 30.563 38.313 30.4285 38.313C30.1786 38.313 29.9863 38.3916 29.8326 38.5488C29.6403 38.7256 29.5442 38.9614 29.5442 39.2954V39.7669H29.0636V40.1599H29.5442L29.5634 42.5962ZM31.4088 41.8103C31.4088 42.3604 31.6587 42.6551 32.1393 42.6551C32.3123 42.6551 32.4469 42.6355 32.5622 42.5569V42.164C32.4853 42.2229 32.3892 42.2622 32.2739 42.2622C32.1201 42.2622 32.024 42.2229 31.9471 42.1443C31.8894 42.0657 31.851 41.9282 31.851 41.7317V40.1206H32.5622V39.7276H31.851V38.8828C31.6972 38.9417 31.5434 38.981 31.4088 39.0203V39.708H30.9283V40.1009H31.4088V41.8103ZM79.5626 47.0955C79.4088 46.958 79.2358 46.8794 79.0051 46.8794C78.7744 46.8794 78.5822 46.958 78.4476 47.1152C78.2938 47.2724 78.2169 47.4688 78.2169 47.685C78.2169 47.9207 78.2938 48.0976 78.4476 48.2547C78.6014 48.3923 78.7936 48.4709 79.0051 48.4709C79.2358 48.4709 79.4088 48.3923 79.5626 48.2351C79.7163 48.0779 79.7932 47.9011 79.7932 47.6653C79.8124 47.4295 79.7163 47.2331 79.5626 47.0955ZM79.5049 48.1761C79.3703 48.3137 79.2165 48.3726 79.0051 48.3726C78.8129 48.3726 78.6398 48.3137 78.5053 48.1761C78.3707 48.0386 78.2938 47.8618 78.2938 47.6653C78.2938 47.4688 78.3515 47.292 78.4861 47.1545C78.6206 47.0169 78.7744 46.958 78.9859 46.958C79.1781 46.958 79.3511 47.0169 79.4857 47.1545C79.6202 47.292 79.6971 47.4688 79.6971 47.6653C79.6971 47.8618 79.6394 48.0386 79.5049 48.1761ZM79.1012 47.7046C79.1781 47.685 79.2358 47.6457 79.2934 47.6064C79.3319 47.5671 79.3511 47.4885 79.3511 47.4295C79.3511 47.3509 79.3319 47.292 79.2742 47.2331C79.2165 47.1741 79.1204 47.1545 78.9859 47.1545H78.6975V48.1761H78.8321V47.7439H78.9282C78.9859 47.7439 79.0435 47.8028 79.1012 47.9207L79.2165 48.1761H79.3895L79.255 47.9011C79.1973 47.7832 79.1396 47.7243 79.1012 47.7046ZM79.0051 47.6064H78.8513V47.2724H78.9859C79.082 47.2724 79.1396 47.292 79.1781 47.3117C79.2165 47.3313 79.2165 47.3706 79.2165 47.4492C79.1973 47.5671 79.1396 47.6064 79.0051 47.6064ZM53.9575 39.6098H54.092V38.5881H54.4188V38.4505H53.6307V38.5881H53.9575V39.6098ZM54.7072 38.8435V38.6077C54.7072 38.6667 54.7264 38.706 54.7456 38.7256L55.1301 39.6098H55.1877L55.5722 38.7256C55.5914 38.706 55.5914 38.6667 55.6106 38.6077V39.6098H55.7452V38.4505H55.5914L55.2454 39.2561C55.2454 39.2757 55.207 39.3347 55.1877 39.4133H55.1685C55.1685 39.374 55.1493 39.3347 55.1108 39.2757L54.7648 38.4702H54.5918V39.6294H54.7264L54.7072 38.8435Z" fill="#231F1F"/>
<defs>
<linearGradient id="paint0_linear_242_1031" x1="40.7305" y1="35.6397" x2="43.5634" y2="34.002" gradientUnits="userSpaceOnUse">
<stop stop-color="#909CA9"/>
<stop offset="1" stop-color="#EDEDEE"/>
</linearGradient>
<linearGradient id="paint1_linear_242_1031" x1="40.7933" y1="3.75999" x2="43.0475" y2="3.75999" gradientUnits="userSpaceOnUse">
<stop stop-color="#939FAB"/>
<stop offset="1" stop-color="#DCDEE1"/>
</linearGradient>
<radialGradient id="paint2_radial_242_1031" cx="0" cy="0" r="1" gradientUnits="userSpaceOnUse" gradientTransform="translate(52.1579 14.3126) rotate(-171.272) scale(2.90775 5.93959)">
<stop stop-color="#EE352C"/>
<stop offset="1" stop-color="#A91D22"/>
</radialGradient>
</defs>
</svg>
