<svg width="90" height="90" viewBox="0 0 90 90" fill="none" xmlns="http://www.w3.org/2000/svg">
<path d="M45.344 6.85593L47.0575 10.0742C47.4427 10.6682 47.8603 11.1938 48.3499 11.6833C49.7898 13.1053 51.1326 14.6244 52.3673 16.23C55.2688 20.0386 57.2271 24.272 58.6239 28.851C59.4626 31.6445 59.9162 34.5172 59.9522 37.4151C60.0926 46.0872 57.1191 53.5317 51.129 59.7198C50.157 60.699 49.1023 61.6025 47.9791 62.4089C47.3851 62.4089 47.1043 61.9553 46.8595 61.5341C46.4132 60.7566 46.118 59.9034 45.9848 59.0178C45.7724 57.9667 45.6356 56.9191 45.704 55.8392V55.3496C45.6572 55.238 45.1352 7.10432 45.344 6.85593Z" fill="#599636"/>
<path d="M45.3434 6.75154C45.275 6.61115 45.203 6.71554 45.131 6.78754C45.167 7.48951 44.9186 8.11589 44.537 8.71346C44.1158 9.30744 43.5578 9.76462 42.9963 10.2542C39.8896 12.9433 37.4417 16.1976 35.4834 19.8334C32.8735 24.7256 31.5307 29.9706 31.1527 35.4964C30.9799 37.4871 31.7827 44.514 32.4127 46.5408C34.1262 51.9261 37.2005 56.4368 41.1891 60.3498C42.1683 61.293 43.2158 62.1677 44.2958 63.0101C44.6126 63.0101 44.645 62.7293 44.717 62.5205C44.8574 62.0741 44.9618 61.6205 45.0338 61.1598L45.7357 55.9184L45.3434 6.75154Z" fill="#6CAC48"/>
<path d="M47.0577 64.5328C47.1261 63.7301 47.5112 63.0677 47.9324 62.4017C47.5112 62.2289 47.1981 61.8797 46.9533 61.4945C46.7409 61.1274 46.5681 60.7422 46.4313 60.339C45.9417 58.8738 45.8373 57.3295 45.6969 55.832V54.9248C45.5241 55.0652 45.4845 56.2532 45.4845 56.4295C45.3837 58.0171 45.1713 59.5902 44.8545 61.149C44.7501 61.7789 44.6818 62.4089 44.293 62.9669C44.293 63.0353 44.293 63.1073 44.329 63.2117C44.9589 65.0656 45.1317 66.9519 45.2361 68.8778V69.5798C45.2361 70.4186 45.2001 70.2422 45.8985 70.523C46.1793 70.6274 46.4925 70.6634 46.7733 70.8722C46.9857 70.8722 47.0181 70.6994 47.0181 70.5554L46.9137 69.3998V66.1816C46.8813 65.62 46.9857 65.062 47.0577 64.5328Z" fill="#C2BFBF"/>
<path d="M17.255 80.1508V81.7057C17.255 81.7682 17.255 81.8307 17.266 81.8895C17.2844 82.0733 17.3983 82.1873 17.5637 82.2387C17.7181 82.2792 17.8762 82.3086 18.0342 82.3306C18.1262 82.3417 18.1556 82.3821 18.1666 82.4814C18.1776 82.8305 18.1482 82.871 17.81 82.8489C17.0234 82.8085 16.2331 82.7975 15.4464 82.8489H15.3729C15.1266 82.86 15.1082 82.8379 15.1082 82.5916C15.1082 82.5512 15.1193 82.4997 15.1193 82.4593C15.1193 82.3858 15.1707 82.3454 15.2406 82.3454C15.406 82.327 15.5567 82.2829 15.7111 82.2534C15.9243 82.202 16.0493 82.0697 16.0676 81.8528C16.0971 81.6175 16.0971 81.3712 16.0971 81.136L16.1081 78.3938C16.1154 78.232 16.0272 78.0813 15.8838 78.0041C15.7001 77.9012 15.5015 77.8203 15.2994 77.7578C15.2369 77.7395 15.1781 77.7284 15.1266 77.6953C14.9759 77.6218 14.9722 77.4895 15.1156 77.4086C15.1671 77.3792 15.2295 77.3571 15.2884 77.3461C15.9087 77.2543 16.5183 77.1004 17.1079 76.8866C17.2292 76.8462 17.2623 76.8572 17.2733 76.9785C17.2844 77.052 17.2733 77.144 17.2623 77.2138C17.2439 77.3461 17.2439 77.4785 17.2439 77.6034C17.2439 77.6549 17.255 77.7064 17.3064 77.7358C17.3579 77.7651 17.4094 77.7358 17.4571 77.7064C17.6703 77.5409 17.8872 77.3902 18.1225 77.2579C18.4607 77.0741 18.8172 76.9087 19.2069 76.8572C19.6774 76.7947 20.0854 76.9197 20.4456 77.2248C20.5927 77.3571 20.725 77.5079 20.8353 77.6733C20.9382 77.824 20.9492 77.8277 21.0816 77.7248C21.4712 77.438 21.8793 77.1844 22.3203 76.9969C22.7798 76.8021 23.2503 76.7727 23.7209 76.9344C24.2024 77.1072 24.5296 77.4454 24.7244 77.9049C24.8898 78.2724 24.9597 78.6547 24.9597 79.0518V81.794C24.9597 81.9778 25.0332 82.0917 25.217 82.1836C25.4118 82.2571 25.625 82.2975 25.8308 82.338C25.9631 82.3674 25.9631 82.3674 25.9631 82.5034C25.9448 82.8416 25.9117 82.86 25.5846 82.8416C24.7643 82.7938 23.942 82.7938 23.1217 82.8416C22.9563 82.8526 22.9563 82.8526 22.9489 82.6872V82.6357C22.9379 82.36 22.9379 82.36 23.2062 82.2975L23.4709 82.224C23.6547 82.1799 23.787 82.0145 23.787 81.8234L23.8164 81.0551L23.7981 79.0518C23.7907 78.8716 23.754 78.6952 23.6841 78.5298C23.4268 77.9049 22.8644 77.6806 22.324 77.7431C21.916 77.7835 21.5558 77.949 21.2176 78.1842C21.1441 78.2357 21.0963 78.2982 21.1036 78.3974C21.1955 79.0517 21.133 79.706 21.1441 80.3604V81.7829C21.1441 82.0403 21.247 82.1615 21.4932 82.224L21.9638 82.327C22.0373 82.338 22.0778 82.3674 22.0778 82.4483V82.5218C22.0667 82.8085 22.0483 82.8195 21.7616 82.8195C20.9419 82.7791 20.1258 82.7901 19.3171 82.8195C19.0415 82.8306 19.0194 82.8012 19.0304 82.5218C19.0415 82.3564 19.0598 82.349 19.2142 82.3159L19.5524 82.2534C19.8502 82.1909 19.9604 82.0807 19.9825 81.7609L20.0119 81.0735L19.9935 79.0187C19.9751 78.7613 19.92 78.5187 19.7803 78.2835C19.5744 77.9049 19.2546 77.71 18.8172 77.6917C18.3761 77.6623 17.9902 77.824 17.6189 78.0298C17.3615 78.1806 17.2513 78.357 17.2697 78.6548V80.1472L17.255 80.1508ZM36.5277 80.2133V81.6543C36.5277 81.7572 36.5351 81.8601 36.5461 81.9594C36.5534 82.099 36.6563 82.2167 36.7924 82.2461C36.9688 82.2976 37.1489 82.327 37.3327 82.338C37.4357 82.349 37.454 82.3895 37.4651 82.4703V82.5438C37.454 82.9004 37.4136 82.9445 37.0644 82.9225C36.2851 82.871 35.5095 82.882 34.7338 82.9225L34.4361 82.9335C34.3736 82.9335 34.3626 82.9041 34.3442 82.86C34.3148 82.7181 34.3148 82.5718 34.3442 82.4299C34.3552 82.3674 34.3957 82.3564 34.4582 82.338C34.6089 82.3196 34.7339 82.2865 34.8772 82.2645C35.1345 82.202 35.2264 82.099 35.2338 81.8344L35.2632 80.9742V78.4562C35.2632 78.2724 35.1897 78.1585 35.0279 78.0776C34.8441 77.9747 34.6493 77.9049 34.4435 77.8313C34.381 77.813 34.3222 77.7909 34.2707 77.7578C34.1384 77.6659 34.12 77.5336 34.2523 77.4307C34.3111 77.3829 34.381 77.3535 34.4582 77.3498C35.1125 77.2469 35.7484 77.1035 36.3623 76.8572C36.4358 76.8278 36.4652 76.8462 36.4946 76.9087C36.524 76.9712 36.5351 77.041 36.524 77.1145L36.4946 77.5961C36.4946 77.6586 36.4652 77.7468 36.513 77.7689C36.5755 77.8093 36.616 77.7174 36.6674 77.6953C36.9688 77.4416 37.3026 77.229 37.6599 77.0631C37.976 76.9124 38.3032 76.8168 38.6708 76.8389C39.3581 76.8793 39.847 77.2285 40.1632 77.8313C40.3286 78.1475 40.3984 78.4967 40.4278 78.8532L40.4573 79.6031L40.4683 81.8638C40.4793 82.0366 40.5418 82.1505 40.7146 82.213C40.8945 82.2718 41.0789 82.3161 41.2659 82.3454C41.4313 82.3637 41.4387 82.3968 41.4497 82.5512V82.6027C41.4314 82.9519 41.4093 82.9592 41.0601 82.9408C40.2973 82.9004 39.5328 82.9004 38.77 82.9408C38.667 82.9519 38.5642 82.9408 38.4723 82.9519C38.4098 82.9519 38.3693 82.9408 38.3583 82.8783C38.3399 82.746 38.3179 82.6137 38.3473 82.4703C38.3583 82.4078 38.3877 82.3784 38.4612 82.3674L38.9317 82.2939C39.0972 82.2534 39.1891 82.1432 39.2074 81.9962L39.2258 81.7094L39.2148 79.57C39.2148 79.3238 39.2037 79.0775 39.1523 78.8349C39.031 78.3092 38.6303 77.9379 38.09 77.8828C37.6194 77.8313 37.193 77.9563 36.7997 78.2099C36.6049 78.3313 36.524 78.5077 36.524 78.7209V80.2648C36.524 80.2354 36.524 80.2354 36.5351 80.2354L36.5277 80.2133Z" fill="#47474A"/>
<path d="M66.4829 77.3204C66.3689 76.5742 66.0932 75.9089 65.6117 75.3244C65.1926 74.8098 64.6522 74.4091 64.0347 74.1591C63.3914 73.8945 62.704 73.8099 62.0093 73.7916C61.7226 73.7805 57.8151 73.843 57.5284 73.7916C57.4548 73.7805 57.4071 73.8026 57.363 73.8651C57.3115 73.9386 57.26 74.0194 57.2306 74.1003C57.1093 74.376 57.1093 74.3576 57.4034 74.398C57.6497 74.4385 57.8849 74.4605 58.1202 74.5304C58.3334 74.6039 58.4878 74.7252 58.5392 74.9605C58.5576 75.0744 58.5797 78.6731 58.5797 80.3493L58.5393 81.5477C58.5282 81.6396 58.5209 81.7315 58.4878 81.8123C58.4473 81.9337 58.3738 82.0366 58.2525 82.088C58.1165 82.1505 57.9732 82.191 57.8225 82.202C57.5467 82.2314 57.5063 82.2424 57.4144 82.5512L57.385 82.6652C57.3666 82.7975 57.374 82.8195 57.5063 82.8195L60.5646 82.8489L61.763 82.8306L62.5901 82.7276C63.5311 82.5549 64.3692 82.1652 65.086 81.5403C65.494 81.1801 65.8285 80.7427 66.0675 80.2501C66.3542 79.6766 66.4755 79.0517 66.5086 78.4195C66.5637 78.0555 66.5454 77.688 66.4829 77.3204ZM65.0015 78.7724C64.961 79.4267 64.8287 80.0626 64.4905 80.6324C64.0604 81.3786 63.4466 81.9006 62.5974 82.0844C62.2298 82.1579 61.8622 82.1983 61.4763 82.1468C61.2006 82.1174 60.9359 82.0844 60.6786 81.9924C60.2191 81.827 60.0537 81.544 60.0464 81.0956L60.0353 74.9274C60.0353 74.5598 60.2007 74.4789 60.4654 74.4679C60.8661 74.4385 61.2741 74.4495 61.6711 74.4862C62.0975 74.5267 62.5129 74.6296 62.9099 74.784C63.204 74.9053 63.476 75.0744 63.7186 75.2839C64.27 75.7544 64.6376 76.3463 64.8397 77.041C65.0051 77.6034 65.0345 78.1769 65.0051 78.7503L65.0015 78.7724ZM74.9852 79.7759C74.9852 79.7134 74.9852 79.6619 74.9742 79.6031C74.8823 79.0407 74.5845 78.6106 74.125 78.2835C73.8273 78.0703 73.4928 77.9269 73.1436 77.824C73.0811 77.8056 73.0296 77.7835 72.9708 77.7725C72.9818 77.721 73.0112 77.71 73.0443 77.699C73.2502 77.5961 73.445 77.4858 73.6178 77.3314C73.9339 77.0668 74.1434 76.7396 74.25 76.339C74.3125 76.1257 74.3125 75.9088 74.2905 75.6846C74.2574 75.1516 73.9817 74.6627 73.5442 74.3539C73.0737 74.0047 72.5224 73.8614 71.9489 73.854C70.8425 73.8356 69.7287 73.854 68.6259 73.854C68.3098 73.854 67.9937 73.8724 67.6628 73.8246C67.6003 73.8136 67.5121 73.7952 67.468 73.8651C67.3945 73.9974 67.3026 74.1297 67.2732 74.2841C67.2621 74.3576 67.2842 74.3981 67.3651 74.4054L68.0708 74.5083C68.3465 74.5488 68.5413 74.7031 68.5634 74.9494C68.5818 75.1185 68.5928 75.2913 68.5928 75.4604L68.5745 77.3719L68.5634 81.1544C68.5634 81.3786 68.534 81.5955 68.4899 81.8197C68.4678 81.9667 68.3649 82.0844 68.2252 82.1248C68.0194 82.1873 67.8246 82.2461 67.6114 82.2461C67.4937 82.2351 67.3835 82.3086 67.3467 82.4189C67.3063 82.5108 67.2732 82.6137 67.2548 82.7056C67.2364 82.8269 67.2658 82.871 67.3871 82.8563C67.479 82.8453 70.8535 82.9298 71.4894 82.8673C71.868 82.8269 72.2393 82.7754 72.6143 82.6615C73.2575 82.4556 73.853 82.1615 74.3235 81.6579C74.7132 81.2499 74.9374 80.7573 74.9558 80.1839C74.9852 80.0516 74.9852 79.9193 74.9852 79.7759ZM70.0228 75.5817L70.0522 74.762C70.0522 74.6076 70.1146 74.5377 70.2653 74.5046C70.5117 74.4532 70.7579 74.4752 71.0006 74.4863C71.2468 74.5046 71.4821 74.5378 71.7284 74.6076C72.1768 74.7399 72.526 74.9972 72.7319 75.4273C72.8238 75.6221 72.8752 75.8353 72.8752 76.0522C72.8863 76.3389 72.8642 76.6146 72.7539 76.8903C72.5811 77.2689 72.3055 77.5152 71.9048 77.5851C71.5041 77.6586 70.372 77.6255 70.1955 77.6255C70.0411 77.6255 70.0301 77.6071 70.0301 77.4527V76.4896C70.0044 76.1919 70.0044 75.8905 70.0191 75.589L70.0228 75.5817ZM73.3458 81.0845C73.173 81.544 72.8532 81.8638 72.4047 82.0366C72.1584 82.1285 71.9121 82.1873 71.6549 82.1689C71.3387 82.1579 71.0226 82.1689 70.7028 82.1064C70.2727 82.0145 70.0779 81.6065 70.0485 81.3087C69.997 80.7867 70.0301 80.2538 70.0191 79.8678V78.5187C70.0191 78.3533 70.0374 78.3055 70.2139 78.3055L71.177 78.3166L71.8313 78.3901C72.2908 78.493 72.7098 78.6658 73.037 79.0223C73.3016 79.309 73.445 79.6546 73.4781 80.0332C73.5075 80.3898 73.4891 80.739 73.3568 81.0772L73.3458 81.0845Z" fill="#C2BFBF"/>
<path d="M47.3571 78.0041L47.6218 78.0445C47.9085 78.0556 48.2467 77.9527 48.3496 77.552C48.4047 77.361 48.4047 77.1584 48.3496 76.9675C48.2871 76.9675 48.2577 77.019 48.2283 77.041C48.0739 77.1623 47.9011 77.2359 47.7174 77.2542C47.3498 77.2947 46.9822 77.2726 46.6219 77.1403L46.122 76.9675C45.7728 76.8535 45.4052 76.8058 45.0376 76.8241C44.5157 76.8646 44.0268 77.0374 43.5636 77.2836C43.071 77.5483 42.7255 77.949 42.5601 78.4893C42.4682 78.8055 42.4571 79.1326 42.4976 79.4598C42.6005 80.206 42.9902 80.7279 43.6849 81.0036C43.7253 81.0147 43.7584 81.033 43.7989 81.0441C43.8908 81.0955 43.9018 81.147 43.8172 81.2169L43.5599 81.3896L42.9461 81.7682C42.7917 81.8601 42.7733 81.9336 42.8247 82.0954C42.8872 82.2865 42.9975 82.4556 43.1519 82.5879C43.2916 82.7092 43.4496 82.8048 43.6224 82.8747C43.7364 82.9261 43.7364 82.9482 43.6334 83.0401L43.049 83.4591C42.8542 83.6099 42.6593 83.7569 42.4976 83.9517C42.3838 84.0726 42.3018 84.2198 42.2588 84.3802C42.2158 84.5406 42.2133 84.7091 42.2513 84.8707C42.3285 85.2272 42.5123 85.5471 42.7843 85.7896C43.0498 86.0368 43.3735 86.2126 43.7253 86.3006C44.2988 86.466 44.8906 86.4734 45.4751 86.3631C46.3132 86.2087 47.0483 85.8375 47.6218 85.2089C48.0225 84.7898 48.254 84.2973 48.2761 83.7128C48.3239 83.0107 47.8534 82.3821 47.1697 82.2204L46.6183 82.1174L44.931 81.9667C44.7472 81.9557 44.5635 81.9263 44.409 81.8344C44.2142 81.7131 44.1628 81.4778 44.2877 81.3234C44.3797 81.2095 44.4936 81.1396 44.6369 81.1286L44.9641 81.0992C45.6106 81.0335 46.2177 80.7571 46.6918 80.3126C46.945 80.0777 47.126 79.7755 47.2138 79.4414C47.3351 79.0003 47.3351 78.5445 47.2321 78.096C47.2027 77.9821 47.2138 77.9747 47.3534 77.993L47.3571 78.0041ZM44.8502 83.0989C44.9127 83.1099 44.9715 83.0989 45.034 83.0989C45.464 83.1173 45.9051 83.1504 46.3242 83.2643C46.4602 83.3047 46.5962 83.3562 46.7249 83.4187C47.1329 83.6429 47.2873 84.0326 47.2358 84.4516C47.1733 84.9111 46.9197 85.2383 46.519 85.4551C46.2544 85.6059 45.9566 85.6684 45.6479 85.7015C45.5339 85.7125 45.4346 85.7015 45.3207 85.7015C44.9641 85.7125 44.6149 85.672 44.2767 85.5287C44.0415 85.4368 43.8466 85.3044 43.6739 85.1207C43.3173 84.7641 43.1482 84.1098 43.6849 83.5768C44.012 83.2717 44.3797 83.0585 44.8502 83.0989ZM46.0191 79.9082C45.8059 80.4486 45.3317 80.614 44.8648 80.5405C44.4348 80.478 44.1187 80.2427 43.9128 79.8531C43.6481 79.3311 43.5746 78.7908 43.729 78.2283C43.843 77.8093 44.0966 77.4932 44.5487 77.4196C45.1222 77.3167 45.6699 77.5226 45.9603 78.096C46.111 78.3717 46.1735 78.7099 46.1735 79.1914C46.1625 79.3862 46.122 79.6509 46.0191 79.9082ZM33.1314 79.2098C33.0395 78.6584 32.8337 78.1548 32.455 77.7358C31.8926 77.1108 31.1758 76.8389 30.3671 76.8351C29.6614 76.8241 28.996 77.03 28.4042 77.3976C27.8197 77.7468 27.3933 78.3055 27.2058 78.9635C27.0331 79.5553 27.0404 80.1618 27.1765 80.7647C27.533 82.3821 28.7828 83.0768 30.2752 82.9739C30.7163 82.9445 31.1354 82.8012 31.5324 82.6063C32.1242 82.3307 32.5543 81.8895 32.852 81.3087C33.0873 80.8272 33.1902 80.3162 33.1792 79.7318L33.1314 79.2098ZM31.6794 81.4815C31.5287 81.952 31.117 82.2902 30.6244 82.3417C30.176 82.4042 29.7533 82.2902 29.3783 82.0255C29.1063 81.8234 28.8857 81.5624 28.735 81.2573C28.316 80.3971 28.2424 79.5002 28.4593 78.5776C28.5292 78.2908 28.6762 78.0335 28.8894 77.8313C29.268 77.4821 29.7091 77.4013 30.198 77.5042C30.6685 77.6071 31.0251 77.8607 31.3192 78.2504C31.6132 78.64 31.7492 79.0885 31.8301 79.559C31.8706 79.7943 31.8706 80.0405 31.8816 80.1913C31.8816 80.6838 31.8411 81.0882 31.6868 81.4815H31.6794ZM55.4809 79.2944C55.4074 78.7025 55.1831 78.1585 54.7641 77.7101C54.2127 77.1072 53.4959 76.8499 52.6982 76.8389C52.0108 76.8278 51.3786 77.0226 50.7941 77.3608C50.1398 77.7504 49.6876 78.3018 49.5149 79.0481C49.309 79.8641 49.3936 80.7243 49.7612 81.4815C50.0993 82.1983 50.6728 82.6578 51.4301 82.8636C52.2681 83.0879 53.0658 82.985 53.8451 82.6063C54.5215 82.2792 54.9993 81.7682 55.2787 81.0735C55.4441 80.6655 55.5029 80.2243 55.5139 79.7134C55.5213 79.6215 55.4993 79.4561 55.4809 79.2944ZM54.0693 81.3492C53.9039 81.9005 53.5584 82.2608 52.9739 82.3416C52.5438 82.4042 52.1358 82.3012 51.7682 82.0549C51.4521 81.8418 51.2278 81.555 51.0624 81.2168C50.8786 80.8603 50.7757 80.4817 50.7353 80.092C50.6728 79.6105 50.6728 79.14 50.7868 78.6584C50.8088 78.5628 50.8382 78.4709 50.8786 78.3827C51.1654 77.6659 51.7976 77.3388 52.5475 77.5042C53.0474 77.6181 53.426 77.8938 53.7128 78.3129C53.9884 78.7209 54.1208 79.173 54.1833 79.6583C54.2127 79.8531 54.2237 80.0589 54.2127 80.2317C54.2127 80.6324 54.1833 80.9999 54.062 81.3565L54.0693 81.3492Z" fill="#47474A"/>
</svg>
