<svg width="89" height="90" viewBox="0 0 89 90" fill="none" xmlns="http://www.w3.org/2000/svg">
<path fill-rule="evenodd" clip-rule="evenodd" d="M3.92676 59.8707H6.62553V49.121L10.787 58.4956C11.2811 59.6199 11.9409 60.0159 13.2591 60.0159C14.5778 60.0159 15.2371 59.6199 15.7312 58.4956L19.8927 49.121V59.8707H22.5707V49.1415C22.5707 48.1003 22.1584 47.5993 21.3139 47.3285C19.2744 46.6827 17.8939 47.2454 17.2761 48.6414L13.1972 57.8704L9.24212 48.6414C8.64465 47.2454 7.24378 46.6827 5.20435 47.3285C4.33908 47.5993 3.92722 48.0998 3.92722 49.1415V59.8707H3.92676ZM24.8161 51.1203H27.4941V57.037C27.4737 57.3699 27.597 58.1202 29.0805 58.1412C29.8221 58.1613 34.8692 58.1412 34.9103 58.1412V51.0993H37.609C37.6293 51.0993 37.609 60.7027 37.609 60.7447C37.6293 63.1194 34.7043 63.619 33.3653 63.6611H24.8779V61.828C24.8779 61.828 33.345 61.849 33.3653 61.828C35.0959 61.6613 34.8899 60.7867 34.8899 60.4949V59.7862H29.1835C26.5258 59.7451 24.8364 58.5778 24.8161 57.2237C24.8161 57.0991 24.8779 51.1833 24.8161 51.1203ZM82.6839 44.308C81.0364 44.2665 79.7792 44.4122 78.6872 44.8912C78.3788 45.0163 77.9046 45.0163 77.8432 45.4123C78.008 45.578 78.0486 45.8493 78.1724 46.079C78.4402 46.496 78.8733 47.0577 79.2643 47.3495C79.6767 47.6833 80.1093 48.0162 80.5623 48.3081C81.3864 48.8077 82.2928 49.0785 83.0546 49.5795C83.5288 49.8704 83.9818 50.2462 84.4352 50.5791C84.6407 50.7458 84.806 50.9961 85.0738 51.0997V51.0586C84.9297 50.8709 84.8881 50.6001 84.7644 50.391L84.1466 49.7662C83.5496 48.9748 82.7868 48.266 81.983 47.6833C81.3444 47.2248 79.9025 46.5791 79.6347 45.8292C79.6139 45.8082 79.5931 45.8082 79.5931 45.7872C80.0465 45.7242 80.5826 45.5584 80.9944 45.4534C81.6953 45.2666 82.3334 45.3077 83.0542 45.1205C83.3843 45.0159 83.7135 44.9328 84.0436 44.8286V44.6409C83.6729 44.266 83.4259 43.7454 83.014 43.412C81.9636 42.4955 80.8093 41.5995 79.6351 40.8496C78.9758 40.4121 78.1724 40.1413 77.4724 39.7874C77.2452 39.6833 76.8329 39.6207 76.669 39.4125C76.2973 38.954 76.1126 38.3498 75.824 37.8082C75.2197 36.62 74.6563 35.4109 74.1351 34.1831C73.7851 33.3706 73.5371 32.5582 73.1054 31.8079C70.9626 28.2664 68.6756 26.1209 65.1121 24.0165C64.3502 23.579 63.4438 23.3918 62.4752 23.1625C61.9603 23.1205 61.4455 23.1 60.9302 23.058C60.6209 22.9328 60.2917 22.5374 59.9823 22.3497C58.8081 21.5998 55.7797 19.9539 54.914 22.1204C54.3576 23.4744 55.7381 24.8079 56.2322 25.4957C56.5831 25.9748 57.0148 26.5168 57.2628 27.058C57.4267 27.4119 57.4474 27.7663 57.592 28.1412C57.942 29.0788 58.2305 30.0995 58.6632 30.9534C58.8894 31.3909 59.1364 31.8494 59.425 32.2454C59.5898 32.4746 59.8992 32.5788 59.9398 32.9537C59.6513 33.3702 59.6314 33.9954 59.4666 34.516C58.7454 36.8701 59.0132 39.7659 60.0844 41.5154C60.4145 42.036 61.1763 43.1818 62.248 42.7448C63.1751 42.3489 62.9687 41.1821 63.2365 40.1198C63.2989 39.8906 63.2573 39.7239 63.3806 39.5572V39.5988C63.6484 40.1819 63.937 40.7446 64.2255 41.3067C64.8433 42.3279 65.9561 43.4111 66.904 44.1189C67.3773 44.4939 67.7688 45.1401 68.4074 45.3478V45.3058H68.346C68.2222 45.1191 68.0366 45.0355 67.8926 44.8893C67.5218 44.5144 67.1099 44.0559 66.8006 43.6394C65.9565 42.4726 65.1942 41.1811 64.4938 39.8476C64.1637 39.2019 63.8751 38.4936 63.6082 37.8478C63.5043 37.5981 63.5043 37.2231 63.2781 37.077C62.9687 37.556 62.537 37.952 62.2886 38.5146C61.9179 39.4106 61.8564 40.5144 61.7332 41.6396C61.6501 41.6812 61.6708 41.6602 61.6293 41.7022C60.9709 41.5355 60.7437 40.8478 60.4967 40.2646C59.8997 38.7854 59.7755 36.4107 60.3111 34.7023C60.4551 34.2648 61.0946 32.8897 60.8268 32.4732C60.7021 32.0773 60.3111 31.8275 60.0848 31.5151C59.7962 31.1402 59.5284 30.6401 59.323 30.2026C58.8289 29.0358 58.6018 27.7443 58.0657 26.578C57.7979 26.0154 57.3865 25.4527 57.036 24.9737C56.6445 24.4111 56.2119 24.0156 55.9034 23.3488C55.8005 23.1196 55.6564 22.7447 55.8005 22.4944C55.8619 22.3277 55.9242 22.2651 56.0881 22.2026C56.3559 21.9943 57.1187 22.2862 57.4064 22.3898C58.1483 22.7232 58.7869 23.015 59.4255 23.4525C59.7348 23.6607 60.0442 24.0562 60.4149 24.1608H60.8273C61.4866 24.3065 62.2277 24.2024 62.8455 24.3901C63.9374 24.723 64.926 25.244 65.8125 25.8277C68.5316 27.5567 70.7363 30.0149 72.2605 32.9523C72.5075 33.4313 72.6104 33.8688 72.8168 34.3689C73.2499 35.39 73.8054 36.4312 74.238 37.4104C74.6503 38.4105 75.083 39.4106 75.68 40.2226C76.0101 40.6601 77.2457 40.8893 77.8021 41.1181C78.1936 41.2848 78.8317 41.472 79.2034 41.7017C79.9241 42.1182 80.6038 42.6393 81.2839 43.1183C81.6127 43.3499 82.6423 43.8705 82.6839 44.308Z" fill="#00678C"/>
<path fill-rule="evenodd" clip-rule="evenodd" d="M61.6712 26.205C61.3867 26.205 61.1033 26.2402 60.8271 26.3095V26.3511H60.8886C61.0534 26.6845 61.342 26.9137 61.5479 27.2051C61.692 27.5385 61.8573 27.8718 62.0013 28.2052L62.0627 28.1426C62.3513 27.9554 62.475 27.622 62.475 27.1014C62.3721 26.9763 62.3513 26.8306 62.2488 26.6845C62.1043 26.4758 61.8572 26.3716 61.6712 26.205Z" fill="#00678C"/>
<path fill-rule="evenodd" clip-rule="evenodd" d="M39.6904 59.8707H47.4155C48.3219 59.8707 49.2075 59.683 49.9079 59.3491C51.0613 58.8084 51.6385 58.0787 51.6385 57.1206V55.1208C51.6385 54.3504 50.9791 53.6005 49.7232 53.121C49.0431 52.8502 48.2189 52.7251 47.4155 52.7251H44.1608C43.0689 52.7251 42.554 52.3912 42.4303 51.6628C42.4095 51.5797 42.4095 51.4961 42.4095 51.413V50.1837C42.4095 50.1005 42.4095 50.038 42.4303 49.9549C42.554 49.3922 42.8422 49.2256 43.7901 49.1424C43.8723 49.1424 43.9752 49.1214 44.0579 49.1214H51.7419V47.3093H44.1816C43.0896 47.3093 42.5333 47.3925 42.0184 47.5381C40.4116 48.0587 39.7112 48.8506 39.7112 50.2467V51.83C39.7112 53.0594 41.0913 54.1006 43.3782 54.3504C43.646 54.3504 43.893 54.3714 44.1608 54.3714H46.9423C47.0452 54.3714 47.1477 54.3714 47.2299 54.3924C48.0956 54.4755 48.4456 54.6212 48.7134 54.9331C48.8575 55.0998 48.9198 55.2459 48.9198 55.4336V57.0169C48.9198 57.2046 48.7961 57.4549 48.5283 57.6626C48.3011 57.8714 47.9096 57.9965 47.3948 58.0376C47.2918 58.0376 47.2101 58.0586 47.1062 58.0586H39.6904V59.8707ZM68.4078 56.7031C68.4078 58.5783 69.7676 59.6195 72.549 59.8282C72.796 59.8492 73.0638 59.8702 73.3108 59.8702H80.3152V58.0572H73.2693C71.6828 58.0572 71.0858 57.6612 71.0858 56.7031V47.3084H68.4073V56.7031H68.4078ZM53.3487 56.8073V50.3499C53.3487 48.704 54.4813 47.7044 56.7474 47.3915C56.9746 47.3495 57.2424 47.3495 57.4686 47.3495H62.5771C62.8242 47.3495 63.0513 47.3495 63.3191 47.3915C65.5645 47.7044 66.7179 48.704 66.7179 50.3499V56.8073C66.7179 58.1412 66.2238 58.8491 65.1111 59.3076L67.7688 61.7243H64.6378L62.495 59.7866L60.3313 59.9118H57.4682C56.9741 59.9118 56.4588 59.8497 55.8817 59.683C54.1729 59.224 53.3487 58.3074 53.3487 56.8073ZM56.2534 56.6415C56.2534 56.7456 56.2742 56.8283 56.2949 56.9333C56.4598 57.6827 57.1597 58.0997 58.2102 58.0997H60.6624L58.417 56.0579H61.548L63.5047 57.8289C63.8557 57.6412 64.1027 57.3493 64.1849 56.9744C64.2056 56.8703 64.2056 56.7877 64.2056 56.7036V50.496C64.2056 50.433 64.2056 50.3503 64.1849 50.2663C64.02 49.5585 63.3201 49.163 62.2895 49.163H58.2106C57.0157 49.163 56.2538 49.6836 56.2538 50.496L56.2534 56.6415ZM81.5517 59.8707H81.9432V58.3705H82.4788V58.0576H81.0161V58.3705H81.5517V59.8707ZM84.5593 59.8707H84.9093V58.0576H84.3737L83.9005 59.308L83.4272 58.0576H82.8708V59.8707H83.2416V58.4956L83.7564 59.8707H84.0242L84.539 58.4956H84.5598V59.8707H84.5593Z" fill="#CE8B2C"/>
<path fill-rule="evenodd" clip-rule="evenodd" d="M5.5541 43.0166L4.0498 35.9751H4.81211L5.67738 40.5998C5.78034 41.0789 5.86299 41.5579 5.92486 42.037L6.19266 40.7245L7.28464 35.9746H8.17023L8.9944 39.5371C9.20033 40.4121 9.34439 41.2451 9.44735 42.037C9.50922 41.5789 9.61219 41.0579 9.73593 40.4957L10.6215 35.9751H11.4046L9.81858 43.0166H9.09737L7.88211 37.6625L7.6965 36.829C7.6554 37.1414 7.59353 37.4127 7.53166 37.6625L6.31594 43.0166H5.5541ZM11.8788 39.6002C11.8788 38.3918 12.1466 37.4753 12.6614 36.829C13.1767 36.1833 13.8356 35.8709 14.6187 35.8709C15.1127 35.8709 15.5869 35.9961 15.9988 36.2874C16.4106 36.5788 16.7403 36.9957 16.9878 37.5373C17.2145 38.0995 17.3382 38.7453 17.3382 39.5161C17.3382 40.5578 17.1115 41.3912 16.6373 42.0575C16.1225 42.7868 15.4428 43.1408 14.6187 43.1408C13.7737 43.1408 13.094 42.7658 12.5792 42.0365C12.105 41.3501 11.8788 40.5377 11.8788 39.6002ZM12.6614 39.6002C12.6614 40.4752 12.8466 41.1419 13.2178 41.621C13.6093 42.1 14.0623 42.3503 14.5979 42.3503C15.1543 42.3503 15.628 42.1 15.9988 41.621C16.3695 41.1419 16.5551 40.4336 16.5551 39.496C16.5551 38.8713 16.4729 38.3502 16.2666 37.8717C16.1225 37.4967 15.8958 37.2049 15.6072 36.9967C15.3225 36.779 14.9751 36.6619 14.6182 36.6633C14.041 36.6633 13.5673 36.8921 13.2173 37.3716C12.8466 37.8502 12.6614 38.6 12.6614 39.6002ZM18.2852 43.0166V35.9751H20.8191C21.334 35.9751 21.7255 36.0376 21.973 36.1833C22.2408 36.3084 22.4467 36.5167 22.5908 36.829C22.7556 37.1414 22.8383 37.4958 22.8383 37.8913C22.8383 38.4334 22.7145 38.8498 22.4264 39.1832C22.1581 39.5166 21.7671 39.7248 21.2315 39.829C21.4582 39.9541 21.6022 40.0792 21.726 40.2039C21.9527 40.4747 22.1383 40.7665 22.3234 41.0994L23.312 43.0161H22.3645L21.6022 41.5575C21.2933 40.9948 21.0874 40.5994 20.9226 40.4117C20.7785 40.2034 20.634 40.0573 20.4899 39.9947C20.3459 39.9321 20.1603 39.8906 19.9132 39.8906H19.048V43.0156H18.2852V43.0166ZM19.0475 39.0791H20.6543C21.0043 39.0791 21.2721 39.0375 21.4577 38.954C21.6429 38.8709 21.7869 38.7247 21.9107 38.558C22.0136 38.3703 22.0547 38.1411 22.0547 37.8913C22.0547 37.5374 21.9518 37.2665 21.7458 37.0583C21.5399 36.8501 21.2513 36.7459 20.8395 36.7459H19.047L19.0475 39.0791ZM24.0124 43.0166V35.9751H24.7747V39.475L27.5972 35.9751H28.6269L26.2167 38.8293L28.7299 43.0166H27.7205L25.7019 39.475L24.7747 40.5793V43.0166H24.0124ZM29.0803 40.746L29.8015 40.6834C29.8426 41.0583 29.9253 41.3707 30.0693 41.5789C30.1931 41.8082 30.399 41.9749 30.646 42.0995C30.8935 42.2452 31.1816 42.3078 31.491 42.3078C31.9439 42.3078 32.2736 42.1827 32.5211 41.9749C32.7681 41.7456 32.8918 41.4538 32.8918 41.0999C32.8918 40.8916 32.8507 40.725 32.7681 40.5583C32.6859 40.4126 32.5414 40.2875 32.3558 40.1833C32.1706 40.0792 31.7791 39.9335 31.1816 39.7669C30.646 39.6002 30.2545 39.4335 30.0278 39.2668C29.7984 39.1182 29.6133 38.9094 29.4922 38.6626C29.3684 38.4123 29.3065 38.121 29.3065 37.8086C29.3065 37.225 29.4922 36.7669 29.8421 36.4126C30.2129 36.0376 30.7074 35.8709 31.3252 35.8709C31.7371 35.8709 32.1078 35.9541 32.4375 36.1207C32.7464 36.2874 32.9939 36.5372 33.179 36.8501C33.3591 37.1967 33.4511 37.5833 33.4468 37.9748L32.7256 38.0374C32.7048 37.5794 32.5608 37.246 32.3341 37.0167C32.0866 36.7875 31.7777 36.6834 31.3455 36.6834C30.9124 36.6834 30.5832 36.7875 30.3768 36.9752C30.2651 37.0642 30.1753 37.1783 30.1145 37.3084C30.0538 37.4386 30.0238 37.5812 30.0268 37.725C30.0268 38.0169 30.1095 38.2251 30.2743 38.3918C30.4387 38.5375 30.8099 38.7042 31.3866 38.8708C31.9633 39.0165 32.3548 39.1627 32.5816 39.2668C32.932 39.454 33.1993 39.6833 33.3642 39.9751C33.5498 40.2669 33.632 40.6208 33.632 41.0168C33.6344 41.4041 33.5348 41.7851 33.3434 42.1206C33.1578 42.4539 32.9108 42.7042 32.5811 42.8704C32.2722 43.0576 31.8807 43.1412 31.4272 43.1412C30.7268 43.1412 30.1501 42.933 29.7383 42.4955C29.3264 42.058 29.1006 41.4748 29.0803 40.746ZM38.1033 43.0166L36.5995 35.9751H37.3618L38.227 40.5998C38.33 41.0789 38.4122 41.5579 38.4745 42.037L38.7423 40.7245L39.8339 35.9746H40.7199L41.5436 39.5371C41.7372 40.362 41.8885 41.1964 41.997 42.037C42.0589 41.5789 42.1619 41.0579 42.2648 40.4957L43.1712 35.9751H43.9538L42.3678 43.0166H41.6466L40.4309 37.6625L40.2457 36.829C40.2046 37.1414 40.1427 37.4127 40.0809 37.6625L38.8656 43.0166H38.1033ZM44.778 43.0166V35.9751H45.5403V43.0166H44.778ZM48.3213 43.0166V36.8085H46.4467V35.9751H50.9582V36.8085H49.0637V43.0166H48.3213ZM51.7006 43.0166V35.9751H52.4625V38.8708H55.4286V35.9751H56.1913V43.0166H55.4286V39.7043H52.4625V43.0166H51.7006Z" fill="#00678C"/>
</svg>
