<svg width="21" height="21" viewBox="0 0 21 21" fill="none" xmlns="http://www.w3.org/2000/svg">
<path d="M9.625 3.5H3.5C3.03587 3.5 2.59075 3.68437 2.26256 4.01256C1.93437 4.34075 1.75 4.78587 1.75 5.25V17.5C1.75 17.9641 1.93437 18.4092 2.26256 18.7374C2.59075 19.0656 3.03587 19.25 3.5 19.25H15.75C16.2141 19.25 16.6592 19.0656 16.9874 18.7374C17.3156 18.4092 17.5 17.9641 17.5 17.5V11.375" stroke="white" stroke-width="1.5" stroke-linecap="round" stroke-linejoin="round"/>
<path d="M16.1875 2.1875C16.5356 1.8394 17.0077 1.64384 17.5 1.64384C17.9923 1.64384 18.4644 1.8394 18.8125 2.1875C19.1606 2.5356 19.3562 3.00772 19.3562 3.5C19.3562 3.99228 19.1606 4.4644 18.8125 4.8125L10.5 13.125L7 14L7.875 10.5L16.1875 2.1875Z" stroke="white" stroke-width="1.5" stroke-linecap="round" stroke-linejoin="round"/>
</svg>
