<svg width="87" height="90" viewBox="0 0 87 90" fill="none" xmlns="http://www.w3.org/2000/svg">
<g clip-path="url(#clip0_242_1036)">
<path d="M86.6624 53.8876C86.1408 52.3028 84.7743 51.1991 83.0071 50.9342C82.1738 50.8095 81.2195 50.8626 80.0902 51.0961C78.1218 51.5035 76.6615 51.6586 75.5958 51.6886C79.6185 44.8762 82.8895 37.1077 84.7726 29.7949C87.8176 17.9702 86.1904 12.5834 84.289 10.1468C79.2569 3.69747 71.9153 0.232816 63.0583 0.126804C58.3334 0.068855 54.1856 1.00456 52.0218 1.67744C50.0072 1.32089 47.8411 1.12182 45.5682 1.085C41.3076 1.01683 37.5431 1.94844 34.3265 3.86313C32.5457 3.2591 29.6876 2.4076 26.3871 1.86424C18.6244 0.585962 12.3678 1.582 7.7915 4.82474C2.25001 8.75094 -0.318867 15.5725 0.156235 25.1C0.307126 28.1249 1.99411 37.3285 4.65033 46.057C6.17691 51.074 7.80476 55.2402 9.48868 58.441C11.8768 62.9797 14.4321 65.6525 17.3007 66.6124C18.9085 67.1496 21.8298 67.526 24.9023 64.9592C25.2918 65.4323 25.8114 65.9024 26.5009 66.339C27.3767 66.893 28.4475 67.3456 29.517 67.6139C33.3712 68.5803 36.9814 68.3386 40.0614 66.984C40.0804 67.5335 40.095 68.0584 40.1072 68.5118C40.1276 69.2471 40.148 69.968 40.1749 70.6423C40.3574 75.2011 40.6666 78.7459 41.5828 81.2261C41.6331 81.3624 41.7008 81.5704 41.7721 81.7909C42.2292 83.1946 42.9935 85.5446 44.9381 87.385C46.9517 89.2915 49.3874 89.8761 51.6181 89.8761C52.7369 89.8761 53.8043 89.7289 54.7406 89.5277C58.0778 88.8102 61.8681 87.7174 64.61 83.8014C67.2023 80.0995 68.4624 74.5238 68.6905 65.7384C68.72 65.4899 68.7472 65.2527 68.7734 65.0267L68.8278 64.5624L69.4385 64.6163L69.5958 64.6268C72.9949 64.7823 77.1512 64.0593 79.7038 62.87C81.7208 61.9312 88.1843 58.5085 86.6624 53.8876Z" fill="black"/>
<path d="M80.8505 54.7861C70.7435 56.8774 70.0486 53.4451 70.0486 53.4451C80.7197 37.5627 85.1808 17.4024 81.3314 12.4682C70.8288 -0.991256 52.6489 5.37424 52.3454 5.53923L52.2479 5.55695C50.251 5.14109 48.0165 4.89361 45.5047 4.85236C40.9318 4.77737 37.4626 6.05497 34.8302 8.05727C34.8302 8.05727 2.39892 -5.34389 3.90749 24.9115C4.2283 31.3479 13.105 73.6133 23.6925 60.8472C27.5623 56.1789 31.3016 52.2319 31.3016 52.2319C33.1585 53.4693 35.3818 54.1006 37.7124 53.8739L37.8936 53.7199C37.8371 54.2994 37.863 54.8662 37.966 55.5374C35.2384 58.594 36.0401 59.1306 30.5876 60.2565C25.0702 61.3971 28.3113 63.4273 30.4275 63.9584C32.993 64.6016 38.928 65.5131 42.9382 59.8822L42.7785 60.5248C43.8469 61.3834 44.5973 66.1093 44.4716 70.3938C44.3458 74.6779 44.2619 77.6193 45.1037 79.9168C45.9462 82.2143 46.7852 87.3837 53.9532 85.8432C59.9423 84.5558 63.0461 81.2196 63.478 75.6545C63.7842 71.6983 64.4778 72.2832 64.5213 68.746L65.0777 67.0716C65.7189 61.7086 65.1796 59.9783 68.8693 60.7831L69.7665 60.8622C72.4818 60.986 76.0366 60.4239 78.1229 59.4513C82.615 57.3604 85.2793 53.8688 80.8498 54.7861H80.8505Z" fill="#336791"/>
<path d="M36.7288 27.7898C35.818 27.6627 34.9932 27.7803 34.5759 28.0973C34.3414 28.2756 34.2687 28.4821 34.249 28.6243C34.1966 29.0009 34.4597 29.4175 34.6214 29.6322C35.0789 30.2404 35.747 30.6583 36.4083 30.7503C36.5042 30.764 36.5997 30.7701 36.6945 30.7701C37.7973 30.7701 38.8001 29.9087 38.8885 29.273C38.999 28.4767 37.8465 27.9456 36.7288 27.7898ZM66.9015 27.815C66.8145 27.1909 65.7073 27.013 64.6565 27.1595C63.607 27.3061 62.5896 27.7813 62.6745 28.4068C62.7425 28.8932 63.6183 29.7236 64.6548 29.7236C64.7425 29.7236 64.8308 29.7178 64.9199 29.7052C65.6118 29.6091 66.1195 29.1683 66.3608 28.9144C66.7278 28.5271 66.9406 28.0956 66.9015 27.815Z" fill="white"/>
<path d="M84.2142 54.5485C83.8289 53.3796 82.5884 53.0037 80.5276 53.4304C74.4087 54.6971 72.2174 53.8197 71.498 53.2883C76.2541 46.0208 80.1667 37.2358 82.2775 29.0395C83.2773 25.1569 83.8295 21.5511 83.8747 18.6121C83.9247 15.3864 83.3769 13.016 82.2472 11.5679C77.6926 5.73044 71.0079 2.59916 62.9162 2.51326C57.3533 2.45054 52.6533 3.87847 51.7422 4.28002C49.8234 3.80143 47.7317 3.5076 45.4544 3.4701C41.2784 3.40227 37.6686 4.40512 34.68 6.44935C33.3818 5.96462 30.0268 4.8094 25.9239 4.1464C18.8307 3.00106 13.194 3.86892 9.17165 6.72716C4.37203 10.138 2.15625 16.2348 2.58548 24.8481C2.72991 27.7458 4.37611 36.6604 6.97388 45.1976C10.3934 56.4342 14.1106 62.7953 18.0215 64.1039C18.4793 64.257 19.0071 64.364 19.5892 64.364C21.0159 64.364 22.7651 63.7191 24.5849 61.5245C26.8046 58.8536 29.1008 56.2476 31.4705 53.7096C33.0079 54.5373 34.697 54.9995 36.4244 55.0458C36.4278 55.0912 36.4322 55.1365 36.4363 55.1815C36.1389 55.5372 35.8478 55.898 35.5629 56.2638C34.366 57.7878 34.1169 58.1052 30.2641 58.9008C29.1681 59.1278 26.2573 59.7295 26.2145 61.7761C26.1683 64.0122 29.6554 64.9513 30.0527 65.0509C31.4372 65.3986 32.7711 65.57 34.0431 65.57C37.1367 65.57 39.8592 64.5501 42.0349 62.5768C41.9679 70.5485 42.2993 78.4036 43.2536 80.7969C44.0352 82.7563 45.9444 87.5445 51.9753 87.5442C52.8603 87.5442 53.8343 87.4409 54.9058 87.2105C61.2 85.8572 63.9334 83.0668 64.9906 76.915C65.5565 73.6273 66.5274 65.7766 66.9842 61.5654C67.948 61.8671 69.1887 62.0051 70.5301 62.0048C73.3277 62.0048 76.5559 61.4086 78.5803 60.4661C80.8546 59.4067 84.9585 56.8071 84.2142 54.5485ZM69.2251 26.0923C69.2044 27.3354 69.0338 28.4641 68.853 29.6421C68.6582 30.9092 68.4571 32.2192 68.4064 33.8093C68.3565 35.3569 68.5491 36.9658 68.7354 38.5219C69.1119 41.6648 69.4983 44.9004 68.0027 48.093C67.7542 47.6515 67.5329 47.1951 67.34 46.7265C67.1541 46.2745 66.7504 45.5484 66.1913 44.5435C64.0167 40.6316 58.9241 31.4709 61.531 27.7329C62.3076 26.6203 64.2783 25.4763 69.2251 26.0923ZM63.2289 5.03063C70.4791 5.19118 76.2143 7.9117 80.2748 13.1162C83.3891 17.1082 79.9597 35.2724 70.0319 50.9427C69.932 50.8154 69.8317 50.6885 69.7308 50.562L69.605 50.4045C72.1705 46.1548 71.6689 41.9501 71.2224 38.2223C71.0388 36.6925 70.8655 35.2475 70.9097 33.8901C70.9552 32.4516 71.1449 31.2177 71.3284 30.0246C71.5537 28.5544 71.7831 27.0331 71.7199 25.2397C71.7671 25.0516 71.7862 24.8293 71.7614 24.5655C71.5999 22.8458 69.6424 17.6989 65.6527 13.0405C63.4702 10.4925 60.2875 7.64105 55.942 5.71783C57.8111 5.32923 60.3671 4.96688 63.2289 5.03063ZM22.659 59.9183C20.6539 62.3365 19.2694 61.8729 18.814 61.7209C15.8472 60.7282 12.4046 54.4384 9.36944 44.4644C6.74312 35.8341 5.20839 27.1558 5.08673 24.7223C4.70338 17.026 6.56335 11.6623 10.6153 8.77991C17.2096 4.08947 28.0513 6.89692 32.4078 8.32075C32.3453 8.38279 32.28 8.44074 32.2182 8.5038C25.0692 15.7453 25.2388 28.1177 25.2565 28.8741C25.2558 29.1659 25.2802 29.5791 25.3135 30.1473C25.4366 32.2284 25.6656 36.1014 25.0539 40.4874C24.4857 44.5633 25.7384 48.5525 28.4901 51.4326C28.7725 51.7276 29.0693 52.0084 29.3794 52.2739C28.1546 53.5896 25.4926 56.4993 22.659 59.9183ZM30.2984 49.6945C28.0806 47.3731 27.0733 44.1443 27.5344 40.8351C28.1801 36.2019 27.9419 32.1667 27.8138 29.9987C27.7958 29.6953 27.7798 29.4294 27.7706 29.2198C28.815 28.2909 33.6547 25.69 37.1061 26.4832C38.681 26.8449 39.6407 27.9207 40.0397 29.771C42.1045 39.3506 40.3129 43.3433 38.8733 46.5519C38.5766 47.2129 38.2963 47.8377 38.057 48.484L37.8715 48.9837C37.4018 50.247 36.9647 51.4217 36.6939 52.537C34.3361 52.5302 32.0425 51.5198 30.2984 49.6941V49.6945ZM30.6603 62.6136C29.9718 62.4411 29.3526 62.1415 28.9893 61.893C29.2928 61.7498 29.8328 61.5549 30.7694 61.3612C35.3019 60.4255 36.002 59.7649 37.5306 57.8182C37.881 57.3716 38.2782 56.8658 38.8285 56.2495L38.8291 56.2488C39.6485 55.3284 40.0233 55.4846 40.703 55.7675C41.2539 55.9959 41.7905 56.6885 42.008 57.4507C42.111 57.8107 42.2266 58.4938 41.8483 59.0256C38.6551 63.5101 34.002 63.4525 30.6603 62.6136ZM54.3811 84.7541C48.8362 85.9458 46.8729 83.108 45.5791 79.8639C44.7441 77.7696 44.3336 68.3253 44.6248 57.8956C44.6286 57.7568 44.6089 57.6229 44.5708 57.4967C44.5367 57.2477 44.485 57.0014 44.4158 56.7598C43.9829 55.2422 42.9276 53.9728 41.6617 53.4465C41.1588 53.2375 40.2357 52.854 39.1265 53.1387C39.363 52.161 39.7732 51.0569 40.2181 49.8615L40.4046 49.3587C40.6147 48.7918 40.8784 48.2045 41.1571 47.5827C42.6636 44.2258 44.7268 39.6277 42.4875 29.2402C41.6488 25.3495 38.8478 23.4495 34.6018 23.8909C32.0564 24.1551 29.7274 25.1852 28.5659 25.7759C28.3161 25.9027 28.0877 26.0255 27.8743 26.1448C28.1985 22.2247 29.4233 14.8986 34.005 10.2634C36.89 7.34551 40.7319 5.90429 45.4129 5.98201C54.6363 6.13336 60.5509 10.8811 63.8889 14.8376C66.7653 18.2467 68.3228 21.681 68.9444 23.5333C64.2698 23.0564 61.0906 23.9819 59.4791 26.293C55.9729 31.3203 61.3971 41.0775 64.0041 45.7669C64.4822 46.6262 64.8948 47.369 65.0246 47.6847C65.8736 49.7483 66.9726 51.1261 67.775 52.1317C68.021 52.4399 68.2596 52.7388 68.4411 52.9999C67.0253 53.4093 64.4822 54.3552 64.714 59.0835C64.5271 61.456 63.198 72.5638 62.5227 76.4882C61.6313 81.673 59.7292 83.604 54.3811 84.7545V84.7541ZM77.5258 58.1877C76.078 58.8616 73.6553 59.3671 71.3539 59.4759C68.8119 59.5952 67.5177 59.1902 67.2132 58.941C67.0705 55.9945 68.1638 55.6867 69.3209 55.3608C69.5027 55.3097 69.6801 55.2596 69.8514 55.1996C69.9578 55.2865 70.0744 55.3727 70.2021 55.4573C72.2453 56.8099 75.8894 56.9558 81.0343 55.8905L81.0907 55.8793C80.3968 56.53 79.2094 57.4033 77.5258 58.1877Z" fill="white"/>
</g>
<defs>
<clipPath id="clip0_242_1036">
<rect width="87" height="90" fill="white"/>
</clipPath>
</defs>
</svg>
