<svg width="51" height="50" viewBox="0 0 51 50" fill="none" xmlns="http://www.w3.org/2000/svg">
<mask id="mask0_246_1338" style="mask-type:luminance" maskUnits="userSpaceOnUse" x="28" y="27" width="23" height="23">
<path d="M28.7402 27.4426H50.4995V50H28.7402V27.4426Z" fill="white"/>
</mask>
<g mask="url(#mask0_246_1338)">
<path d="M47.9995 29.9998H45.4997V28.333C45.4997 27.8748 45.1247 27.4999 44.666 27.4999C44.2078 27.4999 43.8329 27.8748 43.8329 28.333V29.9998H35.4996V28.333C35.4996 27.8748 35.1246 27.4999 34.6659 27.4999C34.2077 27.4999 33.8328 27.8748 33.8328 28.333V29.9998H31.3329C29.9579 29.9998 28.833 31.1246 28.833 32.4996V47.4995C28.833 48.8745 29.9579 50 31.3329 50H47.9995C49.3746 50 50.4994 48.8745 50.4994 47.4995V32.4996C50.4994 31.1246 49.3746 29.9998 47.9995 29.9998ZM48.8326 47.4995C48.8326 47.9583 48.4577 48.3332 47.9995 48.3332H31.3329C30.8741 48.3332 30.4992 47.9583 30.4992 47.4995V36.6663H48.8326V47.4995Z" fill="#3E53D7"/>
</g>
<path d="M6.33369 23.3333H10.5004C10.5552 23.3333 10.6089 23.3387 10.6625 23.3489C10.7168 23.3598 10.7686 23.3754 10.8193 23.3965C10.8699 23.4176 10.9175 23.443 10.9633 23.4737C11.0085 23.5038 11.0507 23.5382 11.0893 23.5774C11.1279 23.616 11.1629 23.6582 11.193 23.7034C11.2237 23.7492 11.2491 23.7968 11.2702 23.8475C11.2913 23.8981 11.3069 23.9499 11.3178 24.0036C11.328 24.0572 11.3335 24.1115 11.3335 24.1663V30.8329C11.3335 30.8877 11.328 30.942 11.3178 30.9956C11.3069 31.0493 11.2913 31.1017 11.2702 31.1518C11.2491 31.2024 11.2237 31.2506 11.193 31.2959C11.1629 31.3417 11.1279 31.3839 11.0893 31.4224C11.0507 31.461 11.0085 31.4954 10.9633 31.5261C10.9175 31.5563 10.8699 31.5822 10.8193 31.6033C10.7686 31.6238 10.7168 31.6395 10.6625 31.6503C10.6089 31.6612 10.5552 31.6666 10.5004 31.6666H6.33369C6.27884 31.6666 6.22459 31.6612 6.17093 31.6503C6.11728 31.6395 6.06544 31.6238 6.01481 31.6033C5.96417 31.5822 5.91594 31.5563 5.87073 31.5261C5.82492 31.4954 5.78272 31.461 5.74414 31.4224C5.70556 31.3839 5.6712 31.3417 5.64046 31.2959C5.61032 31.2506 5.58439 31.2024 5.5639 31.1518C5.5428 31.1017 5.52713 31.0493 5.51628 30.9956C5.50543 30.942 5.5 30.8877 5.5 30.8329V24.1663C5.5 24.1115 5.50543 24.0572 5.51628 24.0036C5.52713 23.9499 5.5428 23.8981 5.5639 23.8475C5.58439 23.7968 5.61032 23.7492 5.64046 23.7034C5.6712 23.6582 5.70556 23.616 5.74414 23.5774C5.78272 23.5382 5.82492 23.5038 5.87073 23.4737C5.91594 23.443 5.96417 23.4176 6.01481 23.3965C6.06544 23.3754 6.11728 23.3598 6.17093 23.3489C6.22459 23.3387 6.27884 23.3333 6.33369 23.3333Z" fill="#3E53D7"/>
<path d="M13.8331 18.3329H17.9998C18.0546 18.3329 18.1089 18.3383 18.1625 18.3492C18.2162 18.36 18.2686 18.3757 18.3186 18.3968C18.3693 18.4173 18.4175 18.4432 18.4627 18.4733C18.5085 18.5041 18.5507 18.5384 18.5893 18.577C18.6279 18.6156 18.6623 18.6578 18.693 18.7036C18.7231 18.7488 18.7491 18.7971 18.7702 18.8477C18.7907 18.8983 18.8069 18.9502 18.8172 19.0038C18.828 19.0575 18.8335 19.1117 18.8335 19.1666V30.8329C18.8335 30.8877 18.828 30.942 18.8172 30.9956C18.8069 31.0493 18.7907 31.1017 18.7702 31.1518C18.7491 31.2024 18.7231 31.2506 18.693 31.2958C18.6623 31.3417 18.6279 31.3839 18.5893 31.4224C18.5507 31.461 18.5085 31.4954 18.4627 31.5261C18.4175 31.5563 18.3693 31.5822 18.3186 31.6033C18.2686 31.6238 18.2162 31.6395 18.1625 31.6503C18.1089 31.6612 18.0546 31.6666 17.9998 31.6666H13.8331C13.7788 31.6666 13.7246 31.6612 13.6709 31.6503C13.6173 31.6395 13.5648 31.6238 13.5142 31.6033C13.4642 31.5822 13.4159 31.5563 13.3701 31.5261C13.3249 31.4954 13.2827 31.461 13.2441 31.4224C13.2056 31.3839 13.1706 31.3417 13.1405 31.2958C13.1103 31.2506 13.0844 31.2024 13.0633 31.1518C13.0422 31.1017 13.0265 31.0493 13.0163 30.9956C13.0054 30.942 13 30.8877 13 30.8329V19.1666C13 19.1117 13.0054 19.0575 13.0163 19.0038C13.0265 18.9502 13.0422 18.8983 13.0633 18.8477C13.0844 18.7971 13.1103 18.7488 13.1405 18.7036C13.1706 18.6578 13.2056 18.6156 13.2441 18.577C13.2827 18.5384 13.3249 18.5041 13.3701 18.4733C13.4159 18.4432 13.4642 18.4173 13.5142 18.3968C13.5648 18.3757 13.6173 18.36 13.6709 18.3492C13.7246 18.3383 13.7788 18.3329 13.8331 18.3329Z" fill="#3E53D7"/>
<path d="M21.3331 20.8334H25.4998C25.5546 20.8334 25.6089 20.8382 25.6625 20.849C25.7162 20.8599 25.768 20.8756 25.8186 20.8967C25.8693 20.9178 25.9175 20.9431 25.9627 20.9738C26.0079 21.004 26.0501 21.0383 26.0893 21.0769C26.1279 21.1161 26.1623 21.1577 26.1924 21.2035C26.2231 21.2487 26.2485 21.2969 26.2696 21.3476C26.2907 21.3982 26.3063 21.4501 26.3172 21.5037C26.328 21.5574 26.3328 21.6116 26.3328 21.6665V30.8329C26.3328 30.8877 26.328 30.942 26.3172 30.9957C26.3063 31.0493 26.2907 31.1017 26.2696 31.1518C26.2485 31.2024 26.2231 31.2506 26.1924 31.2959C26.1623 31.3417 26.1279 31.3839 26.0893 31.4224C26.0501 31.461 26.0079 31.4954 25.9627 31.5261C25.9175 31.5563 25.8693 31.5822 25.8186 31.6033C25.768 31.6238 25.7162 31.6395 25.6625 31.6503C25.6089 31.6612 25.5546 31.6666 25.4998 31.6666H21.3331C21.2782 31.6666 21.224 31.6612 21.1703 31.6503C21.1167 31.6395 21.0648 31.6238 21.0142 31.6033C20.9636 31.5822 20.9153 31.5563 20.8701 31.5261C20.8249 31.4954 20.7827 31.461 20.7435 31.4224C20.705 31.3839 20.6706 31.3417 20.6405 31.2959C20.6097 31.2506 20.5844 31.2024 20.5633 31.1518C20.5422 31.1017 20.5265 31.0493 20.5157 30.9957C20.5048 30.942 20.5 30.8877 20.5 30.8329V21.6665C20.5 21.6116 20.5048 21.5574 20.5157 21.5037C20.5265 21.4501 20.5422 21.3982 20.5633 21.3476C20.5844 21.2969 20.6097 21.2487 20.6405 21.2035C20.6706 21.1577 20.705 21.1161 20.7435 21.0769C20.7827 21.0383 20.8249 21.004 20.8701 20.9738C20.9153 20.9431 20.9636 20.9178 21.0142 20.8967C21.0648 20.8756 21.1167 20.8599 21.1703 20.849C21.224 20.8382 21.2782 20.8334 21.3331 20.8334Z" fill="#3E53D7"/>
<path d="M6.33369 10.8332H16.3338C16.792 10.8332 17.1669 10.4582 17.1669 9.99947C17.1669 9.54133 16.792 9.16638 16.3338 9.16638H6.33369C5.87495 9.16638 5.5 9.54133 5.5 9.99947C5.5 10.4582 5.87495 10.8332 6.33369 10.8332Z" fill="#3E53D7"/>
<path d="M17.1669 13.3331C17.1669 12.875 16.792 12.5 16.3338 12.5H6.33369C5.87495 12.5 5.5 12.875 5.5 13.3331C5.5 13.7912 5.87495 14.1662 6.33369 14.1662H16.3338C16.792 14.1662 17.1669 13.7912 17.1669 13.3331Z" fill="#3E53D7"/>
<path d="M10.5004 15.833H6.33369C5.87495 15.833 5.5 16.208 5.5 16.6667C5.5 17.1248 5.87495 17.4998 6.33369 17.4998H10.5004C10.9585 17.4998 11.3335 17.1248 11.3335 16.6667C11.3335 16.208 10.9585 15.833 10.5004 15.833Z" fill="#3E53D7"/>
<mask id="mask1_246_1338" style="mask-type:luminance" maskUnits="userSpaceOnUse" x="0" y="0" width="51" height="50">
<path d="M0.5 0H50.5V50H0.5V0Z" fill="white"/>
</mask>
<g mask="url(#mask1_246_1338)">
<path d="M41.3336 0C37.7836 0 34.7002 2.0333 33.1751 4.99976H4.66667C2.36692 4.99976 0.5 6.86668 0.5 9.16642V39.1662C0.5 41.4665 2.36692 43.3328 4.66667 43.3328H19.1499L16.4168 48.7913C16.2914 49.0499 16.2998 49.358 16.4499 49.5997C16.6 49.8414 16.8665 49.9916 17.1582 49.9916H26.6164C27.0752 49.9916 27.4501 49.6166 27.4501 49.1579L27.1583 42.4913C27.1583 42.0332 26.7834 41.6582 26.3253 41.6582H4.66667C3.29164 41.6582 2.16679 40.5328 2.16679 39.1583V36.6579H26.3331C26.7918 36.6579 27.1668 36.2829 27.1668 35.8248C27.1668 35.3666 26.7918 34.9917 26.3331 34.9917H2.16679V9.16642C2.16679 7.7914 3.29164 6.66654 4.66667 6.66654H32.5252C32.2998 7.46648 32.1665 8.29957 32.1665 9.16642C32.1665 14.2247 36.2747 18.3328 41.3336 18.3328C44.4332 18.3328 47.1749 16.783 48.8332 14.4164V27.7832C48.8332 28.2413 49.2082 28.6163 49.6669 28.6163C50.125 28.6163 50.5 28.2413 50.5 27.7832V9.16642C50.5 4.10819 46.3918 0 41.3336 0ZM44.5249 11.2914C44.3669 11.5331 44.0999 11.6663 43.8334 11.6663C43.6749 11.6663 43.5164 11.6247 43.3747 11.5246L40.8748 9.85785C40.6415 9.69992 40.4999 9.44131 40.4999 9.16642V4.99976C40.4999 4.54162 40.8748 4.16667 41.3336 4.16667C41.7917 4.16667 42.1667 4.54162 42.1667 4.99976V8.71612L44.2916 10.1333C44.675 10.3913 44.775 10.908 44.5249 11.2914Z" fill="#3E53D7"/>
</g>
<path d="M32.9997 38.3331H36.3327C36.3875 38.3331 36.4418 38.3386 36.4954 38.3494C36.5491 38.3597 36.6009 38.3753 36.6516 38.3964C36.7022 38.4175 36.7504 38.4428 36.7956 38.4736C36.8415 38.5037 36.8837 38.5387 36.9222 38.5773C36.9608 38.6159 36.9952 38.658 37.0259 38.7033C37.0561 38.7491 37.082 38.7967 37.1025 38.8473C37.1236 38.898 37.1392 38.9504 37.1501 39.0041C37.161 39.0577 37.1664 39.112 37.1664 39.1662V42.4998C37.1664 42.5547 37.161 42.6089 37.1501 42.6626C37.1392 42.7162 37.1236 42.768 37.1025 42.8187C37.082 42.8693 37.0561 42.9169 37.0259 42.9628C36.9952 43.008 36.9608 43.0502 36.9222 43.0887C36.8837 43.1279 36.8415 43.1623 36.7956 43.1924C36.7504 43.2232 36.7022 43.2485 36.6516 43.2696C36.6009 43.2907 36.5491 43.3064 36.4954 43.3172C36.4418 43.3275 36.3875 43.3329 36.3327 43.3329H32.9997C32.9449 43.3329 32.8906 43.3275 32.837 43.3172C32.7833 43.3064 32.7309 43.2907 32.6808 43.2696C32.6302 43.2485 32.582 43.2232 32.5367 43.1924C32.4909 43.1623 32.4487 43.1279 32.4102 43.0887C32.3716 43.0502 32.3372 43.008 32.3065 42.9628C32.2763 42.9169 32.2504 42.8693 32.2293 42.8187C32.2088 42.768 32.1925 42.7162 32.1823 42.6626C32.1714 42.6089 32.166 42.5547 32.166 42.4998V39.1662C32.166 39.112 32.1714 39.0577 32.1823 39.0041C32.1925 38.9504 32.2088 38.898 32.2293 38.8473C32.2504 38.7967 32.2763 38.7491 32.3065 38.7033C32.3372 38.658 32.3716 38.6159 32.4102 38.5773C32.4487 38.5387 32.4909 38.5037 32.5367 38.4736C32.582 38.4428 32.6302 38.4175 32.6808 38.3964C32.7309 38.3753 32.7833 38.3597 32.837 38.3494C32.8906 38.3386 32.9449 38.3331 32.9997 38.3331Z" fill="#3E53D7"/>
</svg>
