<svg width="90" height="78" viewBox="0 0 90 78" fill="none" xmlns="http://www.w3.org/2000/svg">
<g clip-path="url(#clip0_242_1047)">
<path d="M86.4562 59.898C81.6542 62.4227 56.7784 72.7396 51.4825 75.5246C46.1866 78.3099 43.2446 78.2829 39.0608 76.2656C34.8774 74.2482 8.4052 63.4622 3.63652 61.163C1.25342 60.0143 0 59.0442 0 58.1281V48.9539C0 48.9539 34.4637 41.3861 40.0274 39.3726C45.5908 37.3592 47.5212 37.2865 52.2558 39.0358C56.9911 40.7859 85.3023 45.9381 89.9817 47.6669L89.9796 56.7113C89.9803 57.6183 88.9005 58.6131 86.4562 59.898Z" fill="#912626"/>
<path d="M86.4544 50.778C81.6527 53.3017 56.7777 63.6189 51.4817 66.4035C46.1862 69.1892 43.2442 69.1619 39.0608 67.1445C34.877 65.1286 8.40583 54.3408 3.6375 52.043C-1.13083 49.7438 -1.23065 48.1615 3.45332 46.3114C8.13729 44.4607 34.4633 34.0424 40.0277 32.0289C45.5911 30.0162 47.5211 29.9428 52.2557 31.6928C56.9907 33.4421 81.7173 43.3698 86.396 45.0982C91.0765 46.8287 91.2561 48.2536 86.4544 50.778Z" fill="#C6302B"/>
<path d="M86.4562 45.0535C81.6542 47.5786 56.7784 57.8951 51.4825 60.6811C46.1866 63.4654 43.2446 63.4384 39.0608 61.4211C34.877 59.4048 8.4052 48.6177 3.63652 46.3185C1.25342 45.1698 0 44.2012 0 43.2847V34.1094C0 34.1094 34.4637 26.542 40.0274 24.5285C45.5908 22.515 47.5212 22.442 52.2558 24.1917C56.9914 25.9414 85.3026 31.0926 89.9817 32.8217L89.9796 41.8672C89.9803 42.7738 88.9005 43.7686 86.4562 45.0535Z" fill="#912626"/>
<path d="M86.4544 35.9335C81.6527 38.4579 56.7777 48.7744 51.4817 51.5601C46.1862 54.3447 43.2442 54.3174 39.0608 52.3001C34.877 50.2841 8.40583 39.4967 3.6375 37.1985C-1.13083 34.9 -1.23065 33.3173 3.45332 31.4666C8.13729 29.6169 34.4636 19.1979 40.0277 17.1848C45.5911 15.1717 47.5211 15.0987 52.2557 16.8483C56.9907 18.5977 81.7173 28.5246 86.396 30.2537C91.0765 31.9839 91.2561 33.4092 86.4544 35.9335Z" fill="#C6302B"/>
<path d="M86.4562 29.6588C81.6542 32.1832 56.7784 42.5004 51.4825 45.2864C46.1866 48.071 43.2446 48.0437 39.0608 46.0264C34.877 44.0101 8.4052 33.2227 3.63652 30.9245C1.25342 29.7747 0 28.8058 0 27.8903V18.7147C0 18.7147 34.4637 11.1476 40.0274 9.13451C45.5908 7.12069 47.5212 7.04837 52.2558 8.79769C56.9914 10.5474 85.3026 15.6986 89.9817 17.4277L89.9796 26.4728C89.9803 27.3787 88.9005 28.3736 86.4562 29.6588Z" fill="#912626"/>
<path d="M86.4542 20.5388C81.6525 23.0632 56.7775 33.3805 51.4816 36.1651C46.186 38.9497 43.244 38.9224 39.0606 36.9061C34.8771 34.8887 8.40565 24.102 3.63768 21.8035C-1.131 19.5053 -1.23047 17.9223 3.45314 16.0719C8.13711 14.2219 34.4634 3.80427 40.0275 1.79045C45.5909 -0.223009 47.521 -0.295337 52.2556 1.45435C56.9905 3.20403 81.7172 13.1309 86.3959 14.8601C91.0763 16.5888 91.2559 18.0145 86.4542 20.5388Z" fill="#C6302B"/>
<path d="M55.9867 11.6138L48.2504 12.424L46.5186 16.6275L43.7215 11.9368L34.7883 11.127L41.454 8.7023L39.454 4.98029L45.6947 7.44225L51.578 5.49934L49.9878 9.34793L55.9867 11.6138ZM46.0568 32.0066L31.6186 25.9662L52.3073 22.7629L46.0568 32.0066ZM26.0393 13.9503C32.1465 13.9503 37.0973 15.8861 37.0973 18.2736C37.0973 20.6618 32.1465 22.5973 26.0393 22.5973C19.9322 22.5973 14.9814 20.6615 14.9814 18.2736C14.9814 15.8861 19.9322 13.9503 26.0393 13.9503Z" fill="white"/>
<path d="M65.1299 12.7629L77.3744 17.6436L65.1404 22.5197L65.1299 12.7629Z" fill="#621B1C"/>
<path d="M51.583 18.168L65.1295 12.7629L65.14 22.5197L63.8117 23.0437L51.583 18.168Z" fill="#9A2928"/>
</g>
<defs>
<clipPath id="clip0_242_1047">
<rect width="90" height="78" fill="white"/>
</clipPath>
</defs>
</svg>
