<svg width="16" height="16" viewBox="0 0 16 16" fill="none" xmlns="http://www.w3.org/2000/svg">
<g clip-path="url(#clip0_1121_1161)">
<path d="M0.820714 14.4054C1.26104 14.4054 1.61799 14.7624 1.61799 15.2027C1.61799 15.643 1.26104 16 0.820714 16C0.380391 16 0.0234375 15.643 0.0234375 15.2027C0.0234375 14.7624 0.380391 14.4054 0.820714 14.4054Z" fill="black"/>
<path d="M3.1879 11.9894C3.62823 11.9894 3.98518 12.3464 3.98518 12.7867C3.98518 13.227 3.62823 13.584 3.1879 13.584C2.74758 13.584 2.39062 13.227 2.39062 12.7867C2.39062 12.3464 2.74758 11.9894 3.1879 11.9894Z" fill="black"/>
<path d="M3.1879 14.4054C3.62823 14.4054 3.98518 14.7624 3.98518 15.2027C3.98518 15.643 3.62823 16 3.1879 16C2.74758 16 2.39062 15.643 2.39062 15.2027C2.39062 14.7624 2.74758 14.4054 3.1879 14.4054Z" fill="black"/>
<path d="M5.60392 11.9894C6.04424 11.9894 6.40119 12.3464 6.40119 12.7867C6.40119 13.227 6.04424 13.584 5.60392 13.584C5.16359 13.584 4.80664 13.227 4.80664 12.7867C4.80664 12.3464 5.16359 11.9894 5.60392 11.9894Z" fill="black"/>
<path d="M5.60392 9.62175C6.04424 9.62175 6.40119 9.97871 6.40119 10.419C6.40119 10.8594 6.04424 11.2163 5.60392 11.2163C5.16359 11.2163 4.80664 10.8594 4.80664 10.419C4.80664 9.97871 5.16359 9.62175 5.60392 9.62175Z" fill="black"/>
<path d="M5.60392 14.4054C6.04424 14.4054 6.40119 14.7624 6.40119 15.2027C6.40119 15.643 6.04424 16 5.60392 16C5.16359 16 4.80664 15.643 4.80664 15.2027C4.80664 14.7624 5.16359 14.4054 5.60392 14.4054Z" fill="black"/>
<path d="M7.97306 11.9894C8.41338 11.9894 8.77034 12.3464 8.77034 12.7867C8.77034 13.227 8.41338 13.584 7.97306 13.584C7.53273 13.584 7.17578 13.227 7.17578 12.7867C7.17578 12.3464 7.53273 11.9894 7.97306 11.9894Z" fill="black"/>
<path d="M7.97306 9.62175C8.41338 9.62175 8.77034 9.97871 8.77034 10.419C8.77034 10.8594 8.41338 11.2163 7.97306 11.2163C7.53273 11.2163 7.17578 10.8594 7.17578 10.419C7.17578 9.97871 7.53273 9.62175 7.97306 9.62175Z" fill="black"/>
<path d="M7.97306 14.4054C8.41338 14.4054 8.77034 14.7624 8.77034 15.2027C8.77034 15.643 8.41338 16 7.97306 16C7.53273 16 7.17578 15.643 7.17578 15.2027C7.17578 14.7624 7.53273 14.4054 7.97306 14.4054Z" fill="black"/>
<path d="M10.3402 11.9894C10.7806 11.9894 11.1375 12.3464 11.1375 12.7867C11.1375 13.227 10.7806 13.584 10.3402 13.584C9.89992 13.584 9.54297 13.227 9.54297 12.7867C9.54297 12.3464 9.89992 11.9894 10.3402 11.9894Z" fill="black"/>
<path d="M10.3402 9.62175C10.7806 9.62175 11.1375 9.97871 11.1375 10.419C11.1375 10.8594 10.7806 11.2163 10.3402 11.2163C9.89992 11.2163 9.54297 10.8594 9.54297 10.419C9.54297 9.97871 9.89992 9.62175 10.3402 9.62175Z" fill="black"/>
<path d="M7.97306 7.25408C8.41338 7.25408 8.77034 7.61103 8.77034 8.05136C8.77034 8.49168 8.41338 8.84863 7.97306 8.84863C7.53273 8.84863 7.17578 8.49168 7.17578 8.05136C7.17578 7.61103 7.53273 7.25408 7.97306 7.25408Z" fill="black"/>
<path d="M10.3402 7.25408C10.7806 7.25408 11.1375 7.61103 11.1375 8.05136C11.1375 8.49168 10.7806 8.84863 10.3402 8.84863C9.89992 8.84863 9.54297 8.49168 9.54297 8.05136C9.54297 7.61103 9.89992 7.25408 10.3402 7.25408Z" fill="black"/>
<path d="M5.60397 4.83796C6.04432 4.83796 6.4013 5.19493 6.4013 5.63529C6.4013 6.07564 6.04432 6.43262 5.60397 6.43262C5.16362 6.43262 4.80664 6.07564 4.80664 5.63529C4.80664 5.19493 5.16362 4.83796 5.60397 4.83796Z" fill="black"/>
<path d="M7.97311 4.83796C8.41347 4.83796 8.77044 5.19493 8.77044 5.63529C8.77044 6.07564 8.41347 6.43262 7.97311 6.43262C7.53276 6.43262 7.17578 6.07564 7.17578 5.63529C7.17578 5.19493 7.53276 4.83796 7.97311 4.83796Z" fill="black"/>
<path d="M10.3403 4.83796C10.7807 4.83796 11.1376 5.19493 11.1376 5.63529C11.1376 6.07564 10.7807 6.43262 10.3403 6.43262C9.89995 6.43262 9.54297 6.07564 9.54297 5.63529C9.54297 5.19493 9.89995 4.83796 10.3403 4.83796Z" fill="black"/>
<path d="M3.1879 2.46746C3.62823 2.46746 3.98518 2.82441 3.98518 3.26474C3.98518 3.70506 3.62823 4.06201 3.1879 4.06201C2.74758 4.06201 2.39062 3.70506 2.39062 3.26474C2.39062 2.82441 2.74758 2.46746 3.1879 2.46746Z" fill="black"/>
<path d="M5.60392 2.46746C6.04424 2.46746 6.40119 2.82441 6.40119 3.26474C6.40119 3.70506 6.04424 4.06201 5.60392 4.06201C5.16359 4.06201 4.80664 3.70506 4.80664 3.26474C4.80664 2.82441 5.16359 2.46746 5.60392 2.46746Z" fill="black"/>
<path d="M7.97306 2.46746C8.41338 2.46746 8.77034 2.82441 8.77034 3.26474C8.77034 3.70506 8.41338 4.06201 7.97306 4.06201C7.53273 4.06201 7.17578 3.70506 7.17578 3.26474C7.17578 2.82441 7.53273 2.46746 7.97306 2.46746Z" fill="black"/>
<path d="M10.3402 2.46746C10.7806 2.46746 11.1375 2.82441 11.1375 3.26474C11.1375 3.70506 10.7806 4.06201 10.3402 4.06201C9.89992 4.06201 9.54297 3.70506 9.54297 3.26474C9.54297 2.82441 9.89992 2.46746 10.3402 2.46746Z" fill="black"/>
<path d="M12.807 9.62175C13.2474 9.62175 13.6043 9.97871 13.6043 10.419C13.6043 10.8594 13.2474 11.2163 12.807 11.2163C12.3667 11.2163 12.0098 10.8594 12.0098 10.419C12.0098 9.97871 12.3667 9.62175 12.807 9.62175Z" fill="black"/>
<path d="M12.807 7.25408C13.2474 7.25408 13.6043 7.61103 13.6043 8.05136C13.6043 8.49168 13.2474 8.84863 12.807 8.84863C12.3667 8.84863 12.0098 8.49168 12.0098 8.05136C12.0098 7.61103 12.3667 7.25408 12.807 7.25408Z" fill="black"/>
<path d="M12.8071 4.83796C13.2475 4.83796 13.6044 5.19493 13.6044 5.63529C13.6044 6.07564 13.2475 6.43262 12.8071 6.43262C12.3667 6.43262 12.0098 6.07564 12.0098 5.63529C12.0098 5.19493 12.3667 4.83796 12.8071 4.83796Z" fill="black"/>
<path d="M0.820768 6.41346e-05C1.26112 6.41346e-05 1.6181 0.357041 1.6181 0.797395C1.6181 1.23775 1.26112 1.59473 0.820768 1.59473C0.380415 1.59473 0.0234375 1.23775 0.0234375 0.797395C0.0234375 0.357041 0.380415 6.41346e-05 0.820768 6.41346e-05Z" fill="black"/>
<path d="M3.18796 6.41346e-05C3.62831 6.41346e-05 3.98529 0.357041 3.98529 0.797395C3.98529 1.23775 3.62831 1.59473 3.18796 1.59473C2.7476 1.59473 2.39062 1.23775 2.39062 0.797395C2.39062 0.357041 2.7476 6.41346e-05 3.18796 6.41346e-05Z" fill="black"/>
<path d="M5.60397 6.41346e-05C6.04432 6.41346e-05 6.4013 0.357041 6.4013 0.797395C6.4013 1.23775 6.04432 1.59473 5.60397 1.59473C5.16362 1.59473 4.80664 1.23775 4.80664 0.797395C4.80664 0.357041 5.16362 6.41346e-05 5.60397 6.41346e-05Z" fill="black"/>
<path d="M7.97311 6.41346e-05C8.41347 6.41346e-05 8.77044 0.357041 8.77044 0.797395C8.77044 1.23775 8.41347 1.59473 7.97311 1.59473C7.53276 1.59473 7.17578 1.23775 7.17578 0.797395C7.17578 0.357041 7.53276 6.41346e-05 7.97311 6.41346e-05Z" fill="black"/>
<path d="M15.1781 7.25408C15.6185 7.25408 15.9754 7.61103 15.9754 8.05136C15.9754 8.49168 15.6185 8.84863 15.1781 8.84863C14.7378 8.84863 14.3809 8.49168 14.3809 8.05136C14.3809 7.61103 14.7378 7.25408 15.1781 7.25408Z" fill="black"/>
</g>
<defs>
<clipPath id="clip0_1121_1161">
<rect width="16" height="16" fill="white" transform="matrix(1 0 0 -1 0 16)"/>
</clipPath>
</defs>
</svg>
