<svg width="19" height="19" viewBox="0 0 19 19" fill="none" xmlns="http://www.w3.org/2000/svg">
<path d="M18.608 0.87628C18.4373 0.71471 18.2242 0.59916 17.9907 0.541533C17.7571 0.483906 17.5116 0.486286 17.2794 0.548427H17.2667L0.982279 5.22837C0.717198 5.30057 0.48163 5.44755 0.306943 5.64972C0.132256 5.85189 0.026739 6.09967 0.00444308 6.36006C-0.0178529 6.62045 0.0441301 6.88109 0.182138 7.10728C0.320147 7.33348 0.527631 7.51448 0.776964 7.6262L8.04105 10.8846L11.4814 17.7647C11.59 17.9851 11.7629 18.1714 11.9796 18.3016C12.1964 18.4319 12.448 18.5008 12.7048 18.5C12.7438 18.5 12.7828 18.4984 12.8218 18.4952C13.0958 18.4742 13.3564 18.3743 13.5687 18.209C13.781 18.0437 13.9349 17.8208 14.0096 17.5703L18.9474 2.14671C18.9474 2.14269 18.9474 2.13868 18.9474 2.13466C19.0138 1.91526 19.0174 1.68305 18.9578 1.4619C18.8981 1.24075 18.7774 1.03862 18.608 0.87628ZM12.7124 17.2022L12.7082 17.2135L9.36881 10.5367L13.3767 6.73987C13.4986 6.61833 13.5656 6.45649 13.5633 6.28886C13.561 6.12123 13.4897 5.96107 13.3646 5.84253C13.2394 5.72399 13.0703 5.65644 12.8933 5.6543C12.7163 5.65215 12.5455 5.71557 12.4171 5.83104L8.40841 9.62707L1.35812 6.46425H1.37L17.6476 1.78591L12.7124 17.2022Z" fill="#3E53D7"/>
</svg>
