<svg width="90" height="40" viewBox="0 0 90 40" fill="none" xmlns="http://www.w3.org/2000/svg">
<g clip-path="url(#clip0_242_1082)">
<path d="M34.1961 19.6568C32.9974 19.6568 32.0226 20.0112 31.2753 20.7191C30.5283 21.4279 30.1492 22.3568 30.1492 23.4953C30.1492 24.0851 30.2432 24.623 30.4286 25.1158C30.6142 25.6096 30.903 26.0672 31.291 26.4807C31.679 26.8944 32.4558 27.4563 33.6133 28.171C35.034 29.0367 35.9635 29.7393 36.4097 30.2879C36.856 30.836 37.0776 31.4103 37.0776 32.0093C37.0776 32.811 36.8133 33.4512 36.2698 33.9323C35.7255 34.4137 34.9974 34.6533 34.095 34.6533C33.1431 34.6533 32.3138 34.3184 31.6017 33.6533C30.8896 32.987 30.53 32.1058 30.522 31.0012H30.0791V35.0102H30.522C30.6573 34.6305 30.8443 34.4365 31.0891 34.4365C31.2068 34.4365 31.4827 34.5174 31.9124 34.6689C32.9578 35.0403 33.8163 35.2195 34.4912 35.2195C35.654 35.2195 36.6467 34.813 37.4738 33.9867C38.2997 33.1607 38.7166 32.1644 38.7166 31.0012C38.7166 30.0995 38.4414 29.2968 37.9011 28.5975C37.3608 27.8972 36.31 27.0826 34.7396 26.1472C33.3884 25.3367 32.5113 24.6767 32.1066 24.1621C31.7012 23.6482 31.4929 23.0798 31.4929 22.4561C31.4929 21.7816 31.7412 21.2396 32.2308 20.8354C32.7204 20.431 33.362 20.2307 34.165 20.2307C35.0683 20.2307 35.8215 20.4984 36.4174 21.0372C37.0128 21.5768 37.3571 22.3247 37.4583 23.2858H37.9011V19.8121H37.4894C37.439 19.9891 37.3924 20.1023 37.3495 20.1531C37.3079 20.2037 37.2277 20.2307 37.1087 20.2307C36.9655 20.2307 36.7102 20.1705 36.3475 20.0523C35.5707 19.7912 34.8546 19.6568 34.1959 19.6568H34.1961ZM48.6666 19.6568C47.2061 19.6568 45.88 20.0007 44.682 20.6882C43.482 21.3745 42.5322 22.3277 41.8313 23.5417C41.1307 24.7558 40.7827 26.0449 40.7827 27.4189C40.7827 29.2645 41.3879 30.9091 42.6081 32.3505C43.8288 33.7909 45.2916 34.6884 46.9889 35.0335C47.3769 35.2353 47.932 35.7563 48.6589 36.5998C49.4778 37.5516 50.1707 38.2381 50.7405 38.6468C51.2974 39.0477 51.9167 39.3542 52.5734 39.5542C53.2236 39.7517 53.9264 39.8489 54.6863 39.8489C55.6066 39.8489 56.4305 39.6891 57.1563 39.3603L56.9932 38.957C56.572 39.1088 56.1226 39.1819 55.6495 39.1819C55.0072 39.1819 54.3582 38.9705 53.7076 38.5461C53.0579 38.1205 52.2455 37.3088 51.2765 36.1112C50.821 35.5375 50.5066 35.1754 50.3287 35.0335C52.1859 34.6714 53.7129 33.773 54.9039 32.3349C56.0943 30.8977 56.6902 29.2574 56.6902 27.4188C56.6902 25.236 55.9122 23.4012 54.3679 21.9056C52.8221 20.4096 50.9213 19.6568 48.6666 19.6568ZM57.7 19.6568L57.7234 20.1298C58.6957 20.1298 59.2405 20.4158 59.3623 20.9905C59.4076 21.1963 59.4284 21.576 59.4321 22.1226L59.4243 32.5831C59.4163 33.3644 59.3048 33.8631 59.0904 34.0796C58.8757 34.2945 58.5128 34.4293 57.9875 34.4828L57.9641 34.956H67.6578L67.9065 32.5831H67.4636C67.3371 33.2295 67.0473 33.6926 66.586 33.9556C66.1233 34.2205 65.3052 34.351 64.1237 34.351H63.2071C62.1439 34.351 61.5288 33.9674 61.3662 33.1956C61.3328 33.043 61.3212 32.8793 61.3197 32.6995L61.3583 22.1226C61.3583 21.3426 61.4569 20.82 61.6615 20.564C61.868 20.3091 62.2405 20.1665 62.7799 20.1298L62.7567 19.6568H57.7ZM48.8218 20.2305C50.4693 20.2305 51.8142 20.8784 52.8532 22.1847C53.8918 23.4916 54.4067 25.2826 54.4067 27.5507C54.4067 29.6998 53.8844 31.4205 52.8377 32.7149C51.7909 34.0089 50.3978 34.6535 48.6666 34.6535C47.0034 34.6535 45.6547 33.9888 44.6197 32.653C43.5857 31.317 43.0741 29.5826 43.0741 27.4498C43.0741 25.2582 43.592 23.5038 44.6354 22.1924C45.678 20.8826 47.0743 20.2307 48.822 20.2307L48.8218 20.2305ZM71.1144 22.4795C70.8778 22.4795 70.6977 22.5591 70.5629 22.7198C70.4249 22.8798 70.3826 23.0737 70.4307 23.3091C70.4773 23.5375 70.6065 23.7375 70.8114 23.9061C71.0152 24.0745 71.2351 24.1621 71.4716 24.1621C71.7003 24.1621 71.8746 24.0745 71.9997 23.9061C72.125 23.7377 72.1632 23.5375 72.1162 23.3091C72.0681 23.0737 71.9435 22.8798 71.7512 22.7196C71.5567 22.5591 71.343 22.4795 71.1144 22.4795ZM77.5068 24.0845C77.105 25.6274 76.2343 26.4623 74.8971 26.5968L74.9126 27.0389H76.4738L76.4427 32.2653C76.4452 33.1588 76.4726 33.7537 76.5358 34.0565C76.6898 34.7812 77.1639 35.1498 77.9574 35.1498C79.1055 35.1498 80.3096 34.4516 81.5691 33.0561L81.1887 32.7305C80.2792 33.6495 79.4752 34.1107 78.773 34.1107C78.3414 34.1107 78.0739 33.863 77.9728 33.374C77.9453 33.2552 77.9342 33.1165 77.9342 32.9553L77.9496 27.0389H80.3342L80.3108 26.3331H77.9574V24.0845H77.5068ZM86.7266 26.054C85.3928 26.054 84.308 26.7005 83.4644 27.9849C82.6253 29.2714 82.3656 30.6968 82.6954 32.2653C82.8896 33.1838 83.2764 33.8958 83.8683 34.3975C84.4593 34.8993 85.209 35.1498 86.1054 35.1498C86.9398 35.1498 88.1018 34.9388 88.5909 34.5138C89.0812 34.0893 89.5328 33.4012 89.9502 32.4591L89.6163 32.11C88.9506 33.3324 87.6076 33.9479 86.5947 33.9479C85.2021 33.9479 84.3493 33.1851 84.0314 31.6681C83.9886 31.4632 83.9575 31.2561 83.9382 31.0477C85.5949 30.786 86.8504 30.3223 87.6976 29.6521C88.5443 28.9814 89.3943 28.2705 89.2356 27.5196C89.1411 27.0733 88.9091 26.7224 88.552 26.4574C88.1904 26.1923 87.2516 26.054 86.7266 26.054ZM72.1475 26.1084L69.2735 26.7675V27.2793L70.2677 27.1553C70.7492 27.1553 71.0326 27.3728 71.1221 27.8065C71.1521 27.9516 71.1713 28.1556 71.1766 28.4114L71.1453 33.1026C71.1374 33.7517 71.0652 34.1291 70.9202 34.2424C70.7738 34.356 70.3879 34.4131 69.7628 34.4131L69.7473 34.8551H74.3066L74.2989 34.413C73.6654 34.413 73.2547 34.3631 73.0717 34.2656C72.8918 34.1691 72.7677 33.9928 72.7144 33.723C72.6731 33.5286 72.655 33.1935 72.6522 32.7305L72.6679 26.1084H72.1473H72.1475ZM85.9966 26.9768C86.2741 26.9768 86.5421 27.0838 86.812 27.2947C87.0785 27.5049 87.2407 27.7386 87.2937 27.9926C87.5538 29.24 86.4462 30.1021 83.9537 30.5824C83.8827 29.6731 84.0405 28.8474 84.4431 28.1012C84.8427 27.3556 85.3631 26.9768 85.9966 26.9768Z" fill="#003B57"/>
<path d="M27.7585 1.74597H3.02561C1.36788 1.74597 0.0117188 3.10001 0.0117188 4.75474V31.9842C0.0117188 33.639 1.36788 34.993 3.02561 34.993H19.3152C19.1303 26.9014 21.8982 11.1983 27.7585 1.74597Z" fill="#0F80CC"/>
<path d="M26.8598 2.62369H3.02548C1.84839 2.62369 0.890625 3.57965 0.890625 4.75492V29.9975C6.28856 27.9295 14.3902 26.1449 19.992 26.226C21.1178 20.3498 24.4262 8.83404 26.8598 2.62369Z" fill="url(#paint0_linear_242_1082)"/>
<path d="M33.5269 0.854749C31.833 -0.653145 29.782 -0.0475315 27.758 1.74598C27.4575 2.01229 27.1577 2.30791 26.8595 2.6237C23.3967 6.29089 20.1825 13.0833 19.184 18.2711C19.5731 19.0586 19.8769 20.0635 20.0769 20.8312C20.1282 21.0281 20.1744 21.213 20.2115 21.3702C20.2994 21.7425 20.3467 21.9837 20.3467 21.9837C20.3467 21.9837 20.3156 21.8665 20.1881 21.4977C20.1639 21.427 20.1368 21.3498 20.1048 21.259C20.0882 21.2145 20.0704 21.1705 20.0514 21.127C19.8256 20.6028 19.2009 19.4965 18.9258 19.0147C18.7078 19.653 18.5021 20.2954 18.3088 20.9416C19.1026 22.3916 19.5864 24.8765 19.5864 24.8765C19.5864 24.8765 19.5444 24.7155 19.345 24.1533C19.1678 23.6563 18.2858 22.1133 18.0768 21.7526C17.7194 23.07 17.5774 23.9593 17.7055 24.1758C17.9542 24.5953 18.1909 25.3193 18.399 26.1198C18.8687 27.9233 19.1951 30.1191 19.1951 30.1191C19.1951 30.1191 19.2056 30.2647 19.2235 30.4886C19.1581 32.0032 19.1973 33.5735 19.3149 34.9928C19.4704 36.8718 19.7634 38.4858 20.1368 39.3497L20.3904 39.2118C19.8421 37.5098 19.6193 35.2795 19.7168 32.7072C19.8644 28.7756 20.7707 24.034 22.4453 19.0921C25.2747 11.6319 29.1999 5.64633 32.7925 2.78773C29.518 5.74001 25.0863 15.296 23.7596 18.8346C22.2741 22.7974 21.2215 26.516 20.5871 30.0788C21.6817 26.7386 25.2209 25.303 25.2209 25.303C25.2209 25.303 26.9566 23.1658 28.9852 20.1125C27.7701 20.3891 25.7748 20.8628 25.1065 21.1432C24.1206 21.556 23.8551 21.6969 23.8551 21.6969C23.8551 21.6969 27.0482 19.7554 29.7879 18.8765C33.5557 12.9523 37.6608 4.53615 33.5269 0.854749Z" fill="#003B57"/>
</g>
<defs>
<linearGradient id="paint0_linear_242_1082" x1="1498.32" y1="58.6306" x2="1498.32" y2="2587.78" gradientUnits="userSpaceOnUse">
<stop stop-color="#97D9F6"/>
<stop offset="0.92024" stop-color="#0F80CC"/>
<stop offset="1" stop-color="#0F80CC"/>
</linearGradient>
<clipPath id="clip0_242_1082">
<rect width="90" height="40" fill="white"/>
</clipPath>
</defs>
</svg>
